G04 #@! TF.FileFunction,Soldermask,Top*
%FSLAX46Y46*%
G04 Gerber Fmt 4.6, Leading zero omitted, Abs format (unit mm)*
G04 Created by KiCad (PCBNEW 4.0.7) date 02/18/18 10:01:47*
%MOMM*%
%LPD*%
G01*
G04 APERTURE LIST*
%ADD10C,0.100000*%
%ADD11R,0.670000X1.000000*%
%ADD12R,1.000000X0.670000*%
%ADD13R,1.000000X0.250000*%
%ADD14R,0.250000X1.000000*%
%ADD15R,0.230000X0.350000*%
%ADD16R,0.350000X0.230000*%
%ADD17R,1.700000X1.700000*%
%ADD18O,1.700000X1.700000*%
%ADD19R,0.250000X0.350000*%
%ADD20R,0.350000X0.250000*%
%ADD21R,5.600000X4.100000*%
%ADD22C,2.600000*%
%ADD23R,1.450000X2.000000*%
%ADD24R,0.800000X1.500000*%
%ADD25R,1.998980X2.499360*%
%ADD26C,0.909320*%
%ADD27R,0.500380X2.301240*%
%ADD28R,1.120000X2.440000*%
%ADD29R,1.200000X0.400000*%
%ADD30R,0.450000X1.450000*%
%ADD31R,0.950000X0.550000*%
%ADD32C,6.400000*%
%ADD33R,1.500000X0.970000*%
%ADD34R,0.800000X0.900000*%
%ADD35R,0.970000X1.500000*%
G04 APERTURE END LIST*
D10*
D11*
X118462500Y-56350000D03*
X120212500Y-56350000D03*
D12*
X113300000Y-77525000D03*
X113300000Y-75775000D03*
D13*
X93000000Y-65150000D03*
X93000000Y-65650000D03*
X93000000Y-66150000D03*
X93000000Y-66650000D03*
X93000000Y-67150000D03*
X93000000Y-67650000D03*
X93000000Y-68150000D03*
X93000000Y-68650000D03*
X93000000Y-69150000D03*
X93000000Y-69650000D03*
X93000000Y-70150000D03*
X93000000Y-70650000D03*
X93000000Y-71150000D03*
X93000000Y-71650000D03*
X93000000Y-72150000D03*
X93000000Y-72650000D03*
D14*
X94950000Y-74600000D03*
X95450000Y-74600000D03*
X95950000Y-74600000D03*
X96450000Y-74600000D03*
X96950000Y-74600000D03*
X97450000Y-74600000D03*
X97950000Y-74600000D03*
X98450000Y-74600000D03*
X98950000Y-74600000D03*
X99450000Y-74600000D03*
X99950000Y-74600000D03*
X100450000Y-74600000D03*
X100950000Y-74600000D03*
X101450000Y-74600000D03*
X101950000Y-74600000D03*
X102450000Y-74600000D03*
D13*
X104400000Y-72650000D03*
X104400000Y-72150000D03*
X104400000Y-71650000D03*
X104400000Y-71150000D03*
X104400000Y-70650000D03*
X104400000Y-70150000D03*
X104400000Y-69650000D03*
X104400000Y-69150000D03*
X104400000Y-68650000D03*
X104400000Y-68150000D03*
X104400000Y-67650000D03*
X104400000Y-67150000D03*
X104400000Y-66650000D03*
X104400000Y-66150000D03*
X104400000Y-65650000D03*
X104400000Y-65150000D03*
D14*
X102450000Y-63200000D03*
X101950000Y-63200000D03*
X101450000Y-63200000D03*
X100950000Y-63200000D03*
X100450000Y-63200000D03*
X99950000Y-63200000D03*
X99450000Y-63200000D03*
X98950000Y-63200000D03*
X98450000Y-63200000D03*
X97950000Y-63200000D03*
X97450000Y-63200000D03*
X96950000Y-63200000D03*
X96450000Y-63200000D03*
X95950000Y-63200000D03*
X95450000Y-63200000D03*
X94950000Y-63200000D03*
D15*
X110120000Y-78925000D03*
D16*
X110150000Y-79505000D03*
X113100000Y-79505000D03*
X110150000Y-79935000D03*
X113100000Y-79935000D03*
X110150000Y-80365000D03*
X113100000Y-80365000D03*
X110150000Y-80795000D03*
X113100000Y-80795000D03*
D15*
X110550000Y-78925000D03*
X110980000Y-78925000D03*
X111410000Y-78925000D03*
X111840000Y-78925000D03*
X112270000Y-78925000D03*
X112700000Y-78925000D03*
X113130000Y-78925000D03*
X110120000Y-81375000D03*
X110550000Y-81375000D03*
X110980000Y-81375000D03*
X111410000Y-81375000D03*
X111840000Y-81375000D03*
X112270000Y-81375000D03*
X112700000Y-81375000D03*
X113130000Y-81375000D03*
D12*
X111725000Y-67175000D03*
X111725000Y-65425000D03*
D17*
X81610000Y-86910000D03*
D18*
X84150000Y-86910000D03*
X81610000Y-89450000D03*
X84150000Y-89450000D03*
X81610000Y-91990000D03*
X84150000Y-91990000D03*
D19*
X111650000Y-68950000D03*
X111150000Y-68950000D03*
X110650000Y-68950000D03*
X110740000Y-71430000D03*
X111240000Y-71430000D03*
X111740000Y-71430000D03*
D20*
X112375000Y-69175000D03*
X112375000Y-69675000D03*
X112375000Y-70175000D03*
X112375000Y-70675000D03*
X112375000Y-71175000D03*
X109925000Y-71175000D03*
X109925000Y-70675000D03*
X109925000Y-70175000D03*
X109925000Y-69675000D03*
X109925000Y-69175000D03*
D21*
X84200000Y-73050000D03*
X84200000Y-61950000D03*
D22*
X105800000Y-101950000D03*
X105800000Y-107950000D03*
X110500000Y-104950000D03*
D23*
X102000000Y-57050000D03*
X88250000Y-57050000D03*
X88250000Y-48750000D03*
D24*
X90630000Y-54450000D03*
X91730000Y-54450000D03*
X92830000Y-54450000D03*
X93930000Y-54450000D03*
X95030000Y-54450000D03*
X97230000Y-54450000D03*
X98330000Y-54450000D03*
X96130000Y-54450000D03*
D23*
X102000000Y-48750000D03*
D25*
X89799840Y-112150000D03*
X89799840Y-106650900D03*
X98700000Y-106650900D03*
X98700000Y-112150000D03*
D26*
X92050280Y-109150260D03*
X96449560Y-109150260D03*
D27*
X95850120Y-106549300D03*
X95050020Y-106549300D03*
X94249920Y-106549300D03*
X93449820Y-106549300D03*
X92649720Y-106549300D03*
D17*
X128200000Y-66830000D03*
D18*
X128200000Y-64290000D03*
X128200000Y-61750000D03*
X128200000Y-59210000D03*
X128200000Y-56670000D03*
X128200000Y-54130000D03*
D17*
X128200000Y-70450000D03*
D18*
X128200000Y-72990000D03*
X128200000Y-75530000D03*
X128200000Y-78070000D03*
D17*
X81610000Y-78210000D03*
D18*
X84150000Y-78210000D03*
X81610000Y-80750000D03*
X84150000Y-80750000D03*
X81610000Y-83290000D03*
X84150000Y-83290000D03*
D28*
X105390000Y-55155000D03*
X113010000Y-46545000D03*
X107930000Y-55155000D03*
X110470000Y-46545000D03*
X110470000Y-55155000D03*
X107930000Y-46545000D03*
X113010000Y-55155000D03*
X105390000Y-46545000D03*
D29*
X103980254Y-99326726D03*
X103980254Y-98691726D03*
X103980254Y-98056726D03*
X103980254Y-97421726D03*
X103980254Y-96786726D03*
X103980254Y-96151726D03*
X103980254Y-95516726D03*
X103980254Y-94881726D03*
X98780254Y-94881726D03*
X98780254Y-95516726D03*
X98780254Y-96151726D03*
X98780254Y-96786726D03*
X98780254Y-97421726D03*
X98780254Y-98056726D03*
X98780254Y-98691726D03*
X98780254Y-99326726D03*
D30*
X120800000Y-58600000D03*
X120150000Y-58600000D03*
X119500000Y-58600000D03*
X118850000Y-58600000D03*
X118200000Y-58600000D03*
X117550000Y-58600000D03*
X116900000Y-58600000D03*
X116900000Y-64500000D03*
X117550000Y-64500000D03*
X118200000Y-64500000D03*
X118850000Y-64500000D03*
X119500000Y-64500000D03*
X120150000Y-64500000D03*
X120800000Y-64500000D03*
D31*
X118100000Y-83150000D03*
X118100000Y-79400000D03*
X118100000Y-80650000D03*
X118100000Y-81900000D03*
X120250000Y-79400000D03*
X120250000Y-80650000D03*
X120250000Y-81900000D03*
X120250000Y-83150000D03*
D17*
X117400000Y-105670000D03*
D18*
X119940000Y-105670000D03*
X117400000Y-108210000D03*
X119940000Y-108210000D03*
X117400000Y-110750000D03*
X119940000Y-110750000D03*
X117400000Y-113290000D03*
X119940000Y-113290000D03*
D17*
X120300000Y-46850000D03*
D18*
X117760000Y-46850000D03*
D17*
X128200000Y-81650000D03*
D18*
X128200000Y-84190000D03*
X128200000Y-86730000D03*
X128200000Y-89270000D03*
X128200000Y-91810000D03*
X128200000Y-94350000D03*
D17*
X125600000Y-70450000D03*
D18*
X125600000Y-72990000D03*
X125600000Y-75530000D03*
X125600000Y-78070000D03*
D17*
X128200000Y-97950000D03*
D18*
X128200000Y-100490000D03*
X128200000Y-103030000D03*
X128200000Y-105570000D03*
D32*
X125850000Y-48850000D03*
X125800000Y-111050000D03*
X83800000Y-49050000D03*
X83800000Y-111050000D03*
D11*
X93925000Y-93300000D03*
X92175000Y-93300000D03*
D12*
X108000000Y-93175000D03*
X108000000Y-94925000D03*
X93480254Y-96454226D03*
X93480254Y-98204226D03*
X95130254Y-96454226D03*
X95130254Y-98204226D03*
X96830254Y-96454226D03*
X96830254Y-98204226D03*
D11*
X106750000Y-89300000D03*
X108500000Y-89300000D03*
D12*
X99050000Y-85087500D03*
X99050000Y-83337500D03*
D11*
X106750000Y-87700000D03*
X108500000Y-87700000D03*
D12*
X101850000Y-85087500D03*
X101850000Y-83337500D03*
D11*
X106475000Y-66650000D03*
X108225000Y-66650000D03*
D12*
X101650000Y-76750000D03*
X101650000Y-78500000D03*
D11*
X89175000Y-70250000D03*
X90925000Y-70250000D03*
D12*
X108250000Y-65062500D03*
X108250000Y-63312500D03*
D11*
X89312500Y-65050000D03*
X91062500Y-65050000D03*
X95125000Y-61550000D03*
X96875000Y-61550000D03*
D12*
X106450000Y-65062500D03*
X106450000Y-63312500D03*
D11*
X90925000Y-73600000D03*
X89175000Y-73600000D03*
X103275000Y-76750000D03*
X105025000Y-76750000D03*
X90950000Y-71950000D03*
X89200000Y-71950000D03*
X96650000Y-76900000D03*
X94900000Y-76900000D03*
D12*
X110125000Y-67175000D03*
X110125000Y-65425000D03*
X121700000Y-53062500D03*
X121700000Y-51312500D03*
X116600000Y-51337500D03*
X116600000Y-53087500D03*
D11*
X118462500Y-54750000D03*
X120212500Y-54750000D03*
D12*
X114400000Y-64450000D03*
X114400000Y-66200000D03*
X108800000Y-77525000D03*
X108800000Y-75775000D03*
X116350000Y-79062500D03*
X116350000Y-80812500D03*
D11*
X108775000Y-78850000D03*
X107025000Y-78850000D03*
D12*
X110300000Y-77525000D03*
X110300000Y-75775000D03*
X111800000Y-77525000D03*
X111800000Y-75775000D03*
D33*
X88400000Y-97490000D03*
X88400000Y-99400000D03*
X85820000Y-97486000D03*
X85820000Y-99396000D03*
D34*
X93600000Y-84850000D03*
X95500000Y-84850000D03*
X94550000Y-82850000D03*
D35*
X83055000Y-104950000D03*
X81145000Y-104950000D03*
D33*
X82440000Y-55010000D03*
X82440000Y-53100000D03*
D11*
X96930254Y-95004226D03*
X95180254Y-95004226D03*
D34*
X95650000Y-87350000D03*
X93750000Y-87350000D03*
X94700000Y-89350000D03*
D11*
X96925000Y-93300000D03*
X95175000Y-93300000D03*
D12*
X106200000Y-94925000D03*
X106200000Y-93175000D03*
X90650000Y-102600000D03*
X90650000Y-100850000D03*
X83600000Y-100975000D03*
X83600000Y-102725000D03*
D11*
X85087500Y-104850000D03*
X86837500Y-104850000D03*
X120625000Y-98350000D03*
X122375000Y-98350000D03*
X120625000Y-100250000D03*
X122375000Y-100250000D03*
D12*
X108100000Y-69012500D03*
X108100000Y-70762500D03*
D11*
X89325000Y-61550000D03*
X91075000Y-61550000D03*
D12*
X118300000Y-53087500D03*
X118300000Y-51337500D03*
X120000000Y-53087500D03*
X120000000Y-51337500D03*
D11*
X116100000Y-67200000D03*
X117850000Y-67200000D03*
D12*
X108100000Y-81400000D03*
X108100000Y-83150000D03*
X116400000Y-84900000D03*
X116400000Y-83150000D03*
D11*
X111412500Y-82950000D03*
X109662500Y-82950000D03*
D12*
X114250000Y-60887500D03*
X114250000Y-59137500D03*
X112450000Y-60875000D03*
X112450000Y-59125000D03*
X110700000Y-60862500D03*
X110700000Y-59112500D03*
X109000000Y-60862500D03*
X109000000Y-59112500D03*
X87440000Y-53570000D03*
X87440000Y-51820000D03*
D11*
X82900000Y-95450000D03*
X81150000Y-95450000D03*
X82900000Y-97650000D03*
X81150000Y-97650000D03*
D34*
X105000000Y-87350000D03*
X103100000Y-87350000D03*
X104050000Y-89350000D03*
X100350000Y-87350000D03*
X98450000Y-87350000D03*
X99400000Y-89350000D03*
D33*
X82430000Y-58580000D03*
X82430000Y-56670000D03*
D11*
X86690000Y-58620000D03*
X84940000Y-58620000D03*
M02*
