M48
;DRILL file {KiCad 4.0.7} date 02/18/18 10:01:55
;FORMAT={-:-/ absolute / inch / decimal}
FMAT,2
INCH,TZ
T1C0.012
T2C0.035
T3C0.039
T4C0.063
T5C0.126
%
G90
G05
M72
T1
X3.1614Y-2.8465
X3.1949Y-4.0709
X3.2638Y-3.8819
X3.3465Y-4.0433
X3.375Y-3.7776
X3.4193Y-4.0925
X3.4539Y-2.3283
X3.4646Y-2.6098
X3.4902Y-2.4232
X3.5118Y-4.0384
X3.5138Y-2.1319
X3.5157Y-2.9331
X3.5197Y-1.9193
X3.5354Y-4.1319
X3.5384Y-3.8317
X3.5457Y-2.8224
X3.5472Y-3.4744
X3.5531Y-2.5059
X3.5787Y-2.7234
X3.5856Y-2.5906
X3.5955Y-3.6742
X3.6004Y-2.4882
X3.6102Y-2.3051
X3.6102Y-3.5236
X3.613Y-2.6122
X3.6171Y-2.75
X3.6535Y-2.2067
X3.6594Y-2.878
X3.6654Y-3.439
X3.6693Y-2.4321
X3.6709Y-3.0823
X3.6762Y-4.1309
X3.6811Y-3.7175
X3.6835Y-3.1886
X3.6909Y-3.0276
X3.6969Y-2.2047
X3.7008Y-2.3976
X3.7012Y-2.8528
X3.7106Y-2.7047
X3.7106Y-4.1319
X3.7116Y-3.7106
X3.7185Y-2.7736
X3.7236Y-2.9331
X3.7244Y-3.6102
X3.7343Y-3.374
X3.7402Y-2.2067
X3.7461Y-3.8937
X3.7488Y-2.7429
X3.7602Y-2.8492
X3.7667Y-2.5935
X3.7736Y-4.1339
X3.7827Y-3.2138
X3.7831Y-2.898
X3.7854Y-2.2008
X3.8071Y-2.9843
X3.8081Y-3.188
X3.8169Y-2.8996
X3.8179Y-3.4852
X3.8317Y-3.123
X3.8435Y-3.8986
X3.8504Y-2.5571
X3.8504Y-3.8612
X3.8563Y-2.4528
X3.8583Y-2.2264
X3.8642Y-3.0394
X3.8665Y-3.1476
X3.872Y-3.002
X3.8776Y-2.8992
X3.8799Y-2.373
X3.8878Y-4.1319
X3.9075Y-2.4459
X3.9085Y-2.1309
X3.9102Y-2.8996
X3.9173Y-2.9724
X3.9177Y-3.2425
X3.9311Y-3.2815
X3.9331Y-2.0945
X3.935Y-2.5256
X3.939Y-3.1705
X3.9465Y-2.8976
X3.9567Y-3.628
X3.9577Y-2.2018
X3.9587Y-2.4429
X3.9626Y-2.9764
X3.9665Y-3.0915
X3.9728Y-3.2799
X3.9744Y-2.5256
X3.976Y-2.8197
X3.9764Y-2.8984
X3.9764Y-1.9173
X3.9811Y-3.5181
X3.9823Y-2.3071
X3.9866Y-3.465
X4.0079Y-2.3976
X4.0098Y-2.8012
X4.0098Y-3.315
X4.0098Y-3.439
X4.0374Y-2.0787
X4.0374Y-2.7402
X4.0374Y-4.1752
X4.0669Y-2.6614
X4.0689Y-2.4921
X4.0709Y-2.6122
X4.0719Y-3.9311
X4.0797Y-3.2717
X4.0803Y-2.9484
X4.1043Y-2.0453
X4.1053Y-3.4045
X4.1142Y-1.8327
X4.1146Y-2.9516
X4.1358Y-3.5689
X4.1378Y-3.8356
X4.1437Y-3.6693
X4.1465Y-2.7295
X4.1504Y-2.9516
X4.1516Y-2.5
X4.1524Y-2.6362
X4.1587Y-2.6839
X4.1634Y-3.0291
X4.1713Y-2.7488
X4.1839Y-3.0996
X4.1949Y-2.1083
X4.2077Y-2.751
X4.2126Y-3.0374
X4.2185Y-3.2736
X4.2209Y-2.9236
X4.2315Y-2.6362
X4.2362Y-3.062
X4.2608Y-2.4537
X4.2835Y-3.1476
X4.2953Y-3.7362
X4.2992Y-2.7992
X4.3012Y-3.1929
X4.3022Y-2.7323
X4.315Y-3.124
X4.3474Y-3.2648
X4.3476Y-3.5472
X4.348Y-3.3724
X4.3504Y-2.0787
X4.3559Y-2.4531
X4.363Y-2.928
X4.378Y-2.852
X4.4169Y-3.1713
X4.424Y-3.2417
X4.4252Y-2.938
X4.4508Y-2.8268
X4.4528Y-2.1083
X4.4539Y-4.2496
X4.4642Y-2.4551
X4.4843Y-1.8327
X4.4843Y-3.0994
X4.5043Y-2.6354
X4.5055Y-2.7346
X4.5071Y-2.9606
X4.5079Y-3.2638
X4.5106Y-2.8039
X4.5256Y-2.922
X4.5476Y-2.998
X4.5512Y-3.2736
X4.5827Y-3.0866
X4.5891Y-3.3735
X4.5906Y-1.9961
X4.5994Y-2.1801
X4.628Y-2.5
X4.6457Y-3.0886
X4.6476Y-2.5886
X4.6772Y-2.5906
X4.6969Y-3.1496
X4.7024Y-2.6378
X4.7323Y-2.8992
X4.7362Y-3.1043
X4.749Y-3.9872
X4.7669Y-3.7154
X4.7677Y-3.1535
X4.7687Y-3.4911
X4.7717Y-2.813
X4.7726Y-2.186
X4.7913Y-1.9961
X4.7943Y-3.2392
X4.7953Y-2.8484
X4.8209Y-3.7913
X4.8228Y-2.2283
X4.8474Y-2.561
X4.874Y-3.9281
X4.8799Y-2.5906
X4.8799Y-3.1909
X4.9087Y-2.7083
X4.938Y-3.6152
X4.9656Y-3.8317
X4.9705Y-2.6043
T2
X3.624Y-4.2973
X3.7972Y-4.2973
T3
X3.213Y-3.0791
X3.213Y-3.1791
X3.213Y-3.2791
X3.213Y-3.4217
X3.213Y-3.5217
X3.213Y-3.6217
X3.313Y-3.0791
X3.313Y-3.1791
X3.313Y-3.2791
X3.313Y-3.4217
X3.313Y-3.5217
X3.313Y-3.6217
X4.622Y-4.1602
X4.622Y-4.2602
X4.622Y-4.3602
X4.622Y-4.4602
X4.6362Y-1.8445
X4.722Y-4.1602
X4.722Y-4.2602
X4.722Y-4.3602
X4.722Y-4.4602
X4.7362Y-1.8445
X4.9449Y-2.7736
X4.9449Y-2.8736
X4.9449Y-2.9736
X4.9449Y-3.0736
X5.0472Y-2.1311
X5.0472Y-2.2311
X5.0472Y-2.3311
X5.0472Y-2.4311
X5.0472Y-2.5311
X5.0472Y-2.6311
X5.0472Y-2.7736
X5.0472Y-2.8736
X5.0472Y-2.9736
X5.0472Y-3.0736
X5.0472Y-3.2146
X5.0472Y-3.3146
X5.0472Y-3.4146
X5.0472Y-3.5146
X5.0472Y-3.6146
X5.0472Y-3.7146
X5.0472Y-3.8563
X5.0472Y-3.9563
X5.0472Y-4.0563
X5.0472Y-4.1563
T4
X4.1654Y-4.0138
X4.1654Y-4.25
X4.3504Y-4.1319
T5
X3.2992Y-1.9311
X3.2992Y-4.372
X4.9528Y-4.372
X4.9547Y-1.9232
T0
M30
