G04 #@! TF.FileFunction,Copper,L3,Inr,Signal*
%FSLAX46Y46*%
G04 Gerber Fmt 4.6, Leading zero omitted, Abs format (unit mm)*
G04 Created by KiCad (PCBNEW 4.0.7) date 02/18/18 10:01:47*
%MOMM*%
%LPD*%
G01*
G04 APERTURE LIST*
%ADD10C,0.100000*%
%ADD11R,1.700000X1.700000*%
%ADD12O,1.700000X1.700000*%
%ADD13C,2.600000*%
%ADD14C,0.909320*%
%ADD15C,6.400000*%
%ADD16C,0.600000*%
%ADD17C,0.200000*%
%ADD18C,0.500000*%
%ADD19C,0.560000*%
G04 APERTURE END LIST*
D10*
D11*
X81610000Y-86910000D03*
D12*
X84150000Y-86910000D03*
X81610000Y-89450000D03*
X84150000Y-89450000D03*
X81610000Y-91990000D03*
X84150000Y-91990000D03*
D13*
X105800000Y-101950000D03*
X105800000Y-107950000D03*
X110500000Y-104950000D03*
D14*
X92050280Y-109150260D03*
X96449560Y-109150260D03*
D11*
X128200000Y-66830000D03*
D12*
X128200000Y-64290000D03*
X128200000Y-61750000D03*
X128200000Y-59210000D03*
X128200000Y-56670000D03*
X128200000Y-54130000D03*
D11*
X128200000Y-70450000D03*
D12*
X128200000Y-72990000D03*
X128200000Y-75530000D03*
X128200000Y-78070000D03*
D11*
X81610000Y-78210000D03*
D12*
X84150000Y-78210000D03*
X81610000Y-80750000D03*
X84150000Y-80750000D03*
X81610000Y-83290000D03*
X84150000Y-83290000D03*
D11*
X117400000Y-105670000D03*
D12*
X119940000Y-105670000D03*
X117400000Y-108210000D03*
X119940000Y-108210000D03*
X117400000Y-110750000D03*
X119940000Y-110750000D03*
X117400000Y-113290000D03*
X119940000Y-113290000D03*
D11*
X120300000Y-46850000D03*
D12*
X117760000Y-46850000D03*
D11*
X128200000Y-81650000D03*
D12*
X128200000Y-84190000D03*
X128200000Y-86730000D03*
X128200000Y-89270000D03*
X128200000Y-91810000D03*
X128200000Y-94350000D03*
D11*
X125600000Y-70450000D03*
D12*
X125600000Y-72990000D03*
X125600000Y-75530000D03*
X125600000Y-78070000D03*
D11*
X128200000Y-97950000D03*
D12*
X128200000Y-100490000D03*
X128200000Y-103030000D03*
X128200000Y-105570000D03*
D15*
X125850000Y-48850000D03*
X125800000Y-111050000D03*
X83800000Y-49050000D03*
X83800000Y-111050000D03*
D16*
X107000000Y-77150000D03*
X93500000Y-94425000D03*
X93375000Y-104925000D03*
X114950000Y-74220000D03*
X110820000Y-74370000D03*
X93560000Y-80990000D03*
X93240000Y-78290000D03*
X107210000Y-74260000D03*
X114570000Y-71220000D03*
X114440000Y-69460000D03*
X113390000Y-62360000D03*
X110640000Y-62310000D03*
X107600000Y-77775000D03*
X98550000Y-60275000D03*
X125425000Y-91825000D03*
X116825000Y-55375000D03*
X93200000Y-61775000D03*
X89200000Y-102575000D03*
X120625000Y-101275000D03*
X81150000Y-103400000D03*
X82900000Y-98599998D03*
X116400000Y-78400000D03*
X88650001Y-61550000D03*
X95000000Y-56050000D03*
X85000000Y-102700000D03*
X116563916Y-85686084D03*
X94275000Y-94250000D03*
X94250000Y-104949998D03*
X105249992Y-93200000D03*
X101260000Y-88010000D03*
X102550000Y-106050000D03*
X97625000Y-99025000D03*
X89875000Y-97325000D03*
X85725000Y-95950000D03*
X97800000Y-98075000D03*
X91700000Y-58550000D03*
X101150000Y-58600000D03*
X100950000Y-64150000D03*
X101800000Y-60900000D03*
X94000000Y-60900000D03*
X93900000Y-56000000D03*
X91450000Y-63200000D03*
X99900000Y-53200000D03*
X99949994Y-64150000D03*
X100525000Y-55925000D03*
X96150000Y-55900000D03*
X100550000Y-62050000D03*
X96080000Y-81630000D03*
X96090000Y-73610000D03*
X103350000Y-63300000D03*
X103400000Y-66350000D03*
X126250000Y-66150000D03*
X124680000Y-68790000D03*
X94250000Y-68700000D03*
X99250000Y-62125000D03*
X99275000Y-54125000D03*
X94580000Y-74500000D03*
X94450000Y-70450000D03*
X92950000Y-73100000D03*
X103425000Y-99850000D03*
X103300000Y-67600000D03*
X95510000Y-72370000D03*
X95220000Y-69670000D03*
X111200000Y-72440000D03*
X121775000Y-82275000D03*
X94850000Y-85700000D03*
X121800000Y-72350000D03*
X90060000Y-71690000D03*
X120200000Y-73640000D03*
X101000000Y-73620000D03*
X100990000Y-71620000D03*
X113050000Y-71800000D03*
X90100000Y-88250000D03*
X120300000Y-78850000D03*
X121100000Y-80100000D03*
X91875000Y-69850000D03*
X121125000Y-88675000D03*
X121200000Y-71450000D03*
X91700000Y-89500000D03*
X105420000Y-74970000D03*
X105050000Y-90650000D03*
X109250000Y-81100000D03*
X96725000Y-80975000D03*
X118800000Y-65800000D03*
X123950000Y-65800000D03*
X123950000Y-81050000D03*
X96700000Y-75800000D03*
X96950000Y-73650000D03*
X97325000Y-79325000D03*
X118000000Y-78450000D03*
X118050000Y-65750000D03*
X109600000Y-79350000D03*
X98210000Y-79950000D03*
X119440000Y-67000000D03*
X98150000Y-77200000D03*
X108800000Y-79950000D03*
X119300000Y-80000000D03*
X94010000Y-72460000D03*
X80300000Y-72300000D03*
X122450000Y-96300000D03*
X122500000Y-56600000D03*
X98000000Y-56550000D03*
X97950000Y-62300006D03*
X97800000Y-64950000D03*
X123125000Y-65050000D03*
X123800000Y-99775000D03*
X105470000Y-66960000D03*
X105450000Y-63500000D03*
X117550000Y-63500000D03*
X103640000Y-74890000D03*
X103625000Y-83100000D03*
X107150000Y-83150000D03*
X115509990Y-76150000D03*
X98350000Y-76250000D03*
X115600000Y-83150000D03*
X114480000Y-75200000D03*
X100240000Y-73600000D03*
X110425000Y-82925000D03*
X100650000Y-75600000D03*
X114500000Y-82900000D03*
X106875000Y-69875000D03*
X113100000Y-53550000D03*
X106550000Y-53550000D03*
X102550000Y-69600000D03*
X102550000Y-52800000D03*
X110500000Y-52800000D03*
X105320000Y-69330000D03*
X104250000Y-51950000D03*
X105630000Y-68170000D03*
X126125000Y-97325000D03*
X105100000Y-97425000D03*
X99510000Y-82360000D03*
X112370000Y-82340000D03*
X99500000Y-75500000D03*
X100050000Y-80530000D03*
X112190000Y-80550000D03*
X99320000Y-73650000D03*
X94600000Y-91700000D03*
X100500000Y-92150000D03*
X110440000Y-85660000D03*
X113130000Y-107940000D03*
X121080000Y-94370000D03*
X110430000Y-90100000D03*
X106270000Y-78730000D03*
X100910000Y-83310000D03*
X114410000Y-66940000D03*
X107480000Y-66960000D03*
X105750000Y-76940000D03*
X121225000Y-55525000D03*
X90900000Y-69175000D03*
X95675000Y-65875000D03*
X113900000Y-78725000D03*
X91075000Y-65800000D03*
X112400000Y-74625000D03*
X108225000Y-62325000D03*
X109275000Y-69400000D03*
X100750000Y-78525000D03*
X91325000Y-93325000D03*
X96975000Y-88525000D03*
X93099998Y-87350000D03*
X101850000Y-87350000D03*
X93750000Y-76900000D03*
X99850000Y-83350000D03*
X89300000Y-74500000D03*
X95850000Y-105000000D03*
X86850000Y-103950000D03*
X95150000Y-98900000D03*
X116600000Y-50699996D03*
X121700000Y-50700000D03*
X92799988Y-56050000D03*
X98750000Y-104949998D03*
X109100000Y-94900000D03*
X89800000Y-104950000D03*
X104500000Y-46550006D03*
X113900000Y-46550000D03*
X89400000Y-48750000D03*
X101000002Y-48700000D03*
X101120000Y-89360000D03*
X98490000Y-73640000D03*
X101850000Y-71150000D03*
X101850000Y-84200000D03*
X104510000Y-74970000D03*
X104275000Y-86475000D03*
X105950000Y-69820000D03*
X109200000Y-71100000D03*
X89250000Y-54150000D03*
X90250000Y-63650000D03*
X87730000Y-59140000D03*
X91770000Y-66350000D03*
X88000000Y-66290000D03*
D17*
X109500014Y-78500014D02*
X109500014Y-73900000D01*
X93375000Y-104925000D02*
X93500000Y-104800000D01*
X93500000Y-104800000D02*
X93500000Y-94425000D01*
X94275000Y-94250000D02*
X94250000Y-94275000D01*
X94250000Y-94275000D02*
X94250000Y-104949998D01*
X101260000Y-88010000D02*
X102600000Y-89350000D01*
X102600000Y-89350000D02*
X102600000Y-106000000D01*
X102600000Y-106000000D02*
X102550000Y-106050000D01*
X101150000Y-58600000D02*
X101150000Y-63950000D01*
X101150000Y-63950000D02*
X100950000Y-64150000D01*
X93900000Y-56000000D02*
X93900000Y-60800000D01*
X93900000Y-60800000D02*
X94000000Y-60900000D01*
X99950000Y-64149994D02*
X99949994Y-64150000D01*
X99900000Y-53200000D02*
X99950000Y-53250000D01*
X99950000Y-53250000D02*
X99950000Y-64149994D01*
X100525000Y-55925000D02*
X100550000Y-55950000D01*
X100550000Y-55950000D02*
X100550000Y-62050000D01*
X96080000Y-81630000D02*
X95890000Y-81440000D01*
X95890000Y-81440000D02*
X95890000Y-73810000D01*
X95890000Y-73810000D02*
X96090000Y-73610000D01*
X126890000Y-59210000D02*
X126250000Y-59850000D01*
X126250000Y-59850000D02*
X126250000Y-66150000D01*
X128200000Y-59210000D02*
X126890000Y-59210000D01*
X124680000Y-68790000D02*
X124600000Y-68710000D01*
X124600000Y-68710000D02*
X124600000Y-60270000D01*
X124600000Y-60270000D02*
X128200000Y-56670000D01*
X99250000Y-62125000D02*
X99250000Y-54150000D01*
X99250000Y-54150000D02*
X99275000Y-54125000D01*
X94450000Y-70450000D02*
X94590000Y-70590000D01*
X94590000Y-70590000D02*
X94590000Y-74490000D01*
X94590000Y-74490000D02*
X94580000Y-74500000D01*
X103050000Y-74425000D02*
X103050000Y-99475000D01*
X103050000Y-99475000D02*
X103425000Y-99850000D01*
X103300000Y-74175000D02*
X103050000Y-74425000D01*
X103300000Y-67600000D02*
X103300000Y-74175000D01*
X95510000Y-72370000D02*
X95370000Y-72510000D01*
X95370000Y-72510000D02*
X95370000Y-85180000D01*
X95370000Y-85180000D02*
X94850000Y-85700000D01*
X95510000Y-72370000D02*
X95220000Y-72080000D01*
X95220000Y-72080000D02*
X95220000Y-69670000D01*
X121775000Y-82275000D02*
X121750000Y-82250000D01*
X121750000Y-82250000D02*
X121750000Y-72400000D01*
X121750000Y-72400000D02*
X121800000Y-72350000D01*
X90060000Y-71690000D02*
X90100000Y-71730000D01*
X90100000Y-71730000D02*
X90100000Y-88250000D01*
X120200000Y-73640000D02*
X120250000Y-73690000D01*
X120250000Y-73690000D02*
X120250000Y-78800000D01*
X120250000Y-78800000D02*
X120300000Y-78850000D01*
X101000000Y-73620000D02*
X101000000Y-71630000D01*
X101000000Y-71630000D02*
X100990000Y-71620000D01*
X82050000Y-89450000D02*
X81610000Y-89450000D01*
X121100000Y-80100000D02*
X121175000Y-80175000D01*
X121175000Y-80175000D02*
X121175000Y-88625000D01*
X121200000Y-80000000D02*
X121200000Y-71450000D01*
X121175000Y-88625000D02*
X121125000Y-88675000D01*
X121100000Y-80100000D02*
X121200000Y-80000000D01*
X91875000Y-69850000D02*
X91750000Y-69975000D01*
X91750000Y-69975000D02*
X91750000Y-89450000D01*
X91750000Y-89450000D02*
X91700000Y-89500000D01*
X105420000Y-74970000D02*
X105125000Y-75265000D01*
X105125000Y-75265000D02*
X105125000Y-90575000D01*
X105125000Y-90575000D02*
X105050000Y-90650000D01*
X96700000Y-80950000D02*
X96725000Y-80975000D01*
X96700000Y-75800000D02*
X96700000Y-80950000D01*
X123950000Y-65800000D02*
X123950000Y-81050000D01*
X96950000Y-73650000D02*
X97300000Y-74000000D01*
X97300000Y-74000000D02*
X97300000Y-79300000D01*
X97300000Y-79300000D02*
X97325000Y-79325000D01*
X118000000Y-78450000D02*
X118050000Y-78400000D01*
X118050000Y-78400000D02*
X118050000Y-65750000D01*
X98210000Y-79950000D02*
X98210000Y-77260000D01*
X98210000Y-77260000D02*
X98150000Y-77200000D01*
X119440000Y-67000000D02*
X119400000Y-67040000D01*
X119400000Y-67040000D02*
X119400000Y-79900000D01*
X119400000Y-79900000D02*
X119300000Y-80000000D01*
X80300000Y-72300000D02*
X80300000Y-81980000D01*
X80300000Y-81980000D02*
X81610000Y-83290000D01*
X122500000Y-56600000D02*
X122500000Y-96250000D01*
X122500000Y-96250000D02*
X122450000Y-96300000D01*
X98000000Y-56550000D02*
X97950000Y-56600000D01*
X97950000Y-56600000D02*
X97950000Y-62300006D01*
X123800000Y-99775000D02*
X123125000Y-99100000D01*
X123125000Y-99100000D02*
X123125000Y-65050000D01*
X105470000Y-66960000D02*
X105450000Y-66940000D01*
X105450000Y-66940000D02*
X105450000Y-63500000D01*
X103640000Y-74890000D02*
X103650000Y-74900000D01*
X103650000Y-74900000D02*
X103650000Y-83075000D01*
X103650000Y-83075000D02*
X103625000Y-83100000D01*
X115600000Y-83150000D02*
X115600000Y-76240010D01*
X115600000Y-76240010D02*
X115509990Y-76150000D01*
X114480000Y-75530000D02*
X114480000Y-75200000D01*
X114500000Y-75550000D02*
X114480000Y-75530000D01*
X114500000Y-82900000D02*
X114500000Y-75550000D01*
X100240000Y-73600000D02*
X100400000Y-73600000D01*
X106550000Y-69550000D02*
X106550000Y-53550000D01*
X106875000Y-69875000D02*
X106550000Y-69550000D01*
X102550000Y-69600000D02*
X102550000Y-52800000D01*
X105320000Y-69330000D02*
X104250000Y-68260000D01*
X104250000Y-68260000D02*
X104250000Y-51950000D01*
X126875000Y-96575000D02*
X126875000Y-74315000D01*
X126875000Y-74315000D02*
X128200000Y-72990000D01*
X126125000Y-97325000D02*
X126875000Y-96575000D01*
X99510000Y-82360000D02*
X99510000Y-81359999D01*
X99510000Y-81359999D02*
X99499991Y-81349990D01*
X99499991Y-81349990D02*
X99499991Y-75500009D01*
X99499991Y-75500009D02*
X99500000Y-75500000D01*
X100050001Y-74380001D02*
X99320000Y-73650000D01*
X100050000Y-80530000D02*
X100050001Y-80529999D01*
X100050001Y-80529999D02*
X100050001Y-74380001D01*
X100050001Y-80574999D02*
X100050000Y-80574998D01*
X100050000Y-80574998D02*
X100050000Y-80530000D01*
D18*
X102700000Y-107950000D02*
X100500000Y-105750000D01*
D19*
X100500000Y-105750000D02*
X100500000Y-92150000D01*
D18*
X105800000Y-107950000D02*
X102700000Y-107950000D01*
D17*
X101120000Y-89360000D02*
X98949990Y-87189990D01*
X98949990Y-87189990D02*
X98949990Y-74099990D01*
X98949990Y-74099990D02*
X98490000Y-73640000D01*
X101850000Y-71150000D02*
X101850000Y-84200000D01*
X104375000Y-75105000D02*
X104375000Y-86375000D01*
X104375000Y-86375000D02*
X104275000Y-86475000D01*
X104510000Y-74970000D02*
X104375000Y-75105000D01*
X105950000Y-69820000D02*
X106150000Y-70020000D01*
X106150000Y-70020000D02*
X106150000Y-70700000D01*
X106150000Y-70700000D02*
X106550000Y-71100000D01*
X106550000Y-71100000D02*
X109200000Y-71100000D01*
X90250000Y-63650000D02*
X90250000Y-55150000D01*
X90250000Y-55150000D02*
X89250000Y-54150000D01*
X88000000Y-59140000D02*
X87730000Y-59140000D01*
X88000000Y-59140000D02*
X88000000Y-66290000D01*
G36*
X123869999Y-45881114D02*
X122884575Y-46864821D01*
X122350609Y-48150753D01*
X122349394Y-49543139D01*
X122881114Y-50830001D01*
X123864821Y-51815425D01*
X125150753Y-52349391D01*
X126543139Y-52350606D01*
X127830001Y-51818886D01*
X128815425Y-50835179D01*
X129349391Y-49549247D01*
X129350606Y-48156861D01*
X128818886Y-46869999D01*
X127835179Y-45884575D01*
X126668194Y-45400000D01*
X129650000Y-45400000D01*
X129650000Y-65839748D01*
X129565438Y-65635596D01*
X129394405Y-65464563D01*
X129170939Y-65372000D01*
X128564387Y-65372000D01*
X128662616Y-65352461D01*
X129035703Y-65103173D01*
X129284991Y-64730086D01*
X129372530Y-64290000D01*
X129284991Y-63849914D01*
X129035703Y-63476827D01*
X128662616Y-63227539D01*
X128222530Y-63140000D01*
X128177470Y-63140000D01*
X127737384Y-63227539D01*
X127364297Y-63476827D01*
X127115009Y-63849914D01*
X127027470Y-64290000D01*
X127115009Y-64730086D01*
X127364297Y-65103173D01*
X127737384Y-65352461D01*
X127835613Y-65372000D01*
X127229061Y-65372000D01*
X127005595Y-65464563D01*
X126834562Y-65635596D01*
X126760517Y-65814358D01*
X126758952Y-65810571D01*
X126650000Y-65701428D01*
X126650000Y-61750000D01*
X127027470Y-61750000D01*
X127115009Y-62190086D01*
X127364297Y-62563173D01*
X127737384Y-62812461D01*
X128177470Y-62900000D01*
X128222530Y-62900000D01*
X128662616Y-62812461D01*
X129035703Y-62563173D01*
X129284991Y-62190086D01*
X129372530Y-61750000D01*
X129284991Y-61309914D01*
X129035703Y-60936827D01*
X128662616Y-60687539D01*
X128222530Y-60600000D01*
X128177470Y-60600000D01*
X127737384Y-60687539D01*
X127364297Y-60936827D01*
X127115009Y-61309914D01*
X127027470Y-61750000D01*
X126650000Y-61750000D01*
X126650000Y-60015686D01*
X127055685Y-59610000D01*
X127107035Y-59610000D01*
X127115009Y-59650086D01*
X127364297Y-60023173D01*
X127737384Y-60272461D01*
X128177470Y-60360000D01*
X128222530Y-60360000D01*
X128662616Y-60272461D01*
X129035703Y-60023173D01*
X129284991Y-59650086D01*
X129372530Y-59210000D01*
X129284991Y-58769914D01*
X129035703Y-58396827D01*
X128662616Y-58147539D01*
X128222530Y-58060000D01*
X128177470Y-58060000D01*
X127737384Y-58147539D01*
X127364297Y-58396827D01*
X127115009Y-58769914D01*
X127107035Y-58810000D01*
X126890005Y-58810000D01*
X126890000Y-58809999D01*
X126736926Y-58840448D01*
X126672042Y-58883802D01*
X126607157Y-58927157D01*
X126607155Y-58927160D01*
X125967157Y-59567157D01*
X125880448Y-59696926D01*
X125850000Y-59850000D01*
X125850000Y-65701513D01*
X125741641Y-65809683D01*
X125650104Y-66030129D01*
X125649896Y-66268824D01*
X125741048Y-66489429D01*
X125909683Y-66658359D01*
X126130129Y-66749896D01*
X126368824Y-66750104D01*
X126589429Y-66658952D01*
X126742000Y-66506647D01*
X126742000Y-66524000D01*
X126894000Y-66676000D01*
X128046000Y-66676000D01*
X128046000Y-66656000D01*
X128354000Y-66656000D01*
X128354000Y-66676000D01*
X128374000Y-66676000D01*
X128374000Y-66984000D01*
X128354000Y-66984000D01*
X128354000Y-68136000D01*
X128506000Y-68288000D01*
X129170939Y-68288000D01*
X129394405Y-68195437D01*
X129565438Y-68024404D01*
X129650000Y-67820252D01*
X129650000Y-77915998D01*
X129496890Y-77915998D01*
X129607903Y-77691090D01*
X129463477Y-77342384D01*
X129088854Y-76914259D01*
X128578911Y-76662085D01*
X128354002Y-76772143D01*
X128354002Y-76653848D01*
X128662616Y-76592461D01*
X129035703Y-76343173D01*
X129284991Y-75970086D01*
X129372530Y-75530000D01*
X129284991Y-75089914D01*
X129035703Y-74716827D01*
X128662616Y-74467539D01*
X128222530Y-74380000D01*
X128177470Y-74380000D01*
X127737384Y-74467539D01*
X127364297Y-74716827D01*
X127275000Y-74850470D01*
X127275000Y-74480686D01*
X127716907Y-74038779D01*
X127737384Y-74052461D01*
X128177470Y-74140000D01*
X128222530Y-74140000D01*
X128662616Y-74052461D01*
X129035703Y-73803173D01*
X129284991Y-73430086D01*
X129372530Y-72990000D01*
X129284991Y-72549914D01*
X129035703Y-72176827D01*
X128662616Y-71927539D01*
X128222530Y-71840000D01*
X128177470Y-71840000D01*
X127737384Y-71927539D01*
X127364297Y-72176827D01*
X127115009Y-72549914D01*
X127027470Y-72990000D01*
X127115009Y-73430086D01*
X127146740Y-73477574D01*
X126592157Y-74032157D01*
X126505448Y-74161926D01*
X126487320Y-74253064D01*
X126475000Y-74315000D01*
X126475000Y-74775639D01*
X126435703Y-74716827D01*
X126062616Y-74467539D01*
X125622530Y-74380000D01*
X125577470Y-74380000D01*
X125137384Y-74467539D01*
X124764297Y-74716827D01*
X124515009Y-75089914D01*
X124427470Y-75530000D01*
X124515009Y-75970086D01*
X124764297Y-76343173D01*
X125137384Y-76592461D01*
X125445998Y-76653848D01*
X125445998Y-76772143D01*
X125221089Y-76662085D01*
X124711146Y-76914259D01*
X124350000Y-77326982D01*
X124350000Y-72990000D01*
X124427470Y-72990000D01*
X124515009Y-73430086D01*
X124764297Y-73803173D01*
X125137384Y-74052461D01*
X125577470Y-74140000D01*
X125622530Y-74140000D01*
X126062616Y-74052461D01*
X126435703Y-73803173D01*
X126684991Y-73430086D01*
X126772530Y-72990000D01*
X126684991Y-72549914D01*
X126435703Y-72176827D01*
X126062616Y-71927539D01*
X125622530Y-71840000D01*
X125577470Y-71840000D01*
X125137384Y-71927539D01*
X124764297Y-72176827D01*
X124515009Y-72549914D01*
X124427470Y-72990000D01*
X124350000Y-72990000D01*
X124350000Y-69302643D01*
X124537258Y-69380399D01*
X124536721Y-69380745D01*
X124468222Y-69480997D01*
X124444123Y-69600000D01*
X124444123Y-71300000D01*
X124465042Y-71411173D01*
X124530745Y-71513279D01*
X124630997Y-71581778D01*
X124750000Y-71605877D01*
X126450000Y-71605877D01*
X126561173Y-71584958D01*
X126663279Y-71519255D01*
X126731778Y-71419003D01*
X126755877Y-71300000D01*
X126755877Y-69600000D01*
X127044123Y-69600000D01*
X127044123Y-71300000D01*
X127065042Y-71411173D01*
X127130745Y-71513279D01*
X127230997Y-71581778D01*
X127350000Y-71605877D01*
X129050000Y-71605877D01*
X129161173Y-71584958D01*
X129263279Y-71519255D01*
X129331778Y-71419003D01*
X129355877Y-71300000D01*
X129355877Y-69600000D01*
X129334958Y-69488827D01*
X129269255Y-69386721D01*
X129169003Y-69318222D01*
X129050000Y-69294123D01*
X127350000Y-69294123D01*
X127238827Y-69315042D01*
X127136721Y-69380745D01*
X127068222Y-69480997D01*
X127044123Y-69600000D01*
X126755877Y-69600000D01*
X126734958Y-69488827D01*
X126669255Y-69386721D01*
X126569003Y-69318222D01*
X126450000Y-69294123D01*
X125024266Y-69294123D01*
X125188359Y-69130317D01*
X125279896Y-68909871D01*
X125280104Y-68671176D01*
X125188952Y-68450571D01*
X125020317Y-68281641D01*
X125000000Y-68273205D01*
X125000000Y-67136000D01*
X126742000Y-67136000D01*
X126742000Y-67800938D01*
X126834562Y-68024404D01*
X127005595Y-68195437D01*
X127229061Y-68288000D01*
X127894000Y-68288000D01*
X128046000Y-68136000D01*
X128046000Y-66984000D01*
X126894000Y-66984000D01*
X126742000Y-67136000D01*
X125000000Y-67136000D01*
X125000000Y-60435686D01*
X127716907Y-57718779D01*
X127737384Y-57732461D01*
X128177470Y-57820000D01*
X128222530Y-57820000D01*
X128662616Y-57732461D01*
X129035703Y-57483173D01*
X129284991Y-57110086D01*
X129372530Y-56670000D01*
X129284991Y-56229914D01*
X129035703Y-55856827D01*
X128662616Y-55607539D01*
X128222530Y-55520000D01*
X128177470Y-55520000D01*
X127737384Y-55607539D01*
X127364297Y-55856827D01*
X127115009Y-56229914D01*
X127027470Y-56670000D01*
X127115009Y-57110086D01*
X127146740Y-57157574D01*
X124317157Y-59987157D01*
X124230448Y-60116926D01*
X124230448Y-60116927D01*
X124200000Y-60270000D01*
X124200000Y-65254138D01*
X124069871Y-65200104D01*
X123831176Y-65199896D01*
X123687835Y-65259123D01*
X123724896Y-65169871D01*
X123725104Y-64931176D01*
X123633952Y-64710571D01*
X123465317Y-64541641D01*
X123244871Y-64450104D01*
X123006176Y-64449896D01*
X122900000Y-64493767D01*
X122900000Y-57048487D01*
X123008359Y-56940317D01*
X123099896Y-56719871D01*
X123100104Y-56481176D01*
X123008952Y-56260571D01*
X122840317Y-56091641D01*
X122619871Y-56000104D01*
X122381176Y-55999896D01*
X122160571Y-56091048D01*
X121991641Y-56259683D01*
X121900104Y-56480129D01*
X121899896Y-56718824D01*
X121991048Y-56939429D01*
X122100000Y-57048572D01*
X122100000Y-71824900D01*
X121919871Y-71750104D01*
X121725127Y-71749934D01*
X121799896Y-71569871D01*
X121800104Y-71331176D01*
X121708952Y-71110571D01*
X121540317Y-70941641D01*
X121319871Y-70850104D01*
X121081176Y-70849896D01*
X120860571Y-70941048D01*
X120691641Y-71109683D01*
X120600104Y-71330129D01*
X120599896Y-71568824D01*
X120691048Y-71789429D01*
X120800000Y-71898572D01*
X120800000Y-73520924D01*
X120708952Y-73300571D01*
X120540317Y-73131641D01*
X120319871Y-73040104D01*
X120081176Y-73039896D01*
X119860571Y-73131048D01*
X119800000Y-73191513D01*
X119800000Y-67488417D01*
X119948359Y-67340317D01*
X120039896Y-67119871D01*
X120040104Y-66881176D01*
X119948952Y-66660571D01*
X119780317Y-66491641D01*
X119559871Y-66400104D01*
X119321176Y-66399896D01*
X119100571Y-66491048D01*
X118931641Y-66659683D01*
X118840104Y-66880129D01*
X118839896Y-67118824D01*
X118931048Y-67339429D01*
X119000000Y-67408502D01*
X119000000Y-79474756D01*
X118960571Y-79491048D01*
X118791641Y-79659683D01*
X118700104Y-79880129D01*
X118699896Y-80118824D01*
X118791048Y-80339429D01*
X118959683Y-80508359D01*
X119180129Y-80599896D01*
X119418824Y-80600104D01*
X119639429Y-80508952D01*
X119808359Y-80340317D01*
X119899896Y-80119871D01*
X119900104Y-79881176D01*
X119808952Y-79660571D01*
X119800000Y-79651603D01*
X119800000Y-79198397D01*
X119959683Y-79358359D01*
X120180129Y-79449896D01*
X120418824Y-79450104D01*
X120639429Y-79358952D01*
X120800000Y-79198661D01*
X120800000Y-79574756D01*
X120760571Y-79591048D01*
X120591641Y-79759683D01*
X120500104Y-79980129D01*
X120499896Y-80218824D01*
X120591048Y-80439429D01*
X120759683Y-80608359D01*
X120775000Y-80614719D01*
X120775000Y-88176601D01*
X120616641Y-88334683D01*
X120525104Y-88555129D01*
X120524896Y-88793824D01*
X120616048Y-89014429D01*
X120784683Y-89183359D01*
X121005129Y-89274896D01*
X121243824Y-89275104D01*
X121464429Y-89183952D01*
X121633359Y-89015317D01*
X121724896Y-88794871D01*
X121725104Y-88556176D01*
X121633952Y-88335571D01*
X121575000Y-88276516D01*
X121575000Y-82841624D01*
X121655129Y-82874896D01*
X121893824Y-82875104D01*
X122100000Y-82789914D01*
X122100000Y-95801601D01*
X121941641Y-95959683D01*
X121850104Y-96180129D01*
X121849896Y-96418824D01*
X121941048Y-96639429D01*
X122109683Y-96808359D01*
X122330129Y-96899896D01*
X122568824Y-96900104D01*
X122725000Y-96835573D01*
X122725000Y-99100000D01*
X122755448Y-99253074D01*
X122842157Y-99382843D01*
X123200029Y-99740715D01*
X123199896Y-99893824D01*
X123291048Y-100114429D01*
X123459683Y-100283359D01*
X123680129Y-100374896D01*
X123918824Y-100375104D01*
X124139429Y-100283952D01*
X124308359Y-100115317D01*
X124399896Y-99894871D01*
X124400104Y-99656176D01*
X124308952Y-99435571D01*
X124140317Y-99266641D01*
X123919871Y-99175104D01*
X123765656Y-99174970D01*
X123525000Y-98934314D01*
X123525000Y-81473528D01*
X123609683Y-81558359D01*
X123830129Y-81649896D01*
X124068824Y-81650104D01*
X124289429Y-81558952D01*
X124458359Y-81390317D01*
X124549896Y-81169871D01*
X124550104Y-80931176D01*
X124458952Y-80710571D01*
X124350000Y-80601428D01*
X124350000Y-78813018D01*
X124711146Y-79225741D01*
X125221089Y-79477915D01*
X125446000Y-79367856D01*
X125446000Y-78224000D01*
X125426000Y-78224000D01*
X125426000Y-77916000D01*
X125446000Y-77916000D01*
X125446000Y-77896000D01*
X125754000Y-77896000D01*
X125754000Y-77916000D01*
X125774000Y-77916000D01*
X125774000Y-78224000D01*
X125754000Y-78224000D01*
X125754000Y-79367856D01*
X125978911Y-79477915D01*
X126475000Y-79232592D01*
X126475000Y-96409314D01*
X126159285Y-96725029D01*
X126006176Y-96724896D01*
X125785571Y-96816048D01*
X125616641Y-96984683D01*
X125525104Y-97205129D01*
X125524896Y-97443824D01*
X125616048Y-97664429D01*
X125784683Y-97833359D01*
X126005129Y-97924896D01*
X126243824Y-97925104D01*
X126464429Y-97833952D01*
X126633359Y-97665317D01*
X126724896Y-97444871D01*
X126725030Y-97290656D01*
X126915686Y-97100000D01*
X127044123Y-97100000D01*
X127044123Y-98800000D01*
X127065042Y-98911173D01*
X127130745Y-99013279D01*
X127230997Y-99081778D01*
X127350000Y-99105877D01*
X129050000Y-99105877D01*
X129161173Y-99084958D01*
X129263279Y-99019255D01*
X129331778Y-98919003D01*
X129355877Y-98800000D01*
X129355877Y-97100000D01*
X129334958Y-96988827D01*
X129269255Y-96886721D01*
X129169003Y-96818222D01*
X129050000Y-96794123D01*
X127350000Y-96794123D01*
X127238827Y-96815042D01*
X127136721Y-96880745D01*
X127068222Y-96980997D01*
X127044123Y-97100000D01*
X126915686Y-97100000D01*
X127157843Y-96857843D01*
X127244552Y-96728074D01*
X127275000Y-96575000D01*
X127275000Y-95029530D01*
X127364297Y-95163173D01*
X127737384Y-95412461D01*
X128177470Y-95500000D01*
X128222530Y-95500000D01*
X128662616Y-95412461D01*
X129035703Y-95163173D01*
X129284991Y-94790086D01*
X129372530Y-94350000D01*
X129284991Y-93909914D01*
X129035703Y-93536827D01*
X128662616Y-93287539D01*
X128354002Y-93226152D01*
X128354002Y-93107857D01*
X128578911Y-93217915D01*
X129088854Y-92965741D01*
X129463477Y-92537616D01*
X129607903Y-92188910D01*
X129496890Y-91964002D01*
X129650000Y-91964002D01*
X129650000Y-102875998D01*
X129496890Y-102875998D01*
X129607903Y-102651090D01*
X129463477Y-102302384D01*
X129088854Y-101874259D01*
X128578911Y-101622085D01*
X128354002Y-101732143D01*
X128354002Y-101613848D01*
X128662616Y-101552461D01*
X129035703Y-101303173D01*
X129284991Y-100930086D01*
X129372530Y-100490000D01*
X129284991Y-100049914D01*
X129035703Y-99676827D01*
X128662616Y-99427539D01*
X128222530Y-99340000D01*
X128177470Y-99340000D01*
X127737384Y-99427539D01*
X127364297Y-99676827D01*
X127115009Y-100049914D01*
X127027470Y-100490000D01*
X127115009Y-100930086D01*
X127364297Y-101303173D01*
X127737384Y-101552461D01*
X128045998Y-101613848D01*
X128045998Y-101732143D01*
X127821089Y-101622085D01*
X127311146Y-101874259D01*
X126936523Y-102302384D01*
X126792097Y-102651090D01*
X126903111Y-102876000D01*
X128046000Y-102876000D01*
X128046000Y-102856000D01*
X128354000Y-102856000D01*
X128354000Y-102876000D01*
X128374000Y-102876000D01*
X128374000Y-103184000D01*
X128354000Y-103184000D01*
X128354000Y-103204000D01*
X128046000Y-103204000D01*
X128046000Y-103184000D01*
X126903111Y-103184000D01*
X126792097Y-103408910D01*
X126936523Y-103757616D01*
X127311146Y-104185741D01*
X127821089Y-104437915D01*
X128045998Y-104327857D01*
X128045998Y-104446152D01*
X127737384Y-104507539D01*
X127364297Y-104756827D01*
X127115009Y-105129914D01*
X127027470Y-105570000D01*
X127115009Y-106010086D01*
X127364297Y-106383173D01*
X127737384Y-106632461D01*
X128177470Y-106720000D01*
X128222530Y-106720000D01*
X128662616Y-106632461D01*
X129035703Y-106383173D01*
X129284991Y-106010086D01*
X129372530Y-105570000D01*
X129284991Y-105129914D01*
X129035703Y-104756827D01*
X128662616Y-104507539D01*
X128354002Y-104446152D01*
X128354002Y-104327857D01*
X128578911Y-104437915D01*
X129088854Y-104185741D01*
X129463477Y-103757616D01*
X129607903Y-103408910D01*
X129496890Y-103184002D01*
X129650000Y-103184002D01*
X129650000Y-114700000D01*
X80350000Y-114700000D01*
X80350000Y-111865615D01*
X80831114Y-113030001D01*
X81814821Y-114015425D01*
X83100753Y-114549391D01*
X84493139Y-114550606D01*
X85780001Y-114018886D01*
X86765425Y-113035179D01*
X87299391Y-111749247D01*
X87299932Y-111128910D01*
X115992097Y-111128910D01*
X116136523Y-111477616D01*
X116511146Y-111905741D01*
X117021089Y-112157915D01*
X117245998Y-112047857D01*
X117245998Y-112166152D01*
X116937384Y-112227539D01*
X116564297Y-112476827D01*
X116315009Y-112849914D01*
X116227470Y-113290000D01*
X116315009Y-113730086D01*
X116564297Y-114103173D01*
X116937384Y-114352461D01*
X117377470Y-114440000D01*
X117422530Y-114440000D01*
X117862616Y-114352461D01*
X118235703Y-114103173D01*
X118484991Y-113730086D01*
X118572530Y-113290000D01*
X118484991Y-112849914D01*
X118235703Y-112476827D01*
X117862616Y-112227539D01*
X117554002Y-112166152D01*
X117554002Y-112047857D01*
X117778911Y-112157915D01*
X118288854Y-111905741D01*
X118663477Y-111477616D01*
X118670000Y-111461867D01*
X118676523Y-111477616D01*
X119051146Y-111905741D01*
X119561089Y-112157915D01*
X119785998Y-112047857D01*
X119785998Y-112166152D01*
X119477384Y-112227539D01*
X119104297Y-112476827D01*
X118855009Y-112849914D01*
X118767470Y-113290000D01*
X118855009Y-113730086D01*
X119104297Y-114103173D01*
X119477384Y-114352461D01*
X119917470Y-114440000D01*
X119962530Y-114440000D01*
X120402616Y-114352461D01*
X120775703Y-114103173D01*
X121024991Y-113730086D01*
X121112530Y-113290000D01*
X121024991Y-112849914D01*
X120775703Y-112476827D01*
X120402616Y-112227539D01*
X120094002Y-112166152D01*
X120094002Y-112047857D01*
X120318911Y-112157915D01*
X120828854Y-111905741D01*
X120971135Y-111743139D01*
X122299394Y-111743139D01*
X122831114Y-113030001D01*
X123814821Y-114015425D01*
X125100753Y-114549391D01*
X126493139Y-114550606D01*
X127780001Y-114018886D01*
X128765425Y-113035179D01*
X129299391Y-111749247D01*
X129300606Y-110356861D01*
X128768886Y-109069999D01*
X127785179Y-108084575D01*
X126499247Y-107550609D01*
X125106861Y-107549394D01*
X123819999Y-108081114D01*
X122834575Y-109064821D01*
X122300609Y-110350753D01*
X122299394Y-111743139D01*
X120971135Y-111743139D01*
X121203477Y-111477616D01*
X121347903Y-111128910D01*
X121236889Y-110904000D01*
X120094000Y-110904000D01*
X120094000Y-110924000D01*
X119786000Y-110924000D01*
X119786000Y-110904000D01*
X117554000Y-110904000D01*
X117554000Y-110924000D01*
X117246000Y-110924000D01*
X117246000Y-110904000D01*
X116103111Y-110904000D01*
X115992097Y-111128910D01*
X87299932Y-111128910D01*
X87300593Y-110371090D01*
X115992097Y-110371090D01*
X116103111Y-110596000D01*
X117246000Y-110596000D01*
X117246000Y-110576000D01*
X117554000Y-110576000D01*
X117554000Y-110596000D01*
X119786000Y-110596000D01*
X119786000Y-110576000D01*
X120094000Y-110576000D01*
X120094000Y-110596000D01*
X121236889Y-110596000D01*
X121347903Y-110371090D01*
X121203477Y-110022384D01*
X120828854Y-109594259D01*
X120318911Y-109342085D01*
X120094002Y-109452143D01*
X120094002Y-109333848D01*
X120402616Y-109272461D01*
X120775703Y-109023173D01*
X121024991Y-108650086D01*
X121112530Y-108210000D01*
X121024991Y-107769914D01*
X120775703Y-107396827D01*
X120402616Y-107147539D01*
X119962530Y-107060000D01*
X119917470Y-107060000D01*
X119477384Y-107147539D01*
X119104297Y-107396827D01*
X118855009Y-107769914D01*
X118767470Y-108210000D01*
X118855009Y-108650086D01*
X119104297Y-109023173D01*
X119477384Y-109272461D01*
X119785998Y-109333848D01*
X119785998Y-109452143D01*
X119561089Y-109342085D01*
X119051146Y-109594259D01*
X118676523Y-110022384D01*
X118670000Y-110038133D01*
X118663477Y-110022384D01*
X118288854Y-109594259D01*
X117778911Y-109342085D01*
X117554002Y-109452143D01*
X117554002Y-109333848D01*
X117862616Y-109272461D01*
X118235703Y-109023173D01*
X118484991Y-108650086D01*
X118572530Y-108210000D01*
X118484991Y-107769914D01*
X118235703Y-107396827D01*
X117862616Y-107147539D01*
X117422530Y-107060000D01*
X117377470Y-107060000D01*
X116937384Y-107147539D01*
X116564297Y-107396827D01*
X116315009Y-107769914D01*
X116227470Y-108210000D01*
X116315009Y-108650086D01*
X116564297Y-109023173D01*
X116937384Y-109272461D01*
X117245998Y-109333848D01*
X117245998Y-109452143D01*
X117021089Y-109342085D01*
X116511146Y-109594259D01*
X116136523Y-110022384D01*
X115992097Y-110371090D01*
X87300593Y-110371090D01*
X87300606Y-110356861D01*
X86863802Y-109299713D01*
X91295489Y-109299713D01*
X91410137Y-109577182D01*
X91622241Y-109789657D01*
X91899510Y-109904789D01*
X92199733Y-109905051D01*
X92477202Y-109790403D01*
X92689677Y-109578299D01*
X92804809Y-109301030D01*
X92804810Y-109299713D01*
X95694769Y-109299713D01*
X95809417Y-109577182D01*
X96021521Y-109789657D01*
X96298790Y-109904789D01*
X96599013Y-109905051D01*
X96876482Y-109790403D01*
X97088957Y-109578299D01*
X97204089Y-109301030D01*
X97204351Y-109000807D01*
X97089703Y-108723338D01*
X96877599Y-108510863D01*
X96600330Y-108395731D01*
X96300107Y-108395469D01*
X96022638Y-108510117D01*
X95810163Y-108722221D01*
X95695031Y-108999490D01*
X95694769Y-109299713D01*
X92804810Y-109299713D01*
X92805071Y-109000807D01*
X92690423Y-108723338D01*
X92478319Y-108510863D01*
X92201050Y-108395731D01*
X91900827Y-108395469D01*
X91623358Y-108510117D01*
X91410883Y-108722221D01*
X91295751Y-108999490D01*
X91295489Y-109299713D01*
X86863802Y-109299713D01*
X86768886Y-109069999D01*
X85785179Y-108084575D01*
X84499247Y-107550609D01*
X83106861Y-107549394D01*
X81819999Y-108081114D01*
X80834575Y-109064821D01*
X80350000Y-110231806D01*
X80350000Y-105068824D01*
X89199896Y-105068824D01*
X89291048Y-105289429D01*
X89459683Y-105458359D01*
X89680129Y-105549896D01*
X89918824Y-105550104D01*
X90139429Y-105458952D01*
X90308359Y-105290317D01*
X90399896Y-105069871D01*
X90399918Y-105043824D01*
X92774896Y-105043824D01*
X92866048Y-105264429D01*
X93034683Y-105433359D01*
X93255129Y-105524896D01*
X93493824Y-105525104D01*
X93714429Y-105433952D01*
X93800024Y-105348506D01*
X93909683Y-105458357D01*
X94130129Y-105549894D01*
X94368824Y-105550102D01*
X94589429Y-105458950D01*
X94758359Y-105290315D01*
X94829568Y-105118824D01*
X95249896Y-105118824D01*
X95341048Y-105339429D01*
X95509683Y-105508359D01*
X95730129Y-105599896D01*
X95968824Y-105600104D01*
X96189429Y-105508952D01*
X96358359Y-105340317D01*
X96449896Y-105119871D01*
X96449940Y-105068822D01*
X98149896Y-105068822D01*
X98241048Y-105289427D01*
X98409683Y-105458357D01*
X98630129Y-105549894D01*
X98868824Y-105550102D01*
X99089429Y-105458950D01*
X99258359Y-105290315D01*
X99349896Y-105069869D01*
X99350104Y-104831174D01*
X99258952Y-104610569D01*
X99090317Y-104441639D01*
X98869871Y-104350102D01*
X98631176Y-104349894D01*
X98410571Y-104441046D01*
X98241641Y-104609681D01*
X98150104Y-104830127D01*
X98149896Y-105068822D01*
X96449940Y-105068822D01*
X96450104Y-104881176D01*
X96358952Y-104660571D01*
X96190317Y-104491641D01*
X95969871Y-104400104D01*
X95731176Y-104399896D01*
X95510571Y-104491048D01*
X95341641Y-104659683D01*
X95250104Y-104880129D01*
X95249896Y-105118824D01*
X94829568Y-105118824D01*
X94849896Y-105069869D01*
X94850104Y-104831174D01*
X94758952Y-104610569D01*
X94650000Y-104501426D01*
X94650000Y-99248397D01*
X94809683Y-99408359D01*
X95030129Y-99499896D01*
X95268824Y-99500104D01*
X95489429Y-99408952D01*
X95658359Y-99240317D01*
X95698426Y-99143824D01*
X97024896Y-99143824D01*
X97116048Y-99364429D01*
X97284683Y-99533359D01*
X97505129Y-99624896D01*
X97743824Y-99625104D01*
X97964429Y-99533952D01*
X98133359Y-99365317D01*
X98224896Y-99144871D01*
X98225104Y-98906176D01*
X98133952Y-98685571D01*
X98063733Y-98615229D01*
X98139429Y-98583952D01*
X98308359Y-98415317D01*
X98399896Y-98194871D01*
X98400104Y-97956176D01*
X98308952Y-97735571D01*
X98140317Y-97566641D01*
X97919871Y-97475104D01*
X97681176Y-97474896D01*
X97460571Y-97566048D01*
X97291641Y-97734683D01*
X97200104Y-97955129D01*
X97199896Y-98193824D01*
X97291048Y-98414429D01*
X97361267Y-98484771D01*
X97285571Y-98516048D01*
X97116641Y-98684683D01*
X97025104Y-98905129D01*
X97024896Y-99143824D01*
X95698426Y-99143824D01*
X95749896Y-99019871D01*
X95750104Y-98781176D01*
X95658952Y-98560571D01*
X95490317Y-98391641D01*
X95269871Y-98300104D01*
X95031176Y-98299896D01*
X94810571Y-98391048D01*
X94650000Y-98551339D01*
X94650000Y-94723443D01*
X94783359Y-94590317D01*
X94874896Y-94369871D01*
X94875104Y-94131176D01*
X94783952Y-93910571D01*
X94615317Y-93741641D01*
X94394871Y-93650104D01*
X94156176Y-93649896D01*
X93935571Y-93741048D01*
X93783362Y-93892991D01*
X93619871Y-93825104D01*
X93381176Y-93824896D01*
X93160571Y-93916048D01*
X92991641Y-94084683D01*
X92900104Y-94305129D01*
X92899896Y-94543824D01*
X92991048Y-94764429D01*
X93100000Y-94873572D01*
X93100000Y-104389427D01*
X93035571Y-104416048D01*
X92866641Y-104584683D01*
X92775104Y-104805129D01*
X92774896Y-105043824D01*
X90399918Y-105043824D01*
X90400104Y-104831176D01*
X90308952Y-104610571D01*
X90140317Y-104441641D01*
X89919871Y-104350104D01*
X89681176Y-104349896D01*
X89460571Y-104441048D01*
X89291641Y-104609683D01*
X89200104Y-104830129D01*
X89199896Y-105068824D01*
X80350000Y-105068824D01*
X80350000Y-104068824D01*
X86249896Y-104068824D01*
X86341048Y-104289429D01*
X86509683Y-104458359D01*
X86730129Y-104549896D01*
X86968824Y-104550104D01*
X87189429Y-104458952D01*
X87358359Y-104290317D01*
X87449896Y-104069871D01*
X87450104Y-103831176D01*
X87358952Y-103610571D01*
X87190317Y-103441641D01*
X86969871Y-103350104D01*
X86731176Y-103349896D01*
X86510571Y-103441048D01*
X86341641Y-103609683D01*
X86250104Y-103830129D01*
X86249896Y-104068824D01*
X80350000Y-104068824D01*
X80350000Y-97443824D01*
X89274896Y-97443824D01*
X89366048Y-97664429D01*
X89534683Y-97833359D01*
X89755129Y-97924896D01*
X89993824Y-97925104D01*
X90214429Y-97833952D01*
X90383359Y-97665317D01*
X90474896Y-97444871D01*
X90475104Y-97206176D01*
X90383952Y-96985571D01*
X90215317Y-96816641D01*
X89994871Y-96725104D01*
X89756176Y-96724896D01*
X89535571Y-96816048D01*
X89366641Y-96984683D01*
X89275104Y-97205129D01*
X89274896Y-97443824D01*
X80350000Y-97443824D01*
X80350000Y-96068824D01*
X85124896Y-96068824D01*
X85216048Y-96289429D01*
X85384683Y-96458359D01*
X85605129Y-96549896D01*
X85843824Y-96550104D01*
X86064429Y-96458952D01*
X86233359Y-96290317D01*
X86324896Y-96069871D01*
X86325104Y-95831176D01*
X86233952Y-95610571D01*
X86065317Y-95441641D01*
X85844871Y-95350104D01*
X85606176Y-95349896D01*
X85385571Y-95441048D01*
X85216641Y-95609683D01*
X85125104Y-95830129D01*
X85124896Y-96068824D01*
X80350000Y-96068824D01*
X80350000Y-93443824D01*
X90724896Y-93443824D01*
X90816048Y-93664429D01*
X90984683Y-93833359D01*
X91205129Y-93924896D01*
X91443824Y-93925104D01*
X91664429Y-93833952D01*
X91833359Y-93665317D01*
X91924896Y-93444871D01*
X91925104Y-93206176D01*
X91833952Y-92985571D01*
X91665317Y-92816641D01*
X91444871Y-92725104D01*
X91206176Y-92724896D01*
X90985571Y-92816048D01*
X90816641Y-92984683D01*
X90725104Y-93205129D01*
X90724896Y-93443824D01*
X80350000Y-93443824D01*
X80350000Y-91990000D01*
X80437470Y-91990000D01*
X80525009Y-92430086D01*
X80774297Y-92803173D01*
X81147384Y-93052461D01*
X81587470Y-93140000D01*
X81632530Y-93140000D01*
X82072616Y-93052461D01*
X82445703Y-92803173D01*
X82694991Y-92430086D01*
X82782530Y-91990000D01*
X82977470Y-91990000D01*
X83065009Y-92430086D01*
X83314297Y-92803173D01*
X83687384Y-93052461D01*
X84127470Y-93140000D01*
X84172530Y-93140000D01*
X84612616Y-93052461D01*
X84985703Y-92803173D01*
X85234991Y-92430086D01*
X85322530Y-91990000D01*
X85288481Y-91818824D01*
X93999896Y-91818824D01*
X94091048Y-92039429D01*
X94259683Y-92208359D01*
X94480129Y-92299896D01*
X94718824Y-92300104D01*
X94794527Y-92268824D01*
X99899896Y-92268824D01*
X99920000Y-92317479D01*
X99920000Y-105750000D01*
X99964150Y-105971956D01*
X100089878Y-106160122D01*
X100217735Y-106245553D01*
X102311091Y-108338909D01*
X102489524Y-108458134D01*
X102700000Y-108500000D01*
X104296053Y-108500000D01*
X104442795Y-108855143D01*
X104892489Y-109305623D01*
X105480344Y-109549722D01*
X106116863Y-109550277D01*
X106705143Y-109307205D01*
X107155623Y-108857511D01*
X107399722Y-108269656D01*
X107399905Y-108058824D01*
X112529896Y-108058824D01*
X112621048Y-108279429D01*
X112789683Y-108448359D01*
X113010129Y-108539896D01*
X113248824Y-108540104D01*
X113469429Y-108448952D01*
X113638359Y-108280317D01*
X113729896Y-108059871D01*
X113730104Y-107821176D01*
X113638952Y-107600571D01*
X113470317Y-107431641D01*
X113249871Y-107340104D01*
X113011176Y-107339896D01*
X112790571Y-107431048D01*
X112621641Y-107599683D01*
X112530104Y-107820129D01*
X112529896Y-108058824D01*
X107399905Y-108058824D01*
X107400277Y-107633137D01*
X107157205Y-107044857D01*
X106707511Y-106594377D01*
X106119656Y-106350278D01*
X105483137Y-106349723D01*
X104894857Y-106592795D01*
X104444377Y-107042489D01*
X104295925Y-107400000D01*
X102927818Y-107400000D01*
X101080000Y-105552182D01*
X101080000Y-92317786D01*
X101099896Y-92269871D01*
X101100104Y-92031176D01*
X101008952Y-91810571D01*
X100840317Y-91641641D01*
X100619871Y-91550104D01*
X100381176Y-91549896D01*
X100160571Y-91641048D01*
X99991641Y-91809683D01*
X99900104Y-92030129D01*
X99899896Y-92268824D01*
X94794527Y-92268824D01*
X94939429Y-92208952D01*
X95108359Y-92040317D01*
X95199896Y-91819871D01*
X95200104Y-91581176D01*
X95108952Y-91360571D01*
X94940317Y-91191641D01*
X94719871Y-91100104D01*
X94481176Y-91099896D01*
X94260571Y-91191048D01*
X94091641Y-91359683D01*
X94000104Y-91580129D01*
X93999896Y-91818824D01*
X85288481Y-91818824D01*
X85234991Y-91549914D01*
X84985703Y-91176827D01*
X84612616Y-90927539D01*
X84172530Y-90840000D01*
X84127470Y-90840000D01*
X83687384Y-90927539D01*
X83314297Y-91176827D01*
X83065009Y-91549914D01*
X82977470Y-91990000D01*
X82782530Y-91990000D01*
X82694991Y-91549914D01*
X82445703Y-91176827D01*
X82072616Y-90927539D01*
X81632530Y-90840000D01*
X81587470Y-90840000D01*
X81147384Y-90927539D01*
X80774297Y-91176827D01*
X80525009Y-91549914D01*
X80437470Y-91990000D01*
X80350000Y-91990000D01*
X80350000Y-89450000D01*
X80437470Y-89450000D01*
X80525009Y-89890086D01*
X80774297Y-90263173D01*
X81147384Y-90512461D01*
X81587470Y-90600000D01*
X81632530Y-90600000D01*
X82072616Y-90512461D01*
X82445703Y-90263173D01*
X82694991Y-89890086D01*
X82782530Y-89450000D01*
X82694991Y-89009914D01*
X82445703Y-88636827D01*
X82072616Y-88387539D01*
X81632530Y-88300000D01*
X81587470Y-88300000D01*
X81147384Y-88387539D01*
X80774297Y-88636827D01*
X80525009Y-89009914D01*
X80437470Y-89450000D01*
X80350000Y-89450000D01*
X80350000Y-86060000D01*
X80454123Y-86060000D01*
X80454123Y-87760000D01*
X80475042Y-87871173D01*
X80540745Y-87973279D01*
X80640997Y-88041778D01*
X80760000Y-88065877D01*
X82460000Y-88065877D01*
X82571173Y-88044958D01*
X82673279Y-87979255D01*
X82741778Y-87879003D01*
X82765877Y-87760000D01*
X82765877Y-87346325D01*
X82886523Y-87637616D01*
X83261146Y-88065741D01*
X83771089Y-88317915D01*
X83995998Y-88207857D01*
X83995998Y-88326152D01*
X83687384Y-88387539D01*
X83314297Y-88636827D01*
X83065009Y-89009914D01*
X82977470Y-89450000D01*
X83065009Y-89890086D01*
X83314297Y-90263173D01*
X83687384Y-90512461D01*
X84127470Y-90600000D01*
X84172530Y-90600000D01*
X84612616Y-90512461D01*
X84985703Y-90263173D01*
X85234991Y-89890086D01*
X85322530Y-89450000D01*
X85234991Y-89009914D01*
X84985703Y-88636827D01*
X84612616Y-88387539D01*
X84304002Y-88326152D01*
X84304002Y-88207857D01*
X84528911Y-88317915D01*
X85038854Y-88065741D01*
X85413477Y-87637616D01*
X85557903Y-87288910D01*
X85446889Y-87064000D01*
X84304000Y-87064000D01*
X84304000Y-87084000D01*
X83996000Y-87084000D01*
X83996000Y-87064000D01*
X83976000Y-87064000D01*
X83976000Y-86756000D01*
X83996000Y-86756000D01*
X83996000Y-85612144D01*
X84304000Y-85612144D01*
X84304000Y-86756000D01*
X85446889Y-86756000D01*
X85557903Y-86531090D01*
X85413477Y-86182384D01*
X85038854Y-85754259D01*
X84528911Y-85502085D01*
X84304000Y-85612144D01*
X83996000Y-85612144D01*
X83771089Y-85502085D01*
X83261146Y-85754259D01*
X82886523Y-86182384D01*
X82765877Y-86473675D01*
X82765877Y-86060000D01*
X82744958Y-85948827D01*
X82679255Y-85846721D01*
X82579003Y-85778222D01*
X82460000Y-85754123D01*
X80760000Y-85754123D01*
X80648827Y-85775042D01*
X80546721Y-85840745D01*
X80478222Y-85940997D01*
X80454123Y-86060000D01*
X80350000Y-86060000D01*
X80350000Y-82595686D01*
X80556740Y-82802426D01*
X80525009Y-82849914D01*
X80437470Y-83290000D01*
X80525009Y-83730086D01*
X80774297Y-84103173D01*
X81147384Y-84352461D01*
X81587470Y-84440000D01*
X81632530Y-84440000D01*
X82072616Y-84352461D01*
X82445703Y-84103173D01*
X82694991Y-83730086D01*
X82782530Y-83290000D01*
X82977470Y-83290000D01*
X83065009Y-83730086D01*
X83314297Y-84103173D01*
X83687384Y-84352461D01*
X84127470Y-84440000D01*
X84172530Y-84440000D01*
X84612616Y-84352461D01*
X84985703Y-84103173D01*
X85234991Y-83730086D01*
X85322530Y-83290000D01*
X85234991Y-82849914D01*
X84985703Y-82476827D01*
X84612616Y-82227539D01*
X84172530Y-82140000D01*
X84127470Y-82140000D01*
X83687384Y-82227539D01*
X83314297Y-82476827D01*
X83065009Y-82849914D01*
X82977470Y-83290000D01*
X82782530Y-83290000D01*
X82694991Y-82849914D01*
X82445703Y-82476827D01*
X82072616Y-82227539D01*
X81632530Y-82140000D01*
X81587470Y-82140000D01*
X81147384Y-82227539D01*
X81126907Y-82241221D01*
X80700000Y-81814314D01*
X80700000Y-81451979D01*
X80774297Y-81563173D01*
X81147384Y-81812461D01*
X81587470Y-81900000D01*
X81632530Y-81900000D01*
X82072616Y-81812461D01*
X82445703Y-81563173D01*
X82694991Y-81190086D01*
X82782530Y-80750000D01*
X82694991Y-80309914D01*
X82445703Y-79936827D01*
X82072616Y-79687539D01*
X81632530Y-79600000D01*
X81587470Y-79600000D01*
X81147384Y-79687539D01*
X80774297Y-79936827D01*
X80700000Y-80048021D01*
X80700000Y-79353727D01*
X80760000Y-79365877D01*
X82460000Y-79365877D01*
X82571173Y-79344958D01*
X82673279Y-79279255D01*
X82741778Y-79179003D01*
X82765877Y-79060000D01*
X82765877Y-78646325D01*
X82886523Y-78937616D01*
X83261146Y-79365741D01*
X83771089Y-79617915D01*
X83995998Y-79507857D01*
X83995998Y-79626152D01*
X83687384Y-79687539D01*
X83314297Y-79936827D01*
X83065009Y-80309914D01*
X82977470Y-80750000D01*
X83065009Y-81190086D01*
X83314297Y-81563173D01*
X83687384Y-81812461D01*
X84127470Y-81900000D01*
X84172530Y-81900000D01*
X84612616Y-81812461D01*
X84985703Y-81563173D01*
X85234991Y-81190086D01*
X85322530Y-80750000D01*
X85234991Y-80309914D01*
X84985703Y-79936827D01*
X84612616Y-79687539D01*
X84304002Y-79626152D01*
X84304002Y-79507857D01*
X84528911Y-79617915D01*
X85038854Y-79365741D01*
X85413477Y-78937616D01*
X85557903Y-78588910D01*
X85446889Y-78364000D01*
X84304000Y-78364000D01*
X84304000Y-78384000D01*
X83996000Y-78384000D01*
X83996000Y-78364000D01*
X83976000Y-78364000D01*
X83976000Y-78056000D01*
X83996000Y-78056000D01*
X83996000Y-76912144D01*
X84304000Y-76912144D01*
X84304000Y-78056000D01*
X85446889Y-78056000D01*
X85557903Y-77831090D01*
X85413477Y-77482384D01*
X85038854Y-77054259D01*
X84528911Y-76802085D01*
X84304000Y-76912144D01*
X83996000Y-76912144D01*
X83771089Y-76802085D01*
X83261146Y-77054259D01*
X82886523Y-77482384D01*
X82765877Y-77773675D01*
X82765877Y-77360000D01*
X82744958Y-77248827D01*
X82679255Y-77146721D01*
X82579003Y-77078222D01*
X82460000Y-77054123D01*
X80760000Y-77054123D01*
X80700000Y-77065413D01*
X80700000Y-74618824D01*
X88699896Y-74618824D01*
X88791048Y-74839429D01*
X88959683Y-75008359D01*
X89180129Y-75099896D01*
X89418824Y-75100104D01*
X89639429Y-75008952D01*
X89700000Y-74948487D01*
X89700000Y-87801513D01*
X89591641Y-87909683D01*
X89500104Y-88130129D01*
X89499896Y-88368824D01*
X89591048Y-88589429D01*
X89759683Y-88758359D01*
X89980129Y-88849896D01*
X90218824Y-88850104D01*
X90439429Y-88758952D01*
X90608359Y-88590317D01*
X90699896Y-88369871D01*
X90700104Y-88131176D01*
X90608952Y-87910571D01*
X90500000Y-87801428D01*
X90500000Y-72098557D01*
X90568359Y-72030317D01*
X90659896Y-71809871D01*
X90660104Y-71571176D01*
X90568952Y-71350571D01*
X90400317Y-71181641D01*
X90179871Y-71090104D01*
X89941176Y-71089896D01*
X89720571Y-71181048D01*
X89551641Y-71349683D01*
X89460104Y-71570129D01*
X89459896Y-71808824D01*
X89551048Y-72029429D01*
X89700000Y-72178642D01*
X89700000Y-74051428D01*
X89640317Y-73991641D01*
X89419871Y-73900104D01*
X89181176Y-73899896D01*
X88960571Y-73991048D01*
X88791641Y-74159683D01*
X88700104Y-74380129D01*
X88699896Y-74618824D01*
X80700000Y-74618824D01*
X80700000Y-72748487D01*
X80808359Y-72640317D01*
X80899896Y-72419871D01*
X80900104Y-72181176D01*
X80808952Y-71960571D01*
X80640317Y-71791641D01*
X80419871Y-71700104D01*
X80350000Y-71700043D01*
X80350000Y-69293824D01*
X90299896Y-69293824D01*
X90391048Y-69514429D01*
X90559683Y-69683359D01*
X90780129Y-69774896D01*
X91018824Y-69775104D01*
X91239429Y-69683952D01*
X91333110Y-69590434D01*
X91275104Y-69730129D01*
X91274896Y-69968824D01*
X91350000Y-70150590D01*
X91350000Y-89001601D01*
X91191641Y-89159683D01*
X91100104Y-89380129D01*
X91099896Y-89618824D01*
X91191048Y-89839429D01*
X91359683Y-90008359D01*
X91580129Y-90099896D01*
X91818824Y-90100104D01*
X92039429Y-90008952D01*
X92208359Y-89840317D01*
X92299896Y-89619871D01*
X92300104Y-89381176D01*
X92208952Y-89160571D01*
X92150000Y-89101516D01*
X92150000Y-88643824D01*
X96374896Y-88643824D01*
X96466048Y-88864429D01*
X96634683Y-89033359D01*
X96855129Y-89124896D01*
X97093824Y-89125104D01*
X97314429Y-89033952D01*
X97483359Y-88865317D01*
X97574896Y-88644871D01*
X97575104Y-88406176D01*
X97483952Y-88185571D01*
X97315317Y-88016641D01*
X97094871Y-87925104D01*
X96856176Y-87924896D01*
X96635571Y-88016048D01*
X96466641Y-88184683D01*
X96375104Y-88405129D01*
X96374896Y-88643824D01*
X92150000Y-88643824D01*
X92150000Y-87468824D01*
X92499894Y-87468824D01*
X92591046Y-87689429D01*
X92759681Y-87858359D01*
X92980127Y-87949896D01*
X93218822Y-87950104D01*
X93439427Y-87858952D01*
X93608357Y-87690317D01*
X93699894Y-87469871D01*
X93700102Y-87231176D01*
X93608950Y-87010571D01*
X93440315Y-86841641D01*
X93219869Y-86750104D01*
X92981174Y-86749896D01*
X92760569Y-86841048D01*
X92591639Y-87009683D01*
X92500102Y-87230129D01*
X92499894Y-87468824D01*
X92150000Y-87468824D01*
X92150000Y-77018824D01*
X93149896Y-77018824D01*
X93241048Y-77239429D01*
X93409683Y-77408359D01*
X93630129Y-77499896D01*
X93868824Y-77500104D01*
X94089429Y-77408952D01*
X94258359Y-77240317D01*
X94349896Y-77019871D01*
X94350104Y-76781176D01*
X94258952Y-76560571D01*
X94090317Y-76391641D01*
X93869871Y-76300104D01*
X93631176Y-76299896D01*
X93410571Y-76391048D01*
X93241641Y-76559683D01*
X93150104Y-76780129D01*
X93149896Y-77018824D01*
X92150000Y-77018824D01*
X92150000Y-73218824D01*
X92349896Y-73218824D01*
X92441048Y-73439429D01*
X92609683Y-73608359D01*
X92830129Y-73699896D01*
X93068824Y-73700104D01*
X93289429Y-73608952D01*
X93458359Y-73440317D01*
X93549896Y-73219871D01*
X93550104Y-72981176D01*
X93458952Y-72760571D01*
X93290317Y-72591641D01*
X93259451Y-72578824D01*
X93409896Y-72578824D01*
X93501048Y-72799429D01*
X93669683Y-72968359D01*
X93890129Y-73059896D01*
X94128824Y-73060104D01*
X94190000Y-73034827D01*
X94190000Y-74041531D01*
X94071641Y-74159683D01*
X93980104Y-74380129D01*
X93979896Y-74618824D01*
X94071048Y-74839429D01*
X94239683Y-75008359D01*
X94460129Y-75099896D01*
X94698824Y-75100104D01*
X94919429Y-75008952D01*
X94970000Y-74958469D01*
X94970000Y-85014314D01*
X94884285Y-85100029D01*
X94731176Y-85099896D01*
X94510571Y-85191048D01*
X94341641Y-85359683D01*
X94250104Y-85580129D01*
X94249896Y-85818824D01*
X94341048Y-86039429D01*
X94509683Y-86208359D01*
X94730129Y-86299896D01*
X94968824Y-86300104D01*
X95189429Y-86208952D01*
X95358359Y-86040317D01*
X95449896Y-85819871D01*
X95450030Y-85665656D01*
X95652843Y-85462843D01*
X95739552Y-85333074D01*
X95770000Y-85180000D01*
X95770000Y-82150948D01*
X95960129Y-82229896D01*
X96198824Y-82230104D01*
X96419429Y-82138952D01*
X96588359Y-81970317D01*
X96679896Y-81749871D01*
X96680048Y-81574961D01*
X96843824Y-81575104D01*
X97064429Y-81483952D01*
X97233359Y-81315317D01*
X97324896Y-81094871D01*
X97325104Y-80856176D01*
X97233952Y-80635571D01*
X97100000Y-80501385D01*
X97100000Y-79881243D01*
X97205129Y-79924896D01*
X97443824Y-79925104D01*
X97610081Y-79856408D01*
X97609896Y-80068824D01*
X97701048Y-80289429D01*
X97869683Y-80458359D01*
X98090129Y-80549896D01*
X98328824Y-80550104D01*
X98549429Y-80458952D01*
X98549990Y-80458392D01*
X98549990Y-87189990D01*
X98580438Y-87343064D01*
X98667147Y-87472833D01*
X100520029Y-89325715D01*
X100519896Y-89478824D01*
X100611048Y-89699429D01*
X100779683Y-89868359D01*
X101000129Y-89959896D01*
X101238824Y-89960104D01*
X101459429Y-89868952D01*
X101628359Y-89700317D01*
X101719896Y-89479871D01*
X101720104Y-89241176D01*
X101628952Y-89020571D01*
X101460317Y-88851641D01*
X101239871Y-88760104D01*
X101085655Y-88759970D01*
X99349990Y-87024304D01*
X99349990Y-83698387D01*
X99509683Y-83858359D01*
X99730129Y-83949896D01*
X99968824Y-83950104D01*
X100189429Y-83858952D01*
X100358359Y-83690317D01*
X100388224Y-83618393D01*
X100401048Y-83649429D01*
X100569683Y-83818359D01*
X100790129Y-83909896D01*
X101028824Y-83910104D01*
X101249429Y-83818952D01*
X101418359Y-83650317D01*
X101450000Y-83574117D01*
X101450000Y-83751513D01*
X101341641Y-83859683D01*
X101250104Y-84080129D01*
X101249896Y-84318824D01*
X101341048Y-84539429D01*
X101509683Y-84708359D01*
X101730129Y-84799896D01*
X101968824Y-84800104D01*
X102189429Y-84708952D01*
X102358359Y-84540317D01*
X102449896Y-84319871D01*
X102450104Y-84081176D01*
X102358952Y-83860571D01*
X102250000Y-83751428D01*
X102250000Y-71598487D01*
X102358359Y-71490317D01*
X102449896Y-71269871D01*
X102450104Y-71031176D01*
X102358952Y-70810571D01*
X102190317Y-70641641D01*
X101969871Y-70550104D01*
X101731176Y-70549896D01*
X101510571Y-70641048D01*
X101341641Y-70809683D01*
X101250104Y-71030129D01*
X101250062Y-71078316D01*
X101109871Y-71020104D01*
X100871176Y-71019896D01*
X100650571Y-71111048D01*
X100481641Y-71279683D01*
X100390104Y-71500129D01*
X100389896Y-71738824D01*
X100481048Y-71959429D01*
X100600000Y-72078589D01*
X100600000Y-73111358D01*
X100580317Y-73091641D01*
X100359871Y-73000104D01*
X100121176Y-72999896D01*
X99900571Y-73091048D01*
X99754938Y-73236427D01*
X99660317Y-73141641D01*
X99439871Y-73050104D01*
X99201176Y-73049896D01*
X98980571Y-73141048D01*
X98910016Y-73211480D01*
X98830317Y-73131641D01*
X98609871Y-73040104D01*
X98371176Y-73039896D01*
X98150571Y-73131048D01*
X97981641Y-73299683D01*
X97890104Y-73520129D01*
X97889896Y-73758824D01*
X97981048Y-73979429D01*
X98149683Y-74148359D01*
X98370129Y-74239896D01*
X98524344Y-74240030D01*
X98549990Y-74265676D01*
X98549990Y-75683372D01*
X98469871Y-75650104D01*
X98231176Y-75649896D01*
X98010571Y-75741048D01*
X97841641Y-75909683D01*
X97750104Y-76130129D01*
X97749896Y-76368824D01*
X97841048Y-76589429D01*
X97903967Y-76652458D01*
X97810571Y-76691048D01*
X97700000Y-76801426D01*
X97700000Y-74000005D01*
X97700001Y-74000000D01*
X97669552Y-73846926D01*
X97582843Y-73717157D01*
X97549971Y-73684285D01*
X97550104Y-73531176D01*
X97458952Y-73310571D01*
X97290317Y-73141641D01*
X97069871Y-73050104D01*
X96831176Y-73049896D01*
X96610571Y-73141048D01*
X96539990Y-73211506D01*
X96430317Y-73101641D01*
X96209871Y-73010104D01*
X95971176Y-73009896D01*
X95770000Y-73093020D01*
X95770000Y-72911771D01*
X95849429Y-72878952D01*
X96018359Y-72710317D01*
X96109896Y-72489871D01*
X96110104Y-72251176D01*
X96018952Y-72030571D01*
X95850317Y-71861641D01*
X95629871Y-71770104D01*
X95620000Y-71770095D01*
X95620000Y-70118487D01*
X95728359Y-70010317D01*
X95819896Y-69789871D01*
X95820104Y-69551176D01*
X95728952Y-69330571D01*
X95560317Y-69161641D01*
X95339871Y-69070104D01*
X95101176Y-69069896D01*
X94880571Y-69161048D01*
X94711641Y-69329683D01*
X94620104Y-69550129D01*
X94619896Y-69788824D01*
X94660821Y-69887870D01*
X94569871Y-69850104D01*
X94331176Y-69849896D01*
X94110571Y-69941048D01*
X93941641Y-70109683D01*
X93850104Y-70330129D01*
X93849896Y-70568824D01*
X93941048Y-70789429D01*
X94109683Y-70958359D01*
X94190000Y-70991709D01*
X94190000Y-71885072D01*
X94129871Y-71860104D01*
X93891176Y-71859896D01*
X93670571Y-71951048D01*
X93501641Y-72119683D01*
X93410104Y-72340129D01*
X93409896Y-72578824D01*
X93259451Y-72578824D01*
X93069871Y-72500104D01*
X92831176Y-72499896D01*
X92610571Y-72591048D01*
X92441641Y-72759683D01*
X92350104Y-72980129D01*
X92349896Y-73218824D01*
X92150000Y-73218824D01*
X92150000Y-70385573D01*
X92214429Y-70358952D01*
X92383359Y-70190317D01*
X92474896Y-69969871D01*
X92475104Y-69731176D01*
X92383952Y-69510571D01*
X92215317Y-69341641D01*
X91994871Y-69250104D01*
X91756176Y-69249896D01*
X91535571Y-69341048D01*
X91441890Y-69434566D01*
X91499896Y-69294871D01*
X91500104Y-69056176D01*
X91408952Y-68835571D01*
X91392235Y-68818824D01*
X93649896Y-68818824D01*
X93741048Y-69039429D01*
X93909683Y-69208359D01*
X94130129Y-69299896D01*
X94368824Y-69300104D01*
X94589429Y-69208952D01*
X94758359Y-69040317D01*
X94849896Y-68819871D01*
X94850104Y-68581176D01*
X94758952Y-68360571D01*
X94590317Y-68191641D01*
X94369871Y-68100104D01*
X94131176Y-68099896D01*
X93910571Y-68191048D01*
X93741641Y-68359683D01*
X93650104Y-68580129D01*
X93649896Y-68818824D01*
X91392235Y-68818824D01*
X91240317Y-68666641D01*
X91019871Y-68575104D01*
X90781176Y-68574896D01*
X90560571Y-68666048D01*
X90391641Y-68834683D01*
X90300104Y-69055129D01*
X90299896Y-69293824D01*
X80350000Y-69293824D01*
X80350000Y-59258824D01*
X87129896Y-59258824D01*
X87221048Y-59479429D01*
X87389683Y-59648359D01*
X87600000Y-59735690D01*
X87600000Y-65841513D01*
X87491641Y-65949683D01*
X87400104Y-66170129D01*
X87399896Y-66408824D01*
X87491048Y-66629429D01*
X87659683Y-66798359D01*
X87880129Y-66889896D01*
X88118824Y-66890104D01*
X88339429Y-66798952D01*
X88508359Y-66630317D01*
X88599896Y-66409871D01*
X88600104Y-66171176D01*
X88508952Y-65950571D01*
X88477261Y-65918824D01*
X90474896Y-65918824D01*
X90566048Y-66139429D01*
X90734683Y-66308359D01*
X90955129Y-66399896D01*
X91169956Y-66400083D01*
X91169896Y-66468824D01*
X91261048Y-66689429D01*
X91429683Y-66858359D01*
X91650129Y-66949896D01*
X91888824Y-66950104D01*
X92109429Y-66858952D01*
X92278359Y-66690317D01*
X92369896Y-66469871D01*
X92370104Y-66231176D01*
X92278952Y-66010571D01*
X92262235Y-65993824D01*
X95074896Y-65993824D01*
X95166048Y-66214429D01*
X95334683Y-66383359D01*
X95555129Y-66474896D01*
X95793824Y-66475104D01*
X96014429Y-66383952D01*
X96183359Y-66215317D01*
X96274896Y-65994871D01*
X96275104Y-65756176D01*
X96183952Y-65535571D01*
X96015317Y-65366641D01*
X95794871Y-65275104D01*
X95556176Y-65274896D01*
X95335571Y-65366048D01*
X95166641Y-65534683D01*
X95075104Y-65755129D01*
X95074896Y-65993824D01*
X92262235Y-65993824D01*
X92110317Y-65841641D01*
X91889871Y-65750104D01*
X91675044Y-65749917D01*
X91675104Y-65681176D01*
X91583952Y-65460571D01*
X91415317Y-65291641D01*
X91194871Y-65200104D01*
X90956176Y-65199896D01*
X90735571Y-65291048D01*
X90566641Y-65459683D01*
X90475104Y-65680129D01*
X90474896Y-65918824D01*
X88477261Y-65918824D01*
X88400000Y-65841428D01*
X88400000Y-65068824D01*
X97199896Y-65068824D01*
X97291048Y-65289429D01*
X97459683Y-65458359D01*
X97680129Y-65549896D01*
X97918824Y-65550104D01*
X98139429Y-65458952D01*
X98308359Y-65290317D01*
X98399896Y-65069871D01*
X98400104Y-64831176D01*
X98308952Y-64610571D01*
X98140317Y-64441641D01*
X97919871Y-64350104D01*
X97681176Y-64349896D01*
X97460571Y-64441048D01*
X97291641Y-64609683D01*
X97200104Y-64830129D01*
X97199896Y-65068824D01*
X88400000Y-65068824D01*
X88400000Y-59140000D01*
X88369552Y-58986927D01*
X88282843Y-58857157D01*
X88254511Y-58838226D01*
X88238952Y-58800571D01*
X88070317Y-58631641D01*
X87849871Y-58540104D01*
X87611176Y-58539896D01*
X87390571Y-58631048D01*
X87221641Y-58799683D01*
X87130104Y-59020129D01*
X87129896Y-59258824D01*
X80350000Y-59258824D01*
X80350000Y-54268824D01*
X88649896Y-54268824D01*
X88741048Y-54489429D01*
X88909683Y-54658359D01*
X89130129Y-54749896D01*
X89284345Y-54750030D01*
X89850000Y-55315685D01*
X89850000Y-63201513D01*
X89741641Y-63309683D01*
X89650104Y-63530129D01*
X89649896Y-63768824D01*
X89741048Y-63989429D01*
X89909683Y-64158359D01*
X90130129Y-64249896D01*
X90368824Y-64250104D01*
X90589429Y-64158952D01*
X90758359Y-63990317D01*
X90849896Y-63769871D01*
X90850104Y-63531176D01*
X90762363Y-63318824D01*
X90849896Y-63318824D01*
X90941048Y-63539429D01*
X91109683Y-63708359D01*
X91330129Y-63799896D01*
X91568824Y-63800104D01*
X91789429Y-63708952D01*
X91958359Y-63540317D01*
X92049896Y-63319871D01*
X92050104Y-63081176D01*
X91958952Y-62860571D01*
X91790317Y-62691641D01*
X91569871Y-62600104D01*
X91331176Y-62599896D01*
X91110571Y-62691048D01*
X90941641Y-62859683D01*
X90850104Y-63080129D01*
X90849896Y-63318824D01*
X90762363Y-63318824D01*
X90758952Y-63310571D01*
X90650000Y-63201428D01*
X90650000Y-62418830D01*
X97349896Y-62418830D01*
X97441048Y-62639435D01*
X97609683Y-62808365D01*
X97830129Y-62899902D01*
X98068824Y-62900110D01*
X98289429Y-62808958D01*
X98458359Y-62640323D01*
X98549896Y-62419877D01*
X98550049Y-62243824D01*
X98649896Y-62243824D01*
X98741048Y-62464429D01*
X98909683Y-62633359D01*
X99130129Y-62724896D01*
X99368824Y-62725104D01*
X99550000Y-62650244D01*
X99550000Y-63701507D01*
X99441635Y-63809683D01*
X99350098Y-64030129D01*
X99349890Y-64268824D01*
X99441042Y-64489429D01*
X99609677Y-64658359D01*
X99830123Y-64749896D01*
X100068818Y-64750104D01*
X100289423Y-64658952D01*
X100450129Y-64498526D01*
X100609683Y-64658359D01*
X100830129Y-64749896D01*
X101068824Y-64750104D01*
X101289429Y-64658952D01*
X101458359Y-64490317D01*
X101549896Y-64269871D01*
X101550104Y-64031176D01*
X101539135Y-64004628D01*
X101550001Y-63950000D01*
X101550000Y-63949995D01*
X101550000Y-61445862D01*
X101680129Y-61499896D01*
X101918824Y-61500104D01*
X102139429Y-61408952D01*
X102150000Y-61398399D01*
X102150000Y-69151513D01*
X102041641Y-69259683D01*
X101950104Y-69480129D01*
X101949896Y-69718824D01*
X102041048Y-69939429D01*
X102209683Y-70108359D01*
X102430129Y-70199896D01*
X102668824Y-70200104D01*
X102889429Y-70108952D01*
X102900000Y-70098399D01*
X102900000Y-74009315D01*
X102767157Y-74142157D01*
X102680448Y-74271926D01*
X102654973Y-74400001D01*
X102650000Y-74425000D01*
X102650000Y-88834314D01*
X101859971Y-88044285D01*
X101860053Y-87950009D01*
X101968824Y-87950104D01*
X102189429Y-87858952D01*
X102358359Y-87690317D01*
X102449896Y-87469871D01*
X102450104Y-87231176D01*
X102358952Y-87010571D01*
X102190317Y-86841641D01*
X101969871Y-86750104D01*
X101731176Y-86749896D01*
X101510571Y-86841048D01*
X101341641Y-87009683D01*
X101250104Y-87230129D01*
X101249947Y-87409991D01*
X101141176Y-87409896D01*
X100920571Y-87501048D01*
X100751641Y-87669683D01*
X100660104Y-87890129D01*
X100659896Y-88128824D01*
X100751048Y-88349429D01*
X100919683Y-88518359D01*
X101140129Y-88609896D01*
X101294344Y-88610030D01*
X102200000Y-89515686D01*
X102200000Y-105551601D01*
X102041641Y-105709683D01*
X101950104Y-105930129D01*
X101949896Y-106168824D01*
X102041048Y-106389429D01*
X102209683Y-106558359D01*
X102430129Y-106649896D01*
X102668824Y-106650104D01*
X102889429Y-106558952D01*
X103058359Y-106390317D01*
X103149896Y-106169871D01*
X103150104Y-105931176D01*
X103058952Y-105710571D01*
X103000000Y-105651516D01*
X103000000Y-105266863D01*
X108899723Y-105266863D01*
X109142795Y-105855143D01*
X109592489Y-106305623D01*
X110180344Y-106549722D01*
X110816863Y-106550277D01*
X111405143Y-106307205D01*
X111855623Y-105857511D01*
X112099722Y-105269656D01*
X112100114Y-104820000D01*
X116244123Y-104820000D01*
X116244123Y-106520000D01*
X116265042Y-106631173D01*
X116330745Y-106733279D01*
X116430997Y-106801778D01*
X116550000Y-106825877D01*
X118250000Y-106825877D01*
X118361173Y-106804958D01*
X118463279Y-106739255D01*
X118531778Y-106639003D01*
X118555877Y-106520000D01*
X118555877Y-105670000D01*
X118767470Y-105670000D01*
X118855009Y-106110086D01*
X119104297Y-106483173D01*
X119477384Y-106732461D01*
X119917470Y-106820000D01*
X119962530Y-106820000D01*
X120402616Y-106732461D01*
X120775703Y-106483173D01*
X121024991Y-106110086D01*
X121112530Y-105670000D01*
X121024991Y-105229914D01*
X120775703Y-104856827D01*
X120402616Y-104607539D01*
X119962530Y-104520000D01*
X119917470Y-104520000D01*
X119477384Y-104607539D01*
X119104297Y-104856827D01*
X118855009Y-105229914D01*
X118767470Y-105670000D01*
X118555877Y-105670000D01*
X118555877Y-104820000D01*
X118534958Y-104708827D01*
X118469255Y-104606721D01*
X118369003Y-104538222D01*
X118250000Y-104514123D01*
X116550000Y-104514123D01*
X116438827Y-104535042D01*
X116336721Y-104600745D01*
X116268222Y-104700997D01*
X116244123Y-104820000D01*
X112100114Y-104820000D01*
X112100277Y-104633137D01*
X111857205Y-104044857D01*
X111407511Y-103594377D01*
X110819656Y-103350278D01*
X110183137Y-103349723D01*
X109594857Y-103592795D01*
X109144377Y-104042489D01*
X108900278Y-104630344D01*
X108899723Y-105266863D01*
X103000000Y-105266863D01*
X103000000Y-102266863D01*
X104199723Y-102266863D01*
X104442795Y-102855143D01*
X104892489Y-103305623D01*
X105480344Y-103549722D01*
X106116863Y-103550277D01*
X106705143Y-103307205D01*
X107155623Y-102857511D01*
X107399722Y-102269656D01*
X107400277Y-101633137D01*
X107157205Y-101044857D01*
X106707511Y-100594377D01*
X106119656Y-100350278D01*
X105483137Y-100349723D01*
X104894857Y-100592795D01*
X104444377Y-101042489D01*
X104200278Y-101630344D01*
X104199723Y-102266863D01*
X103000000Y-102266863D01*
X103000000Y-100273528D01*
X103084683Y-100358359D01*
X103305129Y-100449896D01*
X103543824Y-100450104D01*
X103764429Y-100358952D01*
X103933359Y-100190317D01*
X104024896Y-99969871D01*
X104025104Y-99731176D01*
X103933952Y-99510571D01*
X103765317Y-99341641D01*
X103544871Y-99250104D01*
X103450000Y-99250021D01*
X103450000Y-97543824D01*
X104499896Y-97543824D01*
X104591048Y-97764429D01*
X104759683Y-97933359D01*
X104980129Y-98024896D01*
X105218824Y-98025104D01*
X105439429Y-97933952D01*
X105608359Y-97765317D01*
X105699896Y-97544871D01*
X105700104Y-97306176D01*
X105608952Y-97085571D01*
X105440317Y-96916641D01*
X105219871Y-96825104D01*
X104981176Y-96824896D01*
X104760571Y-96916048D01*
X104591641Y-97084683D01*
X104500104Y-97305129D01*
X104499896Y-97543824D01*
X103450000Y-97543824D01*
X103450000Y-95018824D01*
X108499896Y-95018824D01*
X108591048Y-95239429D01*
X108759683Y-95408359D01*
X108980129Y-95499896D01*
X109218824Y-95500104D01*
X109439429Y-95408952D01*
X109608359Y-95240317D01*
X109699896Y-95019871D01*
X109700104Y-94781176D01*
X109608952Y-94560571D01*
X109537331Y-94488824D01*
X120479896Y-94488824D01*
X120571048Y-94709429D01*
X120739683Y-94878359D01*
X120960129Y-94969896D01*
X121198824Y-94970104D01*
X121419429Y-94878952D01*
X121588359Y-94710317D01*
X121679896Y-94489871D01*
X121680104Y-94251176D01*
X121588952Y-94030571D01*
X121420317Y-93861641D01*
X121199871Y-93770104D01*
X120961176Y-93769896D01*
X120740571Y-93861048D01*
X120571641Y-94029683D01*
X120480104Y-94250129D01*
X120479896Y-94488824D01*
X109537331Y-94488824D01*
X109440317Y-94391641D01*
X109219871Y-94300104D01*
X108981176Y-94299896D01*
X108760571Y-94391048D01*
X108591641Y-94559683D01*
X108500104Y-94780129D01*
X108499896Y-95018824D01*
X103450000Y-95018824D01*
X103450000Y-93318824D01*
X104649888Y-93318824D01*
X104741040Y-93539429D01*
X104909675Y-93708359D01*
X105130121Y-93799896D01*
X105368816Y-93800104D01*
X105589421Y-93708952D01*
X105758351Y-93540317D01*
X105849888Y-93319871D01*
X105850096Y-93081176D01*
X105758944Y-92860571D01*
X105590309Y-92691641D01*
X105369863Y-92600104D01*
X105131168Y-92599896D01*
X104910563Y-92691048D01*
X104741633Y-92859683D01*
X104650096Y-93080129D01*
X104649888Y-93318824D01*
X103450000Y-93318824D01*
X103450000Y-83677004D01*
X103505129Y-83699896D01*
X103743824Y-83700104D01*
X103964429Y-83608952D01*
X103975000Y-83598399D01*
X103975000Y-85949756D01*
X103935571Y-85966048D01*
X103766641Y-86134683D01*
X103675104Y-86355129D01*
X103674896Y-86593824D01*
X103766048Y-86814429D01*
X103934683Y-86983359D01*
X104155129Y-87074896D01*
X104393824Y-87075104D01*
X104614429Y-86983952D01*
X104725000Y-86873574D01*
X104725000Y-90135086D01*
X104710571Y-90141048D01*
X104541641Y-90309683D01*
X104450104Y-90530129D01*
X104449896Y-90768824D01*
X104541048Y-90989429D01*
X104709683Y-91158359D01*
X104930129Y-91249896D01*
X105168824Y-91250104D01*
X105389429Y-91158952D01*
X105558359Y-90990317D01*
X105649896Y-90769871D01*
X105650104Y-90531176D01*
X105558952Y-90310571D01*
X105525000Y-90276560D01*
X105525000Y-90218824D01*
X109829896Y-90218824D01*
X109921048Y-90439429D01*
X110089683Y-90608359D01*
X110310129Y-90699896D01*
X110548824Y-90700104D01*
X110769429Y-90608952D01*
X110938359Y-90440317D01*
X111029896Y-90219871D01*
X111030104Y-89981176D01*
X110938952Y-89760571D01*
X110770317Y-89591641D01*
X110549871Y-89500104D01*
X110311176Y-89499896D01*
X110090571Y-89591048D01*
X109921641Y-89759683D01*
X109830104Y-89980129D01*
X109829896Y-90218824D01*
X105525000Y-90218824D01*
X105525000Y-85778824D01*
X109839896Y-85778824D01*
X109931048Y-85999429D01*
X110099683Y-86168359D01*
X110320129Y-86259896D01*
X110558824Y-86260104D01*
X110779429Y-86168952D01*
X110948359Y-86000317D01*
X111039896Y-85779871D01*
X111040104Y-85541176D01*
X110948952Y-85320571D01*
X110780317Y-85151641D01*
X110559871Y-85060104D01*
X110321176Y-85059896D01*
X110100571Y-85151048D01*
X109931641Y-85319683D01*
X109840104Y-85540129D01*
X109839896Y-85778824D01*
X105525000Y-85778824D01*
X105525000Y-83268824D01*
X106549896Y-83268824D01*
X106641048Y-83489429D01*
X106809683Y-83658359D01*
X107030129Y-83749896D01*
X107268824Y-83750104D01*
X107489429Y-83658952D01*
X107658359Y-83490317D01*
X107749896Y-83269871D01*
X107750092Y-83043824D01*
X109824896Y-83043824D01*
X109916048Y-83264429D01*
X110084683Y-83433359D01*
X110305129Y-83524896D01*
X110543824Y-83525104D01*
X110764429Y-83433952D01*
X110933359Y-83265317D01*
X111024896Y-83044871D01*
X111025104Y-82806176D01*
X110933952Y-82585571D01*
X110807427Y-82458824D01*
X111769896Y-82458824D01*
X111861048Y-82679429D01*
X112029683Y-82848359D01*
X112250129Y-82939896D01*
X112488824Y-82940104D01*
X112709429Y-82848952D01*
X112878359Y-82680317D01*
X112969896Y-82459871D01*
X112970104Y-82221176D01*
X112878952Y-82000571D01*
X112710317Y-81831641D01*
X112489871Y-81740104D01*
X112251176Y-81739896D01*
X112030571Y-81831048D01*
X111861641Y-81999683D01*
X111770104Y-82220129D01*
X111769896Y-82458824D01*
X110807427Y-82458824D01*
X110765317Y-82416641D01*
X110544871Y-82325104D01*
X110306176Y-82324896D01*
X110085571Y-82416048D01*
X109916641Y-82584683D01*
X109825104Y-82805129D01*
X109824896Y-83043824D01*
X107750092Y-83043824D01*
X107750104Y-83031176D01*
X107658952Y-82810571D01*
X107490317Y-82641641D01*
X107269871Y-82550104D01*
X107031176Y-82549896D01*
X106810571Y-82641048D01*
X106641641Y-82809683D01*
X106550104Y-83030129D01*
X106549896Y-83268824D01*
X105525000Y-83268824D01*
X105525000Y-81218824D01*
X108649896Y-81218824D01*
X108741048Y-81439429D01*
X108909683Y-81608359D01*
X109130129Y-81699896D01*
X109368824Y-81700104D01*
X109589429Y-81608952D01*
X109758359Y-81440317D01*
X109849896Y-81219871D01*
X109850104Y-80981176D01*
X109758952Y-80760571D01*
X109667366Y-80668824D01*
X111589896Y-80668824D01*
X111681048Y-80889429D01*
X111849683Y-81058359D01*
X112070129Y-81149896D01*
X112308824Y-81150104D01*
X112529429Y-81058952D01*
X112698359Y-80890317D01*
X112789896Y-80669871D01*
X112790104Y-80431176D01*
X112698952Y-80210571D01*
X112530317Y-80041641D01*
X112309871Y-79950104D01*
X112071176Y-79949896D01*
X111850571Y-80041048D01*
X111681641Y-80209683D01*
X111590104Y-80430129D01*
X111589896Y-80668824D01*
X109667366Y-80668824D01*
X109590317Y-80591641D01*
X109369871Y-80500104D01*
X109131176Y-80499896D01*
X108910571Y-80591048D01*
X108741641Y-80759683D01*
X108650104Y-80980129D01*
X108649896Y-81218824D01*
X105525000Y-81218824D01*
X105525000Y-80068824D01*
X108199896Y-80068824D01*
X108291048Y-80289429D01*
X108459683Y-80458359D01*
X108680129Y-80549896D01*
X108918824Y-80550104D01*
X109139429Y-80458952D01*
X109308359Y-80290317D01*
X109399896Y-80069871D01*
X109400030Y-79916636D01*
X109480129Y-79949896D01*
X109718824Y-79950104D01*
X109939429Y-79858952D01*
X110108359Y-79690317D01*
X110199896Y-79469871D01*
X110200104Y-79231176D01*
X110108952Y-79010571D01*
X109942497Y-78843824D01*
X113299896Y-78843824D01*
X113391048Y-79064429D01*
X113559683Y-79233359D01*
X113780129Y-79324896D01*
X114018824Y-79325104D01*
X114100000Y-79291563D01*
X114100000Y-82451513D01*
X113991641Y-82559683D01*
X113900104Y-82780129D01*
X113899896Y-83018824D01*
X113991048Y-83239429D01*
X114159683Y-83408359D01*
X114380129Y-83499896D01*
X114618824Y-83500104D01*
X114839429Y-83408952D01*
X114999913Y-83248748D01*
X114999896Y-83268824D01*
X115091048Y-83489429D01*
X115259683Y-83658359D01*
X115480129Y-83749896D01*
X115718824Y-83750104D01*
X115939429Y-83658952D01*
X116108359Y-83490317D01*
X116199896Y-83269871D01*
X116200104Y-83031176D01*
X116108952Y-82810571D01*
X116000000Y-82701428D01*
X116000000Y-78568824D01*
X117399896Y-78568824D01*
X117491048Y-78789429D01*
X117659683Y-78958359D01*
X117880129Y-79049896D01*
X118118824Y-79050104D01*
X118339429Y-78958952D01*
X118508359Y-78790317D01*
X118599896Y-78569871D01*
X118600104Y-78331176D01*
X118508952Y-78110571D01*
X118450000Y-78051516D01*
X118450000Y-66298659D01*
X118459683Y-66308359D01*
X118680129Y-66399896D01*
X118918824Y-66400104D01*
X119139429Y-66308952D01*
X119308359Y-66140317D01*
X119399896Y-65919871D01*
X119400104Y-65681176D01*
X119308952Y-65460571D01*
X119140317Y-65291641D01*
X118919871Y-65200104D01*
X118681176Y-65199896D01*
X118460571Y-65291048D01*
X118450086Y-65301515D01*
X118390317Y-65241641D01*
X118169871Y-65150104D01*
X117931176Y-65149896D01*
X117710571Y-65241048D01*
X117541641Y-65409683D01*
X117450104Y-65630129D01*
X117449896Y-65868824D01*
X117541048Y-66089429D01*
X117650000Y-66198572D01*
X117650000Y-77951601D01*
X117491641Y-78109683D01*
X117400104Y-78330129D01*
X117399896Y-78568824D01*
X116000000Y-78568824D01*
X116000000Y-76508634D01*
X116018349Y-76490317D01*
X116109886Y-76269871D01*
X116110094Y-76031176D01*
X116018942Y-75810571D01*
X115850307Y-75641641D01*
X115629861Y-75550104D01*
X115391166Y-75549896D01*
X115170561Y-75641048D01*
X115001631Y-75809683D01*
X114910094Y-76030129D01*
X114909886Y-76268824D01*
X115001038Y-76489429D01*
X115169673Y-76658359D01*
X115200000Y-76670952D01*
X115200000Y-82701513D01*
X115100087Y-82801252D01*
X115100104Y-82781176D01*
X115008952Y-82560571D01*
X114900000Y-82451428D01*
X114900000Y-75628522D01*
X114988359Y-75540317D01*
X115079896Y-75319871D01*
X115080104Y-75081176D01*
X114988952Y-74860571D01*
X114820317Y-74691641D01*
X114599871Y-74600104D01*
X114361176Y-74599896D01*
X114140571Y-74691048D01*
X113971641Y-74859683D01*
X113880104Y-75080129D01*
X113879896Y-75318824D01*
X113971048Y-75539429D01*
X114100000Y-75668607D01*
X114100000Y-78158376D01*
X114019871Y-78125104D01*
X113781176Y-78124896D01*
X113560571Y-78216048D01*
X113391641Y-78384683D01*
X113300104Y-78605129D01*
X113299896Y-78843824D01*
X109942497Y-78843824D01*
X109940317Y-78841641D01*
X109786309Y-78777691D01*
X109869566Y-78653087D01*
X109900014Y-78500014D01*
X109900014Y-74743824D01*
X111799896Y-74743824D01*
X111891048Y-74964429D01*
X112059683Y-75133359D01*
X112280129Y-75224896D01*
X112518824Y-75225104D01*
X112739429Y-75133952D01*
X112908359Y-74965317D01*
X112999896Y-74744871D01*
X113000104Y-74506176D01*
X112908952Y-74285571D01*
X112740317Y-74116641D01*
X112519871Y-74025104D01*
X112281176Y-74024896D01*
X112060571Y-74116048D01*
X111891641Y-74284683D01*
X111800104Y-74505129D01*
X111799896Y-74743824D01*
X109900014Y-74743824D01*
X109900014Y-73900000D01*
X109869566Y-73746927D01*
X109782857Y-73617157D01*
X109653087Y-73530448D01*
X109500014Y-73500000D01*
X109346941Y-73530448D01*
X109217171Y-73617157D01*
X109130462Y-73746927D01*
X109100014Y-73900000D01*
X109100014Y-78500014D01*
X109130462Y-78653087D01*
X109217171Y-78782857D01*
X109287567Y-78829894D01*
X109260571Y-78841048D01*
X109091641Y-79009683D01*
X109000104Y-79230129D01*
X108999970Y-79383364D01*
X108919871Y-79350104D01*
X108681176Y-79349896D01*
X108460571Y-79441048D01*
X108291641Y-79609683D01*
X108200104Y-79830129D01*
X108199896Y-80068824D01*
X105525000Y-80068824D01*
X105525000Y-78848824D01*
X105669896Y-78848824D01*
X105761048Y-79069429D01*
X105929683Y-79238359D01*
X106150129Y-79329896D01*
X106388824Y-79330104D01*
X106609429Y-79238952D01*
X106778359Y-79070317D01*
X106869896Y-78849871D01*
X106870104Y-78611176D01*
X106778952Y-78390571D01*
X106610317Y-78221641D01*
X106389871Y-78130104D01*
X106151176Y-78129896D01*
X105930571Y-78221048D01*
X105761641Y-78389683D01*
X105670104Y-78610129D01*
X105669896Y-78848824D01*
X105525000Y-78848824D01*
X105525000Y-77496243D01*
X105630129Y-77539896D01*
X105868824Y-77540104D01*
X106089429Y-77448952D01*
X106258359Y-77280317D01*
X106263131Y-77268824D01*
X106399896Y-77268824D01*
X106491048Y-77489429D01*
X106659683Y-77658359D01*
X106880129Y-77749896D01*
X107118824Y-77750104D01*
X107339429Y-77658952D01*
X107508359Y-77490317D01*
X107599896Y-77269871D01*
X107600104Y-77031176D01*
X107508952Y-76810571D01*
X107340317Y-76641641D01*
X107119871Y-76550104D01*
X106881176Y-76549896D01*
X106660571Y-76641048D01*
X106491641Y-76809683D01*
X106400104Y-77030129D01*
X106399896Y-77268824D01*
X106263131Y-77268824D01*
X106349896Y-77059871D01*
X106350104Y-76821176D01*
X106258952Y-76600571D01*
X106090317Y-76431641D01*
X105869871Y-76340104D01*
X105631176Y-76339896D01*
X105525000Y-76383767D01*
X105525000Y-75570092D01*
X105538824Y-75570104D01*
X105759429Y-75478952D01*
X105928359Y-75310317D01*
X106019896Y-75089871D01*
X106020104Y-74851176D01*
X105928952Y-74630571D01*
X105760317Y-74461641D01*
X105539871Y-74370104D01*
X105301176Y-74369896D01*
X105080571Y-74461048D01*
X104964946Y-74576471D01*
X104850317Y-74461641D01*
X104629871Y-74370104D01*
X104391176Y-74369896D01*
X104170571Y-74461048D01*
X104114981Y-74516541D01*
X103980317Y-74381641D01*
X103759871Y-74290104D01*
X103677119Y-74290032D01*
X103700000Y-74175000D01*
X103700000Y-72558824D01*
X110599896Y-72558824D01*
X110691048Y-72779429D01*
X110859683Y-72948359D01*
X111080129Y-73039896D01*
X111318824Y-73040104D01*
X111539429Y-72948952D01*
X111708359Y-72780317D01*
X111799896Y-72559871D01*
X111800104Y-72321176D01*
X111708952Y-72100571D01*
X111540317Y-71931641D01*
X111509451Y-71918824D01*
X112449896Y-71918824D01*
X112541048Y-72139429D01*
X112709683Y-72308359D01*
X112930129Y-72399896D01*
X113168824Y-72400104D01*
X113389429Y-72308952D01*
X113558359Y-72140317D01*
X113649896Y-71919871D01*
X113650104Y-71681176D01*
X113558952Y-71460571D01*
X113390317Y-71291641D01*
X113169871Y-71200104D01*
X112931176Y-71199896D01*
X112710571Y-71291048D01*
X112541641Y-71459683D01*
X112450104Y-71680129D01*
X112449896Y-71918824D01*
X111509451Y-71918824D01*
X111319871Y-71840104D01*
X111081176Y-71839896D01*
X110860571Y-71931048D01*
X110691641Y-72099683D01*
X110600104Y-72320129D01*
X110599896Y-72558824D01*
X103700000Y-72558824D01*
X103700000Y-68048487D01*
X103808359Y-67940317D01*
X103850000Y-67840034D01*
X103850000Y-68260000D01*
X103880448Y-68413074D01*
X103967157Y-68542843D01*
X104720029Y-69295715D01*
X104719896Y-69448824D01*
X104811048Y-69669429D01*
X104979683Y-69838359D01*
X105200129Y-69929896D01*
X105349904Y-69930027D01*
X105349896Y-69938824D01*
X105441048Y-70159429D01*
X105609683Y-70328359D01*
X105750000Y-70386624D01*
X105750000Y-70700000D01*
X105780448Y-70853074D01*
X105867157Y-70982843D01*
X106267155Y-71382840D01*
X106267157Y-71382843D01*
X106396927Y-71469552D01*
X106550000Y-71500000D01*
X108751513Y-71500000D01*
X108859683Y-71608359D01*
X109080129Y-71699896D01*
X109318824Y-71700104D01*
X109539429Y-71608952D01*
X109708359Y-71440317D01*
X109799896Y-71219871D01*
X109800104Y-70981176D01*
X109708952Y-70760571D01*
X109540317Y-70591641D01*
X109319871Y-70500104D01*
X109081176Y-70499896D01*
X108860571Y-70591048D01*
X108751428Y-70700000D01*
X106715685Y-70700000D01*
X106550000Y-70534314D01*
X106550000Y-70389719D01*
X106755129Y-70474896D01*
X106993824Y-70475104D01*
X107214429Y-70383952D01*
X107383359Y-70215317D01*
X107474896Y-69994871D01*
X107475104Y-69756176D01*
X107383952Y-69535571D01*
X107367235Y-69518824D01*
X108674896Y-69518824D01*
X108766048Y-69739429D01*
X108934683Y-69908359D01*
X109155129Y-69999896D01*
X109393824Y-70000104D01*
X109614429Y-69908952D01*
X109783359Y-69740317D01*
X109874896Y-69519871D01*
X109875104Y-69281176D01*
X109783952Y-69060571D01*
X109615317Y-68891641D01*
X109394871Y-68800104D01*
X109156176Y-68799896D01*
X108935571Y-68891048D01*
X108766641Y-69059683D01*
X108675104Y-69280129D01*
X108674896Y-69518824D01*
X107367235Y-69518824D01*
X107215317Y-69366641D01*
X106994871Y-69275104D01*
X106950000Y-69275065D01*
X106950000Y-67248489D01*
X106971048Y-67299429D01*
X107139683Y-67468359D01*
X107360129Y-67559896D01*
X107598824Y-67560104D01*
X107819429Y-67468952D01*
X107988359Y-67300317D01*
X108079896Y-67079871D01*
X108079914Y-67058824D01*
X113809896Y-67058824D01*
X113901048Y-67279429D01*
X114069683Y-67448359D01*
X114290129Y-67539896D01*
X114528824Y-67540104D01*
X114749429Y-67448952D01*
X114918359Y-67280317D01*
X115009896Y-67059871D01*
X115010104Y-66821176D01*
X114918952Y-66600571D01*
X114750317Y-66431641D01*
X114529871Y-66340104D01*
X114291176Y-66339896D01*
X114070571Y-66431048D01*
X113901641Y-66599683D01*
X113810104Y-66820129D01*
X113809896Y-67058824D01*
X108079914Y-67058824D01*
X108080104Y-66841176D01*
X107988952Y-66620571D01*
X107820317Y-66451641D01*
X107599871Y-66360104D01*
X107361176Y-66359896D01*
X107140571Y-66451048D01*
X106971641Y-66619683D01*
X106950000Y-66671800D01*
X106950000Y-63618824D01*
X116949896Y-63618824D01*
X117041048Y-63839429D01*
X117209683Y-64008359D01*
X117430129Y-64099896D01*
X117668824Y-64100104D01*
X117889429Y-64008952D01*
X118058359Y-63840317D01*
X118149896Y-63619871D01*
X118150104Y-63381176D01*
X118058952Y-63160571D01*
X117890317Y-62991641D01*
X117669871Y-62900104D01*
X117431176Y-62899896D01*
X117210571Y-62991048D01*
X117041641Y-63159683D01*
X116950104Y-63380129D01*
X116949896Y-63618824D01*
X106950000Y-63618824D01*
X106950000Y-62443824D01*
X107624896Y-62443824D01*
X107716048Y-62664429D01*
X107884683Y-62833359D01*
X108105129Y-62924896D01*
X108343824Y-62925104D01*
X108564429Y-62833952D01*
X108733359Y-62665317D01*
X108824896Y-62444871D01*
X108825104Y-62206176D01*
X108733952Y-61985571D01*
X108565317Y-61816641D01*
X108344871Y-61725104D01*
X108106176Y-61724896D01*
X107885571Y-61816048D01*
X107716641Y-61984683D01*
X107625104Y-62205129D01*
X107624896Y-62443824D01*
X106950000Y-62443824D01*
X106950000Y-55643824D01*
X120624896Y-55643824D01*
X120716048Y-55864429D01*
X120884683Y-56033359D01*
X121105129Y-56124896D01*
X121343824Y-56125104D01*
X121564429Y-56033952D01*
X121733359Y-55865317D01*
X121824896Y-55644871D01*
X121825104Y-55406176D01*
X121733952Y-55185571D01*
X121565317Y-55016641D01*
X121344871Y-54925104D01*
X121106176Y-54924896D01*
X120885571Y-55016048D01*
X120716641Y-55184683D01*
X120625104Y-55405129D01*
X120624896Y-55643824D01*
X106950000Y-55643824D01*
X106950000Y-53998487D01*
X107058359Y-53890317D01*
X107149896Y-53669871D01*
X107149896Y-53668824D01*
X112499896Y-53668824D01*
X112591048Y-53889429D01*
X112759683Y-54058359D01*
X112980129Y-54149896D01*
X113218824Y-54150104D01*
X113267479Y-54130000D01*
X127027470Y-54130000D01*
X127115009Y-54570086D01*
X127364297Y-54943173D01*
X127737384Y-55192461D01*
X128177470Y-55280000D01*
X128222530Y-55280000D01*
X128662616Y-55192461D01*
X129035703Y-54943173D01*
X129284991Y-54570086D01*
X129372530Y-54130000D01*
X129284991Y-53689914D01*
X129035703Y-53316827D01*
X128662616Y-53067539D01*
X128222530Y-52980000D01*
X128177470Y-52980000D01*
X127737384Y-53067539D01*
X127364297Y-53316827D01*
X127115009Y-53689914D01*
X127027470Y-54130000D01*
X113267479Y-54130000D01*
X113439429Y-54058952D01*
X113608359Y-53890317D01*
X113699896Y-53669871D01*
X113700104Y-53431176D01*
X113608952Y-53210571D01*
X113440317Y-53041641D01*
X113219871Y-52950104D01*
X112981176Y-52949896D01*
X112760571Y-53041048D01*
X112591641Y-53209683D01*
X112500104Y-53430129D01*
X112499896Y-53668824D01*
X107149896Y-53668824D01*
X107150104Y-53431176D01*
X107058952Y-53210571D01*
X106890317Y-53041641D01*
X106669871Y-52950104D01*
X106431176Y-52949896D01*
X106210571Y-53041048D01*
X106041641Y-53209683D01*
X105950104Y-53430129D01*
X105949896Y-53668824D01*
X106041048Y-53889429D01*
X106150000Y-53998572D01*
X106150000Y-67857309D01*
X106138952Y-67830571D01*
X105970317Y-67661641D01*
X105749871Y-67570104D01*
X105511176Y-67569896D01*
X105290571Y-67661048D01*
X105121641Y-67829683D01*
X105030104Y-68050129D01*
X105029896Y-68288824D01*
X105121048Y-68509429D01*
X105289683Y-68678359D01*
X105414245Y-68730082D01*
X105285655Y-68729970D01*
X104650000Y-68094314D01*
X104650000Y-63618824D01*
X104849896Y-63618824D01*
X104941048Y-63839429D01*
X105050000Y-63948572D01*
X105050000Y-66531478D01*
X104961641Y-66619683D01*
X104870104Y-66840129D01*
X104869896Y-67078824D01*
X104961048Y-67299429D01*
X105129683Y-67468359D01*
X105350129Y-67559896D01*
X105588824Y-67560104D01*
X105809429Y-67468952D01*
X105978359Y-67300317D01*
X106069896Y-67079871D01*
X106070104Y-66841176D01*
X105978952Y-66620571D01*
X105850000Y-66491393D01*
X105850000Y-63948487D01*
X105958359Y-63840317D01*
X106049896Y-63619871D01*
X106050104Y-63381176D01*
X105958952Y-63160571D01*
X105790317Y-62991641D01*
X105569871Y-62900104D01*
X105331176Y-62899896D01*
X105110571Y-62991048D01*
X104941641Y-63159683D01*
X104850104Y-63380129D01*
X104849896Y-63618824D01*
X104650000Y-63618824D01*
X104650000Y-52918824D01*
X109899896Y-52918824D01*
X109991048Y-53139429D01*
X110159683Y-53308359D01*
X110380129Y-53399896D01*
X110618824Y-53400104D01*
X110839429Y-53308952D01*
X111008359Y-53140317D01*
X111099896Y-52919871D01*
X111100104Y-52681176D01*
X111008952Y-52460571D01*
X110840317Y-52291641D01*
X110619871Y-52200104D01*
X110381176Y-52199896D01*
X110160571Y-52291048D01*
X109991641Y-52459683D01*
X109900104Y-52680129D01*
X109899896Y-52918824D01*
X104650000Y-52918824D01*
X104650000Y-52398487D01*
X104758359Y-52290317D01*
X104849896Y-52069871D01*
X104850104Y-51831176D01*
X104758952Y-51610571D01*
X104590317Y-51441641D01*
X104369871Y-51350104D01*
X104131176Y-51349896D01*
X103910571Y-51441048D01*
X103741641Y-51609683D01*
X103650104Y-51830129D01*
X103649896Y-52068824D01*
X103741048Y-52289429D01*
X103850000Y-52398572D01*
X103850000Y-62951603D01*
X103690317Y-62791641D01*
X103469871Y-62700104D01*
X103231176Y-62699896D01*
X103010571Y-62791048D01*
X102950000Y-62851513D01*
X102950000Y-53248487D01*
X103058359Y-53140317D01*
X103149896Y-52919871D01*
X103150104Y-52681176D01*
X103058952Y-52460571D01*
X102890317Y-52291641D01*
X102669871Y-52200104D01*
X102431176Y-52199896D01*
X102210571Y-52291048D01*
X102041641Y-52459683D01*
X101950104Y-52680129D01*
X101949896Y-52918824D01*
X102041048Y-53139429D01*
X102150000Y-53248572D01*
X102150000Y-60401341D01*
X102140317Y-60391641D01*
X101919871Y-60300104D01*
X101681176Y-60299896D01*
X101550000Y-60354097D01*
X101550000Y-59048487D01*
X101658359Y-58940317D01*
X101749896Y-58719871D01*
X101750104Y-58481176D01*
X101658952Y-58260571D01*
X101490317Y-58091641D01*
X101269871Y-58000104D01*
X101031176Y-57999896D01*
X100950000Y-58033437D01*
X100950000Y-56348530D01*
X101033359Y-56265317D01*
X101124896Y-56044871D01*
X101125104Y-55806176D01*
X101033952Y-55585571D01*
X100865317Y-55416641D01*
X100644871Y-55325104D01*
X100406176Y-55324896D01*
X100350000Y-55348107D01*
X100350000Y-53598574D01*
X100408359Y-53540317D01*
X100499896Y-53319871D01*
X100500104Y-53081176D01*
X100408952Y-52860571D01*
X100240317Y-52691641D01*
X100019871Y-52600104D01*
X99781176Y-52599896D01*
X99560571Y-52691048D01*
X99391641Y-52859683D01*
X99300104Y-53080129D01*
X99299896Y-53318824D01*
X99385126Y-53525096D01*
X99156176Y-53524896D01*
X98935571Y-53616048D01*
X98766641Y-53784683D01*
X98675104Y-54005129D01*
X98674896Y-54243824D01*
X98766048Y-54464429D01*
X98850000Y-54548528D01*
X98850000Y-61676513D01*
X98741641Y-61784683D01*
X98650104Y-62005129D01*
X98649896Y-62243824D01*
X98550049Y-62243824D01*
X98550104Y-62181182D01*
X98458952Y-61960577D01*
X98350000Y-61851434D01*
X98350000Y-57048399D01*
X98508359Y-56890317D01*
X98599896Y-56669871D01*
X98600104Y-56431176D01*
X98508952Y-56210571D01*
X98340317Y-56041641D01*
X98119871Y-55950104D01*
X97881176Y-55949896D01*
X97660571Y-56041048D01*
X97491641Y-56209683D01*
X97400104Y-56430129D01*
X97399896Y-56668824D01*
X97491048Y-56889429D01*
X97550000Y-56948484D01*
X97550000Y-61851519D01*
X97441641Y-61959689D01*
X97350104Y-62180135D01*
X97349896Y-62418830D01*
X90650000Y-62418830D01*
X90650000Y-58668824D01*
X91099896Y-58668824D01*
X91191048Y-58889429D01*
X91359683Y-59058359D01*
X91580129Y-59149896D01*
X91818824Y-59150104D01*
X92039429Y-59058952D01*
X92208359Y-58890317D01*
X92299896Y-58669871D01*
X92300104Y-58431176D01*
X92208952Y-58210571D01*
X92040317Y-58041641D01*
X91819871Y-57950104D01*
X91581176Y-57949896D01*
X91360571Y-58041048D01*
X91191641Y-58209683D01*
X91100104Y-58430129D01*
X91099896Y-58668824D01*
X90650000Y-58668824D01*
X90650000Y-56168824D01*
X92199884Y-56168824D01*
X92291036Y-56389429D01*
X92459671Y-56558359D01*
X92680117Y-56649896D01*
X92918812Y-56650104D01*
X93139417Y-56558952D01*
X93308347Y-56390317D01*
X93360339Y-56265107D01*
X93391048Y-56339429D01*
X93500000Y-56448572D01*
X93500000Y-60551339D01*
X93491641Y-60559683D01*
X93400104Y-60780129D01*
X93399896Y-61018824D01*
X93491048Y-61239429D01*
X93659683Y-61408359D01*
X93880129Y-61499896D01*
X94118824Y-61500104D01*
X94339429Y-61408952D01*
X94508359Y-61240317D01*
X94599896Y-61019871D01*
X94600104Y-60781176D01*
X94508952Y-60560571D01*
X94340317Y-60391641D01*
X94300000Y-60374900D01*
X94300000Y-56448487D01*
X94408359Y-56340317D01*
X94499896Y-56119871D01*
X94499984Y-56018824D01*
X95549896Y-56018824D01*
X95641048Y-56239429D01*
X95809683Y-56408359D01*
X96030129Y-56499896D01*
X96268824Y-56500104D01*
X96489429Y-56408952D01*
X96658359Y-56240317D01*
X96749896Y-56019871D01*
X96750104Y-55781176D01*
X96658952Y-55560571D01*
X96490317Y-55391641D01*
X96269871Y-55300104D01*
X96031176Y-55299896D01*
X95810571Y-55391048D01*
X95641641Y-55559683D01*
X95550104Y-55780129D01*
X95549896Y-56018824D01*
X94499984Y-56018824D01*
X94500104Y-55881176D01*
X94408952Y-55660571D01*
X94240317Y-55491641D01*
X94019871Y-55400104D01*
X93781176Y-55399896D01*
X93560571Y-55491048D01*
X93391641Y-55659683D01*
X93339649Y-55784893D01*
X93308940Y-55710571D01*
X93140305Y-55541641D01*
X92919859Y-55450104D01*
X92681164Y-55449896D01*
X92460559Y-55541048D01*
X92291629Y-55709683D01*
X92200092Y-55930129D01*
X92199884Y-56168824D01*
X90650000Y-56168824D01*
X90650000Y-55150005D01*
X90650001Y-55150000D01*
X90619552Y-54996927D01*
X90583635Y-54943173D01*
X90532843Y-54867157D01*
X90532840Y-54867155D01*
X89849971Y-54184285D01*
X89850104Y-54031176D01*
X89758952Y-53810571D01*
X89590317Y-53641641D01*
X89369871Y-53550104D01*
X89131176Y-53549896D01*
X88910571Y-53641048D01*
X88741641Y-53809683D01*
X88650104Y-54030129D01*
X88649896Y-54268824D01*
X80350000Y-54268824D01*
X80350000Y-49865615D01*
X80831114Y-51030001D01*
X81814821Y-52015425D01*
X83100753Y-52549391D01*
X84493139Y-52550606D01*
X85780001Y-52018886D01*
X86765425Y-51035179D01*
X86855265Y-50818820D01*
X115999896Y-50818820D01*
X116091048Y-51039425D01*
X116259683Y-51208355D01*
X116480129Y-51299892D01*
X116718824Y-51300100D01*
X116939429Y-51208948D01*
X117108359Y-51040313D01*
X117199896Y-50819867D01*
X117199896Y-50818824D01*
X121099896Y-50818824D01*
X121191048Y-51039429D01*
X121359683Y-51208359D01*
X121580129Y-51299896D01*
X121818824Y-51300104D01*
X122039429Y-51208952D01*
X122208359Y-51040317D01*
X122299896Y-50819871D01*
X122300104Y-50581176D01*
X122208952Y-50360571D01*
X122040317Y-50191641D01*
X121819871Y-50100104D01*
X121581176Y-50099896D01*
X121360571Y-50191048D01*
X121191641Y-50359683D01*
X121100104Y-50580129D01*
X121099896Y-50818824D01*
X117199896Y-50818824D01*
X117200104Y-50581172D01*
X117108952Y-50360567D01*
X116940317Y-50191637D01*
X116719871Y-50100100D01*
X116481176Y-50099892D01*
X116260571Y-50191044D01*
X116091641Y-50359679D01*
X116000104Y-50580125D01*
X115999896Y-50818820D01*
X86855265Y-50818820D01*
X87299391Y-49749247D01*
X87300159Y-48868824D01*
X88799896Y-48868824D01*
X88891048Y-49089429D01*
X89059683Y-49258359D01*
X89280129Y-49349896D01*
X89518824Y-49350104D01*
X89739429Y-49258952D01*
X89908359Y-49090317D01*
X89999896Y-48869871D01*
X89999940Y-48818824D01*
X100399898Y-48818824D01*
X100491050Y-49039429D01*
X100659685Y-49208359D01*
X100880131Y-49299896D01*
X101118826Y-49300104D01*
X101339431Y-49208952D01*
X101508361Y-49040317D01*
X101599898Y-48819871D01*
X101600106Y-48581176D01*
X101508954Y-48360571D01*
X101340319Y-48191641D01*
X101119873Y-48100104D01*
X100881178Y-48099896D01*
X100660573Y-48191048D01*
X100491643Y-48359683D01*
X100400106Y-48580129D01*
X100399898Y-48818824D01*
X89999940Y-48818824D01*
X90000104Y-48631176D01*
X89908952Y-48410571D01*
X89740317Y-48241641D01*
X89519871Y-48150104D01*
X89281176Y-48149896D01*
X89060571Y-48241048D01*
X88891641Y-48409683D01*
X88800104Y-48630129D01*
X88799896Y-48868824D01*
X87300159Y-48868824D01*
X87300606Y-48356861D01*
X86768886Y-47069999D01*
X86368416Y-46668830D01*
X103899896Y-46668830D01*
X103991048Y-46889435D01*
X104159683Y-47058365D01*
X104380129Y-47149902D01*
X104618824Y-47150110D01*
X104839429Y-47058958D01*
X105008359Y-46890323D01*
X105099896Y-46669877D01*
X105099896Y-46668824D01*
X113299896Y-46668824D01*
X113391048Y-46889429D01*
X113559683Y-47058359D01*
X113780129Y-47149896D01*
X114018824Y-47150104D01*
X114239429Y-47058952D01*
X114408359Y-46890317D01*
X114434455Y-46827470D01*
X116610000Y-46827470D01*
X116610000Y-46872530D01*
X116697539Y-47312616D01*
X116946827Y-47685703D01*
X117319914Y-47934991D01*
X117760000Y-48022530D01*
X118200086Y-47934991D01*
X118573173Y-47685703D01*
X118822461Y-47312616D01*
X118910000Y-46872530D01*
X118910000Y-46827470D01*
X118822461Y-46387384D01*
X118573173Y-46014297D01*
X118551776Y-46000000D01*
X119144123Y-46000000D01*
X119144123Y-47700000D01*
X119165042Y-47811173D01*
X119230745Y-47913279D01*
X119330997Y-47981778D01*
X119450000Y-48005877D01*
X121150000Y-48005877D01*
X121261173Y-47984958D01*
X121363279Y-47919255D01*
X121431778Y-47819003D01*
X121455877Y-47700000D01*
X121455877Y-46000000D01*
X121434958Y-45888827D01*
X121369255Y-45786721D01*
X121269003Y-45718222D01*
X121150000Y-45694123D01*
X119450000Y-45694123D01*
X119338827Y-45715042D01*
X119236721Y-45780745D01*
X119168222Y-45880997D01*
X119144123Y-46000000D01*
X118551776Y-46000000D01*
X118200086Y-45765009D01*
X117760000Y-45677470D01*
X117319914Y-45765009D01*
X116946827Y-46014297D01*
X116697539Y-46387384D01*
X116610000Y-46827470D01*
X114434455Y-46827470D01*
X114499896Y-46669871D01*
X114500104Y-46431176D01*
X114408952Y-46210571D01*
X114240317Y-46041641D01*
X114019871Y-45950104D01*
X113781176Y-45949896D01*
X113560571Y-46041048D01*
X113391641Y-46209683D01*
X113300104Y-46430129D01*
X113299896Y-46668824D01*
X105099896Y-46668824D01*
X105100104Y-46431182D01*
X105008952Y-46210577D01*
X104840317Y-46041647D01*
X104619871Y-45950110D01*
X104381176Y-45949902D01*
X104160571Y-46041054D01*
X103991641Y-46209689D01*
X103900104Y-46430135D01*
X103899896Y-46668830D01*
X86368416Y-46668830D01*
X85785179Y-46084575D01*
X84499247Y-45550609D01*
X83106861Y-45549394D01*
X81819999Y-46081114D01*
X80834575Y-47064821D01*
X80350000Y-48231806D01*
X80350000Y-45400000D01*
X125034385Y-45400000D01*
X123869999Y-45881114D01*
X123869999Y-45881114D01*
G37*
X123869999Y-45881114D02*
X122884575Y-46864821D01*
X122350609Y-48150753D01*
X122349394Y-49543139D01*
X122881114Y-50830001D01*
X123864821Y-51815425D01*
X125150753Y-52349391D01*
X126543139Y-52350606D01*
X127830001Y-51818886D01*
X128815425Y-50835179D01*
X129349391Y-49549247D01*
X129350606Y-48156861D01*
X128818886Y-46869999D01*
X127835179Y-45884575D01*
X126668194Y-45400000D01*
X129650000Y-45400000D01*
X129650000Y-65839748D01*
X129565438Y-65635596D01*
X129394405Y-65464563D01*
X129170939Y-65372000D01*
X128564387Y-65372000D01*
X128662616Y-65352461D01*
X129035703Y-65103173D01*
X129284991Y-64730086D01*
X129372530Y-64290000D01*
X129284991Y-63849914D01*
X129035703Y-63476827D01*
X128662616Y-63227539D01*
X128222530Y-63140000D01*
X128177470Y-63140000D01*
X127737384Y-63227539D01*
X127364297Y-63476827D01*
X127115009Y-63849914D01*
X127027470Y-64290000D01*
X127115009Y-64730086D01*
X127364297Y-65103173D01*
X127737384Y-65352461D01*
X127835613Y-65372000D01*
X127229061Y-65372000D01*
X127005595Y-65464563D01*
X126834562Y-65635596D01*
X126760517Y-65814358D01*
X126758952Y-65810571D01*
X126650000Y-65701428D01*
X126650000Y-61750000D01*
X127027470Y-61750000D01*
X127115009Y-62190086D01*
X127364297Y-62563173D01*
X127737384Y-62812461D01*
X128177470Y-62900000D01*
X128222530Y-62900000D01*
X128662616Y-62812461D01*
X129035703Y-62563173D01*
X129284991Y-62190086D01*
X129372530Y-61750000D01*
X129284991Y-61309914D01*
X129035703Y-60936827D01*
X128662616Y-60687539D01*
X128222530Y-60600000D01*
X128177470Y-60600000D01*
X127737384Y-60687539D01*
X127364297Y-60936827D01*
X127115009Y-61309914D01*
X127027470Y-61750000D01*
X126650000Y-61750000D01*
X126650000Y-60015686D01*
X127055685Y-59610000D01*
X127107035Y-59610000D01*
X127115009Y-59650086D01*
X127364297Y-60023173D01*
X127737384Y-60272461D01*
X128177470Y-60360000D01*
X128222530Y-60360000D01*
X128662616Y-60272461D01*
X129035703Y-60023173D01*
X129284991Y-59650086D01*
X129372530Y-59210000D01*
X129284991Y-58769914D01*
X129035703Y-58396827D01*
X128662616Y-58147539D01*
X128222530Y-58060000D01*
X128177470Y-58060000D01*
X127737384Y-58147539D01*
X127364297Y-58396827D01*
X127115009Y-58769914D01*
X127107035Y-58810000D01*
X126890005Y-58810000D01*
X126890000Y-58809999D01*
X126736926Y-58840448D01*
X126672042Y-58883802D01*
X126607157Y-58927157D01*
X126607155Y-58927160D01*
X125967157Y-59567157D01*
X125880448Y-59696926D01*
X125850000Y-59850000D01*
X125850000Y-65701513D01*
X125741641Y-65809683D01*
X125650104Y-66030129D01*
X125649896Y-66268824D01*
X125741048Y-66489429D01*
X125909683Y-66658359D01*
X126130129Y-66749896D01*
X126368824Y-66750104D01*
X126589429Y-66658952D01*
X126742000Y-66506647D01*
X126742000Y-66524000D01*
X126894000Y-66676000D01*
X128046000Y-66676000D01*
X128046000Y-66656000D01*
X128354000Y-66656000D01*
X128354000Y-66676000D01*
X128374000Y-66676000D01*
X128374000Y-66984000D01*
X128354000Y-66984000D01*
X128354000Y-68136000D01*
X128506000Y-68288000D01*
X129170939Y-68288000D01*
X129394405Y-68195437D01*
X129565438Y-68024404D01*
X129650000Y-67820252D01*
X129650000Y-77915998D01*
X129496890Y-77915998D01*
X129607903Y-77691090D01*
X129463477Y-77342384D01*
X129088854Y-76914259D01*
X128578911Y-76662085D01*
X128354002Y-76772143D01*
X128354002Y-76653848D01*
X128662616Y-76592461D01*
X129035703Y-76343173D01*
X129284991Y-75970086D01*
X129372530Y-75530000D01*
X129284991Y-75089914D01*
X129035703Y-74716827D01*
X128662616Y-74467539D01*
X128222530Y-74380000D01*
X128177470Y-74380000D01*
X127737384Y-74467539D01*
X127364297Y-74716827D01*
X127275000Y-74850470D01*
X127275000Y-74480686D01*
X127716907Y-74038779D01*
X127737384Y-74052461D01*
X128177470Y-74140000D01*
X128222530Y-74140000D01*
X128662616Y-74052461D01*
X129035703Y-73803173D01*
X129284991Y-73430086D01*
X129372530Y-72990000D01*
X129284991Y-72549914D01*
X129035703Y-72176827D01*
X128662616Y-71927539D01*
X128222530Y-71840000D01*
X128177470Y-71840000D01*
X127737384Y-71927539D01*
X127364297Y-72176827D01*
X127115009Y-72549914D01*
X127027470Y-72990000D01*
X127115009Y-73430086D01*
X127146740Y-73477574D01*
X126592157Y-74032157D01*
X126505448Y-74161926D01*
X126487320Y-74253064D01*
X126475000Y-74315000D01*
X126475000Y-74775639D01*
X126435703Y-74716827D01*
X126062616Y-74467539D01*
X125622530Y-74380000D01*
X125577470Y-74380000D01*
X125137384Y-74467539D01*
X124764297Y-74716827D01*
X124515009Y-75089914D01*
X124427470Y-75530000D01*
X124515009Y-75970086D01*
X124764297Y-76343173D01*
X125137384Y-76592461D01*
X125445998Y-76653848D01*
X125445998Y-76772143D01*
X125221089Y-76662085D01*
X124711146Y-76914259D01*
X124350000Y-77326982D01*
X124350000Y-72990000D01*
X124427470Y-72990000D01*
X124515009Y-73430086D01*
X124764297Y-73803173D01*
X125137384Y-74052461D01*
X125577470Y-74140000D01*
X125622530Y-74140000D01*
X126062616Y-74052461D01*
X126435703Y-73803173D01*
X126684991Y-73430086D01*
X126772530Y-72990000D01*
X126684991Y-72549914D01*
X126435703Y-72176827D01*
X126062616Y-71927539D01*
X125622530Y-71840000D01*
X125577470Y-71840000D01*
X125137384Y-71927539D01*
X124764297Y-72176827D01*
X124515009Y-72549914D01*
X124427470Y-72990000D01*
X124350000Y-72990000D01*
X124350000Y-69302643D01*
X124537258Y-69380399D01*
X124536721Y-69380745D01*
X124468222Y-69480997D01*
X124444123Y-69600000D01*
X124444123Y-71300000D01*
X124465042Y-71411173D01*
X124530745Y-71513279D01*
X124630997Y-71581778D01*
X124750000Y-71605877D01*
X126450000Y-71605877D01*
X126561173Y-71584958D01*
X126663279Y-71519255D01*
X126731778Y-71419003D01*
X126755877Y-71300000D01*
X126755877Y-69600000D01*
X127044123Y-69600000D01*
X127044123Y-71300000D01*
X127065042Y-71411173D01*
X127130745Y-71513279D01*
X127230997Y-71581778D01*
X127350000Y-71605877D01*
X129050000Y-71605877D01*
X129161173Y-71584958D01*
X129263279Y-71519255D01*
X129331778Y-71419003D01*
X129355877Y-71300000D01*
X129355877Y-69600000D01*
X129334958Y-69488827D01*
X129269255Y-69386721D01*
X129169003Y-69318222D01*
X129050000Y-69294123D01*
X127350000Y-69294123D01*
X127238827Y-69315042D01*
X127136721Y-69380745D01*
X127068222Y-69480997D01*
X127044123Y-69600000D01*
X126755877Y-69600000D01*
X126734958Y-69488827D01*
X126669255Y-69386721D01*
X126569003Y-69318222D01*
X126450000Y-69294123D01*
X125024266Y-69294123D01*
X125188359Y-69130317D01*
X125279896Y-68909871D01*
X125280104Y-68671176D01*
X125188952Y-68450571D01*
X125020317Y-68281641D01*
X125000000Y-68273205D01*
X125000000Y-67136000D01*
X126742000Y-67136000D01*
X126742000Y-67800938D01*
X126834562Y-68024404D01*
X127005595Y-68195437D01*
X127229061Y-68288000D01*
X127894000Y-68288000D01*
X128046000Y-68136000D01*
X128046000Y-66984000D01*
X126894000Y-66984000D01*
X126742000Y-67136000D01*
X125000000Y-67136000D01*
X125000000Y-60435686D01*
X127716907Y-57718779D01*
X127737384Y-57732461D01*
X128177470Y-57820000D01*
X128222530Y-57820000D01*
X128662616Y-57732461D01*
X129035703Y-57483173D01*
X129284991Y-57110086D01*
X129372530Y-56670000D01*
X129284991Y-56229914D01*
X129035703Y-55856827D01*
X128662616Y-55607539D01*
X128222530Y-55520000D01*
X128177470Y-55520000D01*
X127737384Y-55607539D01*
X127364297Y-55856827D01*
X127115009Y-56229914D01*
X127027470Y-56670000D01*
X127115009Y-57110086D01*
X127146740Y-57157574D01*
X124317157Y-59987157D01*
X124230448Y-60116926D01*
X124230448Y-60116927D01*
X124200000Y-60270000D01*
X124200000Y-65254138D01*
X124069871Y-65200104D01*
X123831176Y-65199896D01*
X123687835Y-65259123D01*
X123724896Y-65169871D01*
X123725104Y-64931176D01*
X123633952Y-64710571D01*
X123465317Y-64541641D01*
X123244871Y-64450104D01*
X123006176Y-64449896D01*
X122900000Y-64493767D01*
X122900000Y-57048487D01*
X123008359Y-56940317D01*
X123099896Y-56719871D01*
X123100104Y-56481176D01*
X123008952Y-56260571D01*
X122840317Y-56091641D01*
X122619871Y-56000104D01*
X122381176Y-55999896D01*
X122160571Y-56091048D01*
X121991641Y-56259683D01*
X121900104Y-56480129D01*
X121899896Y-56718824D01*
X121991048Y-56939429D01*
X122100000Y-57048572D01*
X122100000Y-71824900D01*
X121919871Y-71750104D01*
X121725127Y-71749934D01*
X121799896Y-71569871D01*
X121800104Y-71331176D01*
X121708952Y-71110571D01*
X121540317Y-70941641D01*
X121319871Y-70850104D01*
X121081176Y-70849896D01*
X120860571Y-70941048D01*
X120691641Y-71109683D01*
X120600104Y-71330129D01*
X120599896Y-71568824D01*
X120691048Y-71789429D01*
X120800000Y-71898572D01*
X120800000Y-73520924D01*
X120708952Y-73300571D01*
X120540317Y-73131641D01*
X120319871Y-73040104D01*
X120081176Y-73039896D01*
X119860571Y-73131048D01*
X119800000Y-73191513D01*
X119800000Y-67488417D01*
X119948359Y-67340317D01*
X120039896Y-67119871D01*
X120040104Y-66881176D01*
X119948952Y-66660571D01*
X119780317Y-66491641D01*
X119559871Y-66400104D01*
X119321176Y-66399896D01*
X119100571Y-66491048D01*
X118931641Y-66659683D01*
X118840104Y-66880129D01*
X118839896Y-67118824D01*
X118931048Y-67339429D01*
X119000000Y-67408502D01*
X119000000Y-79474756D01*
X118960571Y-79491048D01*
X118791641Y-79659683D01*
X118700104Y-79880129D01*
X118699896Y-80118824D01*
X118791048Y-80339429D01*
X118959683Y-80508359D01*
X119180129Y-80599896D01*
X119418824Y-80600104D01*
X119639429Y-80508952D01*
X119808359Y-80340317D01*
X119899896Y-80119871D01*
X119900104Y-79881176D01*
X119808952Y-79660571D01*
X119800000Y-79651603D01*
X119800000Y-79198397D01*
X119959683Y-79358359D01*
X120180129Y-79449896D01*
X120418824Y-79450104D01*
X120639429Y-79358952D01*
X120800000Y-79198661D01*
X120800000Y-79574756D01*
X120760571Y-79591048D01*
X120591641Y-79759683D01*
X120500104Y-79980129D01*
X120499896Y-80218824D01*
X120591048Y-80439429D01*
X120759683Y-80608359D01*
X120775000Y-80614719D01*
X120775000Y-88176601D01*
X120616641Y-88334683D01*
X120525104Y-88555129D01*
X120524896Y-88793824D01*
X120616048Y-89014429D01*
X120784683Y-89183359D01*
X121005129Y-89274896D01*
X121243824Y-89275104D01*
X121464429Y-89183952D01*
X121633359Y-89015317D01*
X121724896Y-88794871D01*
X121725104Y-88556176D01*
X121633952Y-88335571D01*
X121575000Y-88276516D01*
X121575000Y-82841624D01*
X121655129Y-82874896D01*
X121893824Y-82875104D01*
X122100000Y-82789914D01*
X122100000Y-95801601D01*
X121941641Y-95959683D01*
X121850104Y-96180129D01*
X121849896Y-96418824D01*
X121941048Y-96639429D01*
X122109683Y-96808359D01*
X122330129Y-96899896D01*
X122568824Y-96900104D01*
X122725000Y-96835573D01*
X122725000Y-99100000D01*
X122755448Y-99253074D01*
X122842157Y-99382843D01*
X123200029Y-99740715D01*
X123199896Y-99893824D01*
X123291048Y-100114429D01*
X123459683Y-100283359D01*
X123680129Y-100374896D01*
X123918824Y-100375104D01*
X124139429Y-100283952D01*
X124308359Y-100115317D01*
X124399896Y-99894871D01*
X124400104Y-99656176D01*
X124308952Y-99435571D01*
X124140317Y-99266641D01*
X123919871Y-99175104D01*
X123765656Y-99174970D01*
X123525000Y-98934314D01*
X123525000Y-81473528D01*
X123609683Y-81558359D01*
X123830129Y-81649896D01*
X124068824Y-81650104D01*
X124289429Y-81558952D01*
X124458359Y-81390317D01*
X124549896Y-81169871D01*
X124550104Y-80931176D01*
X124458952Y-80710571D01*
X124350000Y-80601428D01*
X124350000Y-78813018D01*
X124711146Y-79225741D01*
X125221089Y-79477915D01*
X125446000Y-79367856D01*
X125446000Y-78224000D01*
X125426000Y-78224000D01*
X125426000Y-77916000D01*
X125446000Y-77916000D01*
X125446000Y-77896000D01*
X125754000Y-77896000D01*
X125754000Y-77916000D01*
X125774000Y-77916000D01*
X125774000Y-78224000D01*
X125754000Y-78224000D01*
X125754000Y-79367856D01*
X125978911Y-79477915D01*
X126475000Y-79232592D01*
X126475000Y-96409314D01*
X126159285Y-96725029D01*
X126006176Y-96724896D01*
X125785571Y-96816048D01*
X125616641Y-96984683D01*
X125525104Y-97205129D01*
X125524896Y-97443824D01*
X125616048Y-97664429D01*
X125784683Y-97833359D01*
X126005129Y-97924896D01*
X126243824Y-97925104D01*
X126464429Y-97833952D01*
X126633359Y-97665317D01*
X126724896Y-97444871D01*
X126725030Y-97290656D01*
X126915686Y-97100000D01*
X127044123Y-97100000D01*
X127044123Y-98800000D01*
X127065042Y-98911173D01*
X127130745Y-99013279D01*
X127230997Y-99081778D01*
X127350000Y-99105877D01*
X129050000Y-99105877D01*
X129161173Y-99084958D01*
X129263279Y-99019255D01*
X129331778Y-98919003D01*
X129355877Y-98800000D01*
X129355877Y-97100000D01*
X129334958Y-96988827D01*
X129269255Y-96886721D01*
X129169003Y-96818222D01*
X129050000Y-96794123D01*
X127350000Y-96794123D01*
X127238827Y-96815042D01*
X127136721Y-96880745D01*
X127068222Y-96980997D01*
X127044123Y-97100000D01*
X126915686Y-97100000D01*
X127157843Y-96857843D01*
X127244552Y-96728074D01*
X127275000Y-96575000D01*
X127275000Y-95029530D01*
X127364297Y-95163173D01*
X127737384Y-95412461D01*
X128177470Y-95500000D01*
X128222530Y-95500000D01*
X128662616Y-95412461D01*
X129035703Y-95163173D01*
X129284991Y-94790086D01*
X129372530Y-94350000D01*
X129284991Y-93909914D01*
X129035703Y-93536827D01*
X128662616Y-93287539D01*
X128354002Y-93226152D01*
X128354002Y-93107857D01*
X128578911Y-93217915D01*
X129088854Y-92965741D01*
X129463477Y-92537616D01*
X129607903Y-92188910D01*
X129496890Y-91964002D01*
X129650000Y-91964002D01*
X129650000Y-102875998D01*
X129496890Y-102875998D01*
X129607903Y-102651090D01*
X129463477Y-102302384D01*
X129088854Y-101874259D01*
X128578911Y-101622085D01*
X128354002Y-101732143D01*
X128354002Y-101613848D01*
X128662616Y-101552461D01*
X129035703Y-101303173D01*
X129284991Y-100930086D01*
X129372530Y-100490000D01*
X129284991Y-100049914D01*
X129035703Y-99676827D01*
X128662616Y-99427539D01*
X128222530Y-99340000D01*
X128177470Y-99340000D01*
X127737384Y-99427539D01*
X127364297Y-99676827D01*
X127115009Y-100049914D01*
X127027470Y-100490000D01*
X127115009Y-100930086D01*
X127364297Y-101303173D01*
X127737384Y-101552461D01*
X128045998Y-101613848D01*
X128045998Y-101732143D01*
X127821089Y-101622085D01*
X127311146Y-101874259D01*
X126936523Y-102302384D01*
X126792097Y-102651090D01*
X126903111Y-102876000D01*
X128046000Y-102876000D01*
X128046000Y-102856000D01*
X128354000Y-102856000D01*
X128354000Y-102876000D01*
X128374000Y-102876000D01*
X128374000Y-103184000D01*
X128354000Y-103184000D01*
X128354000Y-103204000D01*
X128046000Y-103204000D01*
X128046000Y-103184000D01*
X126903111Y-103184000D01*
X126792097Y-103408910D01*
X126936523Y-103757616D01*
X127311146Y-104185741D01*
X127821089Y-104437915D01*
X128045998Y-104327857D01*
X128045998Y-104446152D01*
X127737384Y-104507539D01*
X127364297Y-104756827D01*
X127115009Y-105129914D01*
X127027470Y-105570000D01*
X127115009Y-106010086D01*
X127364297Y-106383173D01*
X127737384Y-106632461D01*
X128177470Y-106720000D01*
X128222530Y-106720000D01*
X128662616Y-106632461D01*
X129035703Y-106383173D01*
X129284991Y-106010086D01*
X129372530Y-105570000D01*
X129284991Y-105129914D01*
X129035703Y-104756827D01*
X128662616Y-104507539D01*
X128354002Y-104446152D01*
X128354002Y-104327857D01*
X128578911Y-104437915D01*
X129088854Y-104185741D01*
X129463477Y-103757616D01*
X129607903Y-103408910D01*
X129496890Y-103184002D01*
X129650000Y-103184002D01*
X129650000Y-114700000D01*
X80350000Y-114700000D01*
X80350000Y-111865615D01*
X80831114Y-113030001D01*
X81814821Y-114015425D01*
X83100753Y-114549391D01*
X84493139Y-114550606D01*
X85780001Y-114018886D01*
X86765425Y-113035179D01*
X87299391Y-111749247D01*
X87299932Y-111128910D01*
X115992097Y-111128910D01*
X116136523Y-111477616D01*
X116511146Y-111905741D01*
X117021089Y-112157915D01*
X117245998Y-112047857D01*
X117245998Y-112166152D01*
X116937384Y-112227539D01*
X116564297Y-112476827D01*
X116315009Y-112849914D01*
X116227470Y-113290000D01*
X116315009Y-113730086D01*
X116564297Y-114103173D01*
X116937384Y-114352461D01*
X117377470Y-114440000D01*
X117422530Y-114440000D01*
X117862616Y-114352461D01*
X118235703Y-114103173D01*
X118484991Y-113730086D01*
X118572530Y-113290000D01*
X118484991Y-112849914D01*
X118235703Y-112476827D01*
X117862616Y-112227539D01*
X117554002Y-112166152D01*
X117554002Y-112047857D01*
X117778911Y-112157915D01*
X118288854Y-111905741D01*
X118663477Y-111477616D01*
X118670000Y-111461867D01*
X118676523Y-111477616D01*
X119051146Y-111905741D01*
X119561089Y-112157915D01*
X119785998Y-112047857D01*
X119785998Y-112166152D01*
X119477384Y-112227539D01*
X119104297Y-112476827D01*
X118855009Y-112849914D01*
X118767470Y-113290000D01*
X118855009Y-113730086D01*
X119104297Y-114103173D01*
X119477384Y-114352461D01*
X119917470Y-114440000D01*
X119962530Y-114440000D01*
X120402616Y-114352461D01*
X120775703Y-114103173D01*
X121024991Y-113730086D01*
X121112530Y-113290000D01*
X121024991Y-112849914D01*
X120775703Y-112476827D01*
X120402616Y-112227539D01*
X120094002Y-112166152D01*
X120094002Y-112047857D01*
X120318911Y-112157915D01*
X120828854Y-111905741D01*
X120971135Y-111743139D01*
X122299394Y-111743139D01*
X122831114Y-113030001D01*
X123814821Y-114015425D01*
X125100753Y-114549391D01*
X126493139Y-114550606D01*
X127780001Y-114018886D01*
X128765425Y-113035179D01*
X129299391Y-111749247D01*
X129300606Y-110356861D01*
X128768886Y-109069999D01*
X127785179Y-108084575D01*
X126499247Y-107550609D01*
X125106861Y-107549394D01*
X123819999Y-108081114D01*
X122834575Y-109064821D01*
X122300609Y-110350753D01*
X122299394Y-111743139D01*
X120971135Y-111743139D01*
X121203477Y-111477616D01*
X121347903Y-111128910D01*
X121236889Y-110904000D01*
X120094000Y-110904000D01*
X120094000Y-110924000D01*
X119786000Y-110924000D01*
X119786000Y-110904000D01*
X117554000Y-110904000D01*
X117554000Y-110924000D01*
X117246000Y-110924000D01*
X117246000Y-110904000D01*
X116103111Y-110904000D01*
X115992097Y-111128910D01*
X87299932Y-111128910D01*
X87300593Y-110371090D01*
X115992097Y-110371090D01*
X116103111Y-110596000D01*
X117246000Y-110596000D01*
X117246000Y-110576000D01*
X117554000Y-110576000D01*
X117554000Y-110596000D01*
X119786000Y-110596000D01*
X119786000Y-110576000D01*
X120094000Y-110576000D01*
X120094000Y-110596000D01*
X121236889Y-110596000D01*
X121347903Y-110371090D01*
X121203477Y-110022384D01*
X120828854Y-109594259D01*
X120318911Y-109342085D01*
X120094002Y-109452143D01*
X120094002Y-109333848D01*
X120402616Y-109272461D01*
X120775703Y-109023173D01*
X121024991Y-108650086D01*
X121112530Y-108210000D01*
X121024991Y-107769914D01*
X120775703Y-107396827D01*
X120402616Y-107147539D01*
X119962530Y-107060000D01*
X119917470Y-107060000D01*
X119477384Y-107147539D01*
X119104297Y-107396827D01*
X118855009Y-107769914D01*
X118767470Y-108210000D01*
X118855009Y-108650086D01*
X119104297Y-109023173D01*
X119477384Y-109272461D01*
X119785998Y-109333848D01*
X119785998Y-109452143D01*
X119561089Y-109342085D01*
X119051146Y-109594259D01*
X118676523Y-110022384D01*
X118670000Y-110038133D01*
X118663477Y-110022384D01*
X118288854Y-109594259D01*
X117778911Y-109342085D01*
X117554002Y-109452143D01*
X117554002Y-109333848D01*
X117862616Y-109272461D01*
X118235703Y-109023173D01*
X118484991Y-108650086D01*
X118572530Y-108210000D01*
X118484991Y-107769914D01*
X118235703Y-107396827D01*
X117862616Y-107147539D01*
X117422530Y-107060000D01*
X117377470Y-107060000D01*
X116937384Y-107147539D01*
X116564297Y-107396827D01*
X116315009Y-107769914D01*
X116227470Y-108210000D01*
X116315009Y-108650086D01*
X116564297Y-109023173D01*
X116937384Y-109272461D01*
X117245998Y-109333848D01*
X117245998Y-109452143D01*
X117021089Y-109342085D01*
X116511146Y-109594259D01*
X116136523Y-110022384D01*
X115992097Y-110371090D01*
X87300593Y-110371090D01*
X87300606Y-110356861D01*
X86863802Y-109299713D01*
X91295489Y-109299713D01*
X91410137Y-109577182D01*
X91622241Y-109789657D01*
X91899510Y-109904789D01*
X92199733Y-109905051D01*
X92477202Y-109790403D01*
X92689677Y-109578299D01*
X92804809Y-109301030D01*
X92804810Y-109299713D01*
X95694769Y-109299713D01*
X95809417Y-109577182D01*
X96021521Y-109789657D01*
X96298790Y-109904789D01*
X96599013Y-109905051D01*
X96876482Y-109790403D01*
X97088957Y-109578299D01*
X97204089Y-109301030D01*
X97204351Y-109000807D01*
X97089703Y-108723338D01*
X96877599Y-108510863D01*
X96600330Y-108395731D01*
X96300107Y-108395469D01*
X96022638Y-108510117D01*
X95810163Y-108722221D01*
X95695031Y-108999490D01*
X95694769Y-109299713D01*
X92804810Y-109299713D01*
X92805071Y-109000807D01*
X92690423Y-108723338D01*
X92478319Y-108510863D01*
X92201050Y-108395731D01*
X91900827Y-108395469D01*
X91623358Y-108510117D01*
X91410883Y-108722221D01*
X91295751Y-108999490D01*
X91295489Y-109299713D01*
X86863802Y-109299713D01*
X86768886Y-109069999D01*
X85785179Y-108084575D01*
X84499247Y-107550609D01*
X83106861Y-107549394D01*
X81819999Y-108081114D01*
X80834575Y-109064821D01*
X80350000Y-110231806D01*
X80350000Y-105068824D01*
X89199896Y-105068824D01*
X89291048Y-105289429D01*
X89459683Y-105458359D01*
X89680129Y-105549896D01*
X89918824Y-105550104D01*
X90139429Y-105458952D01*
X90308359Y-105290317D01*
X90399896Y-105069871D01*
X90399918Y-105043824D01*
X92774896Y-105043824D01*
X92866048Y-105264429D01*
X93034683Y-105433359D01*
X93255129Y-105524896D01*
X93493824Y-105525104D01*
X93714429Y-105433952D01*
X93800024Y-105348506D01*
X93909683Y-105458357D01*
X94130129Y-105549894D01*
X94368824Y-105550102D01*
X94589429Y-105458950D01*
X94758359Y-105290315D01*
X94829568Y-105118824D01*
X95249896Y-105118824D01*
X95341048Y-105339429D01*
X95509683Y-105508359D01*
X95730129Y-105599896D01*
X95968824Y-105600104D01*
X96189429Y-105508952D01*
X96358359Y-105340317D01*
X96449896Y-105119871D01*
X96449940Y-105068822D01*
X98149896Y-105068822D01*
X98241048Y-105289427D01*
X98409683Y-105458357D01*
X98630129Y-105549894D01*
X98868824Y-105550102D01*
X99089429Y-105458950D01*
X99258359Y-105290315D01*
X99349896Y-105069869D01*
X99350104Y-104831174D01*
X99258952Y-104610569D01*
X99090317Y-104441639D01*
X98869871Y-104350102D01*
X98631176Y-104349894D01*
X98410571Y-104441046D01*
X98241641Y-104609681D01*
X98150104Y-104830127D01*
X98149896Y-105068822D01*
X96449940Y-105068822D01*
X96450104Y-104881176D01*
X96358952Y-104660571D01*
X96190317Y-104491641D01*
X95969871Y-104400104D01*
X95731176Y-104399896D01*
X95510571Y-104491048D01*
X95341641Y-104659683D01*
X95250104Y-104880129D01*
X95249896Y-105118824D01*
X94829568Y-105118824D01*
X94849896Y-105069869D01*
X94850104Y-104831174D01*
X94758952Y-104610569D01*
X94650000Y-104501426D01*
X94650000Y-99248397D01*
X94809683Y-99408359D01*
X95030129Y-99499896D01*
X95268824Y-99500104D01*
X95489429Y-99408952D01*
X95658359Y-99240317D01*
X95698426Y-99143824D01*
X97024896Y-99143824D01*
X97116048Y-99364429D01*
X97284683Y-99533359D01*
X97505129Y-99624896D01*
X97743824Y-99625104D01*
X97964429Y-99533952D01*
X98133359Y-99365317D01*
X98224896Y-99144871D01*
X98225104Y-98906176D01*
X98133952Y-98685571D01*
X98063733Y-98615229D01*
X98139429Y-98583952D01*
X98308359Y-98415317D01*
X98399896Y-98194871D01*
X98400104Y-97956176D01*
X98308952Y-97735571D01*
X98140317Y-97566641D01*
X97919871Y-97475104D01*
X97681176Y-97474896D01*
X97460571Y-97566048D01*
X97291641Y-97734683D01*
X97200104Y-97955129D01*
X97199896Y-98193824D01*
X97291048Y-98414429D01*
X97361267Y-98484771D01*
X97285571Y-98516048D01*
X97116641Y-98684683D01*
X97025104Y-98905129D01*
X97024896Y-99143824D01*
X95698426Y-99143824D01*
X95749896Y-99019871D01*
X95750104Y-98781176D01*
X95658952Y-98560571D01*
X95490317Y-98391641D01*
X95269871Y-98300104D01*
X95031176Y-98299896D01*
X94810571Y-98391048D01*
X94650000Y-98551339D01*
X94650000Y-94723443D01*
X94783359Y-94590317D01*
X94874896Y-94369871D01*
X94875104Y-94131176D01*
X94783952Y-93910571D01*
X94615317Y-93741641D01*
X94394871Y-93650104D01*
X94156176Y-93649896D01*
X93935571Y-93741048D01*
X93783362Y-93892991D01*
X93619871Y-93825104D01*
X93381176Y-93824896D01*
X93160571Y-93916048D01*
X92991641Y-94084683D01*
X92900104Y-94305129D01*
X92899896Y-94543824D01*
X92991048Y-94764429D01*
X93100000Y-94873572D01*
X93100000Y-104389427D01*
X93035571Y-104416048D01*
X92866641Y-104584683D01*
X92775104Y-104805129D01*
X92774896Y-105043824D01*
X90399918Y-105043824D01*
X90400104Y-104831176D01*
X90308952Y-104610571D01*
X90140317Y-104441641D01*
X89919871Y-104350104D01*
X89681176Y-104349896D01*
X89460571Y-104441048D01*
X89291641Y-104609683D01*
X89200104Y-104830129D01*
X89199896Y-105068824D01*
X80350000Y-105068824D01*
X80350000Y-104068824D01*
X86249896Y-104068824D01*
X86341048Y-104289429D01*
X86509683Y-104458359D01*
X86730129Y-104549896D01*
X86968824Y-104550104D01*
X87189429Y-104458952D01*
X87358359Y-104290317D01*
X87449896Y-104069871D01*
X87450104Y-103831176D01*
X87358952Y-103610571D01*
X87190317Y-103441641D01*
X86969871Y-103350104D01*
X86731176Y-103349896D01*
X86510571Y-103441048D01*
X86341641Y-103609683D01*
X86250104Y-103830129D01*
X86249896Y-104068824D01*
X80350000Y-104068824D01*
X80350000Y-97443824D01*
X89274896Y-97443824D01*
X89366048Y-97664429D01*
X89534683Y-97833359D01*
X89755129Y-97924896D01*
X89993824Y-97925104D01*
X90214429Y-97833952D01*
X90383359Y-97665317D01*
X90474896Y-97444871D01*
X90475104Y-97206176D01*
X90383952Y-96985571D01*
X90215317Y-96816641D01*
X89994871Y-96725104D01*
X89756176Y-96724896D01*
X89535571Y-96816048D01*
X89366641Y-96984683D01*
X89275104Y-97205129D01*
X89274896Y-97443824D01*
X80350000Y-97443824D01*
X80350000Y-96068824D01*
X85124896Y-96068824D01*
X85216048Y-96289429D01*
X85384683Y-96458359D01*
X85605129Y-96549896D01*
X85843824Y-96550104D01*
X86064429Y-96458952D01*
X86233359Y-96290317D01*
X86324896Y-96069871D01*
X86325104Y-95831176D01*
X86233952Y-95610571D01*
X86065317Y-95441641D01*
X85844871Y-95350104D01*
X85606176Y-95349896D01*
X85385571Y-95441048D01*
X85216641Y-95609683D01*
X85125104Y-95830129D01*
X85124896Y-96068824D01*
X80350000Y-96068824D01*
X80350000Y-93443824D01*
X90724896Y-93443824D01*
X90816048Y-93664429D01*
X90984683Y-93833359D01*
X91205129Y-93924896D01*
X91443824Y-93925104D01*
X91664429Y-93833952D01*
X91833359Y-93665317D01*
X91924896Y-93444871D01*
X91925104Y-93206176D01*
X91833952Y-92985571D01*
X91665317Y-92816641D01*
X91444871Y-92725104D01*
X91206176Y-92724896D01*
X90985571Y-92816048D01*
X90816641Y-92984683D01*
X90725104Y-93205129D01*
X90724896Y-93443824D01*
X80350000Y-93443824D01*
X80350000Y-91990000D01*
X80437470Y-91990000D01*
X80525009Y-92430086D01*
X80774297Y-92803173D01*
X81147384Y-93052461D01*
X81587470Y-93140000D01*
X81632530Y-93140000D01*
X82072616Y-93052461D01*
X82445703Y-92803173D01*
X82694991Y-92430086D01*
X82782530Y-91990000D01*
X82977470Y-91990000D01*
X83065009Y-92430086D01*
X83314297Y-92803173D01*
X83687384Y-93052461D01*
X84127470Y-93140000D01*
X84172530Y-93140000D01*
X84612616Y-93052461D01*
X84985703Y-92803173D01*
X85234991Y-92430086D01*
X85322530Y-91990000D01*
X85288481Y-91818824D01*
X93999896Y-91818824D01*
X94091048Y-92039429D01*
X94259683Y-92208359D01*
X94480129Y-92299896D01*
X94718824Y-92300104D01*
X94794527Y-92268824D01*
X99899896Y-92268824D01*
X99920000Y-92317479D01*
X99920000Y-105750000D01*
X99964150Y-105971956D01*
X100089878Y-106160122D01*
X100217735Y-106245553D01*
X102311091Y-108338909D01*
X102489524Y-108458134D01*
X102700000Y-108500000D01*
X104296053Y-108500000D01*
X104442795Y-108855143D01*
X104892489Y-109305623D01*
X105480344Y-109549722D01*
X106116863Y-109550277D01*
X106705143Y-109307205D01*
X107155623Y-108857511D01*
X107399722Y-108269656D01*
X107399905Y-108058824D01*
X112529896Y-108058824D01*
X112621048Y-108279429D01*
X112789683Y-108448359D01*
X113010129Y-108539896D01*
X113248824Y-108540104D01*
X113469429Y-108448952D01*
X113638359Y-108280317D01*
X113729896Y-108059871D01*
X113730104Y-107821176D01*
X113638952Y-107600571D01*
X113470317Y-107431641D01*
X113249871Y-107340104D01*
X113011176Y-107339896D01*
X112790571Y-107431048D01*
X112621641Y-107599683D01*
X112530104Y-107820129D01*
X112529896Y-108058824D01*
X107399905Y-108058824D01*
X107400277Y-107633137D01*
X107157205Y-107044857D01*
X106707511Y-106594377D01*
X106119656Y-106350278D01*
X105483137Y-106349723D01*
X104894857Y-106592795D01*
X104444377Y-107042489D01*
X104295925Y-107400000D01*
X102927818Y-107400000D01*
X101080000Y-105552182D01*
X101080000Y-92317786D01*
X101099896Y-92269871D01*
X101100104Y-92031176D01*
X101008952Y-91810571D01*
X100840317Y-91641641D01*
X100619871Y-91550104D01*
X100381176Y-91549896D01*
X100160571Y-91641048D01*
X99991641Y-91809683D01*
X99900104Y-92030129D01*
X99899896Y-92268824D01*
X94794527Y-92268824D01*
X94939429Y-92208952D01*
X95108359Y-92040317D01*
X95199896Y-91819871D01*
X95200104Y-91581176D01*
X95108952Y-91360571D01*
X94940317Y-91191641D01*
X94719871Y-91100104D01*
X94481176Y-91099896D01*
X94260571Y-91191048D01*
X94091641Y-91359683D01*
X94000104Y-91580129D01*
X93999896Y-91818824D01*
X85288481Y-91818824D01*
X85234991Y-91549914D01*
X84985703Y-91176827D01*
X84612616Y-90927539D01*
X84172530Y-90840000D01*
X84127470Y-90840000D01*
X83687384Y-90927539D01*
X83314297Y-91176827D01*
X83065009Y-91549914D01*
X82977470Y-91990000D01*
X82782530Y-91990000D01*
X82694991Y-91549914D01*
X82445703Y-91176827D01*
X82072616Y-90927539D01*
X81632530Y-90840000D01*
X81587470Y-90840000D01*
X81147384Y-90927539D01*
X80774297Y-91176827D01*
X80525009Y-91549914D01*
X80437470Y-91990000D01*
X80350000Y-91990000D01*
X80350000Y-89450000D01*
X80437470Y-89450000D01*
X80525009Y-89890086D01*
X80774297Y-90263173D01*
X81147384Y-90512461D01*
X81587470Y-90600000D01*
X81632530Y-90600000D01*
X82072616Y-90512461D01*
X82445703Y-90263173D01*
X82694991Y-89890086D01*
X82782530Y-89450000D01*
X82694991Y-89009914D01*
X82445703Y-88636827D01*
X82072616Y-88387539D01*
X81632530Y-88300000D01*
X81587470Y-88300000D01*
X81147384Y-88387539D01*
X80774297Y-88636827D01*
X80525009Y-89009914D01*
X80437470Y-89450000D01*
X80350000Y-89450000D01*
X80350000Y-86060000D01*
X80454123Y-86060000D01*
X80454123Y-87760000D01*
X80475042Y-87871173D01*
X80540745Y-87973279D01*
X80640997Y-88041778D01*
X80760000Y-88065877D01*
X82460000Y-88065877D01*
X82571173Y-88044958D01*
X82673279Y-87979255D01*
X82741778Y-87879003D01*
X82765877Y-87760000D01*
X82765877Y-87346325D01*
X82886523Y-87637616D01*
X83261146Y-88065741D01*
X83771089Y-88317915D01*
X83995998Y-88207857D01*
X83995998Y-88326152D01*
X83687384Y-88387539D01*
X83314297Y-88636827D01*
X83065009Y-89009914D01*
X82977470Y-89450000D01*
X83065009Y-89890086D01*
X83314297Y-90263173D01*
X83687384Y-90512461D01*
X84127470Y-90600000D01*
X84172530Y-90600000D01*
X84612616Y-90512461D01*
X84985703Y-90263173D01*
X85234991Y-89890086D01*
X85322530Y-89450000D01*
X85234991Y-89009914D01*
X84985703Y-88636827D01*
X84612616Y-88387539D01*
X84304002Y-88326152D01*
X84304002Y-88207857D01*
X84528911Y-88317915D01*
X85038854Y-88065741D01*
X85413477Y-87637616D01*
X85557903Y-87288910D01*
X85446889Y-87064000D01*
X84304000Y-87064000D01*
X84304000Y-87084000D01*
X83996000Y-87084000D01*
X83996000Y-87064000D01*
X83976000Y-87064000D01*
X83976000Y-86756000D01*
X83996000Y-86756000D01*
X83996000Y-85612144D01*
X84304000Y-85612144D01*
X84304000Y-86756000D01*
X85446889Y-86756000D01*
X85557903Y-86531090D01*
X85413477Y-86182384D01*
X85038854Y-85754259D01*
X84528911Y-85502085D01*
X84304000Y-85612144D01*
X83996000Y-85612144D01*
X83771089Y-85502085D01*
X83261146Y-85754259D01*
X82886523Y-86182384D01*
X82765877Y-86473675D01*
X82765877Y-86060000D01*
X82744958Y-85948827D01*
X82679255Y-85846721D01*
X82579003Y-85778222D01*
X82460000Y-85754123D01*
X80760000Y-85754123D01*
X80648827Y-85775042D01*
X80546721Y-85840745D01*
X80478222Y-85940997D01*
X80454123Y-86060000D01*
X80350000Y-86060000D01*
X80350000Y-82595686D01*
X80556740Y-82802426D01*
X80525009Y-82849914D01*
X80437470Y-83290000D01*
X80525009Y-83730086D01*
X80774297Y-84103173D01*
X81147384Y-84352461D01*
X81587470Y-84440000D01*
X81632530Y-84440000D01*
X82072616Y-84352461D01*
X82445703Y-84103173D01*
X82694991Y-83730086D01*
X82782530Y-83290000D01*
X82977470Y-83290000D01*
X83065009Y-83730086D01*
X83314297Y-84103173D01*
X83687384Y-84352461D01*
X84127470Y-84440000D01*
X84172530Y-84440000D01*
X84612616Y-84352461D01*
X84985703Y-84103173D01*
X85234991Y-83730086D01*
X85322530Y-83290000D01*
X85234991Y-82849914D01*
X84985703Y-82476827D01*
X84612616Y-82227539D01*
X84172530Y-82140000D01*
X84127470Y-82140000D01*
X83687384Y-82227539D01*
X83314297Y-82476827D01*
X83065009Y-82849914D01*
X82977470Y-83290000D01*
X82782530Y-83290000D01*
X82694991Y-82849914D01*
X82445703Y-82476827D01*
X82072616Y-82227539D01*
X81632530Y-82140000D01*
X81587470Y-82140000D01*
X81147384Y-82227539D01*
X81126907Y-82241221D01*
X80700000Y-81814314D01*
X80700000Y-81451979D01*
X80774297Y-81563173D01*
X81147384Y-81812461D01*
X81587470Y-81900000D01*
X81632530Y-81900000D01*
X82072616Y-81812461D01*
X82445703Y-81563173D01*
X82694991Y-81190086D01*
X82782530Y-80750000D01*
X82694991Y-80309914D01*
X82445703Y-79936827D01*
X82072616Y-79687539D01*
X81632530Y-79600000D01*
X81587470Y-79600000D01*
X81147384Y-79687539D01*
X80774297Y-79936827D01*
X80700000Y-80048021D01*
X80700000Y-79353727D01*
X80760000Y-79365877D01*
X82460000Y-79365877D01*
X82571173Y-79344958D01*
X82673279Y-79279255D01*
X82741778Y-79179003D01*
X82765877Y-79060000D01*
X82765877Y-78646325D01*
X82886523Y-78937616D01*
X83261146Y-79365741D01*
X83771089Y-79617915D01*
X83995998Y-79507857D01*
X83995998Y-79626152D01*
X83687384Y-79687539D01*
X83314297Y-79936827D01*
X83065009Y-80309914D01*
X82977470Y-80750000D01*
X83065009Y-81190086D01*
X83314297Y-81563173D01*
X83687384Y-81812461D01*
X84127470Y-81900000D01*
X84172530Y-81900000D01*
X84612616Y-81812461D01*
X84985703Y-81563173D01*
X85234991Y-81190086D01*
X85322530Y-80750000D01*
X85234991Y-80309914D01*
X84985703Y-79936827D01*
X84612616Y-79687539D01*
X84304002Y-79626152D01*
X84304002Y-79507857D01*
X84528911Y-79617915D01*
X85038854Y-79365741D01*
X85413477Y-78937616D01*
X85557903Y-78588910D01*
X85446889Y-78364000D01*
X84304000Y-78364000D01*
X84304000Y-78384000D01*
X83996000Y-78384000D01*
X83996000Y-78364000D01*
X83976000Y-78364000D01*
X83976000Y-78056000D01*
X83996000Y-78056000D01*
X83996000Y-76912144D01*
X84304000Y-76912144D01*
X84304000Y-78056000D01*
X85446889Y-78056000D01*
X85557903Y-77831090D01*
X85413477Y-77482384D01*
X85038854Y-77054259D01*
X84528911Y-76802085D01*
X84304000Y-76912144D01*
X83996000Y-76912144D01*
X83771089Y-76802085D01*
X83261146Y-77054259D01*
X82886523Y-77482384D01*
X82765877Y-77773675D01*
X82765877Y-77360000D01*
X82744958Y-77248827D01*
X82679255Y-77146721D01*
X82579003Y-77078222D01*
X82460000Y-77054123D01*
X80760000Y-77054123D01*
X80700000Y-77065413D01*
X80700000Y-74618824D01*
X88699896Y-74618824D01*
X88791048Y-74839429D01*
X88959683Y-75008359D01*
X89180129Y-75099896D01*
X89418824Y-75100104D01*
X89639429Y-75008952D01*
X89700000Y-74948487D01*
X89700000Y-87801513D01*
X89591641Y-87909683D01*
X89500104Y-88130129D01*
X89499896Y-88368824D01*
X89591048Y-88589429D01*
X89759683Y-88758359D01*
X89980129Y-88849896D01*
X90218824Y-88850104D01*
X90439429Y-88758952D01*
X90608359Y-88590317D01*
X90699896Y-88369871D01*
X90700104Y-88131176D01*
X90608952Y-87910571D01*
X90500000Y-87801428D01*
X90500000Y-72098557D01*
X90568359Y-72030317D01*
X90659896Y-71809871D01*
X90660104Y-71571176D01*
X90568952Y-71350571D01*
X90400317Y-71181641D01*
X90179871Y-71090104D01*
X89941176Y-71089896D01*
X89720571Y-71181048D01*
X89551641Y-71349683D01*
X89460104Y-71570129D01*
X89459896Y-71808824D01*
X89551048Y-72029429D01*
X89700000Y-72178642D01*
X89700000Y-74051428D01*
X89640317Y-73991641D01*
X89419871Y-73900104D01*
X89181176Y-73899896D01*
X88960571Y-73991048D01*
X88791641Y-74159683D01*
X88700104Y-74380129D01*
X88699896Y-74618824D01*
X80700000Y-74618824D01*
X80700000Y-72748487D01*
X80808359Y-72640317D01*
X80899896Y-72419871D01*
X80900104Y-72181176D01*
X80808952Y-71960571D01*
X80640317Y-71791641D01*
X80419871Y-71700104D01*
X80350000Y-71700043D01*
X80350000Y-69293824D01*
X90299896Y-69293824D01*
X90391048Y-69514429D01*
X90559683Y-69683359D01*
X90780129Y-69774896D01*
X91018824Y-69775104D01*
X91239429Y-69683952D01*
X91333110Y-69590434D01*
X91275104Y-69730129D01*
X91274896Y-69968824D01*
X91350000Y-70150590D01*
X91350000Y-89001601D01*
X91191641Y-89159683D01*
X91100104Y-89380129D01*
X91099896Y-89618824D01*
X91191048Y-89839429D01*
X91359683Y-90008359D01*
X91580129Y-90099896D01*
X91818824Y-90100104D01*
X92039429Y-90008952D01*
X92208359Y-89840317D01*
X92299896Y-89619871D01*
X92300104Y-89381176D01*
X92208952Y-89160571D01*
X92150000Y-89101516D01*
X92150000Y-88643824D01*
X96374896Y-88643824D01*
X96466048Y-88864429D01*
X96634683Y-89033359D01*
X96855129Y-89124896D01*
X97093824Y-89125104D01*
X97314429Y-89033952D01*
X97483359Y-88865317D01*
X97574896Y-88644871D01*
X97575104Y-88406176D01*
X97483952Y-88185571D01*
X97315317Y-88016641D01*
X97094871Y-87925104D01*
X96856176Y-87924896D01*
X96635571Y-88016048D01*
X96466641Y-88184683D01*
X96375104Y-88405129D01*
X96374896Y-88643824D01*
X92150000Y-88643824D01*
X92150000Y-87468824D01*
X92499894Y-87468824D01*
X92591046Y-87689429D01*
X92759681Y-87858359D01*
X92980127Y-87949896D01*
X93218822Y-87950104D01*
X93439427Y-87858952D01*
X93608357Y-87690317D01*
X93699894Y-87469871D01*
X93700102Y-87231176D01*
X93608950Y-87010571D01*
X93440315Y-86841641D01*
X93219869Y-86750104D01*
X92981174Y-86749896D01*
X92760569Y-86841048D01*
X92591639Y-87009683D01*
X92500102Y-87230129D01*
X92499894Y-87468824D01*
X92150000Y-87468824D01*
X92150000Y-77018824D01*
X93149896Y-77018824D01*
X93241048Y-77239429D01*
X93409683Y-77408359D01*
X93630129Y-77499896D01*
X93868824Y-77500104D01*
X94089429Y-77408952D01*
X94258359Y-77240317D01*
X94349896Y-77019871D01*
X94350104Y-76781176D01*
X94258952Y-76560571D01*
X94090317Y-76391641D01*
X93869871Y-76300104D01*
X93631176Y-76299896D01*
X93410571Y-76391048D01*
X93241641Y-76559683D01*
X93150104Y-76780129D01*
X93149896Y-77018824D01*
X92150000Y-77018824D01*
X92150000Y-73218824D01*
X92349896Y-73218824D01*
X92441048Y-73439429D01*
X92609683Y-73608359D01*
X92830129Y-73699896D01*
X93068824Y-73700104D01*
X93289429Y-73608952D01*
X93458359Y-73440317D01*
X93549896Y-73219871D01*
X93550104Y-72981176D01*
X93458952Y-72760571D01*
X93290317Y-72591641D01*
X93259451Y-72578824D01*
X93409896Y-72578824D01*
X93501048Y-72799429D01*
X93669683Y-72968359D01*
X93890129Y-73059896D01*
X94128824Y-73060104D01*
X94190000Y-73034827D01*
X94190000Y-74041531D01*
X94071641Y-74159683D01*
X93980104Y-74380129D01*
X93979896Y-74618824D01*
X94071048Y-74839429D01*
X94239683Y-75008359D01*
X94460129Y-75099896D01*
X94698824Y-75100104D01*
X94919429Y-75008952D01*
X94970000Y-74958469D01*
X94970000Y-85014314D01*
X94884285Y-85100029D01*
X94731176Y-85099896D01*
X94510571Y-85191048D01*
X94341641Y-85359683D01*
X94250104Y-85580129D01*
X94249896Y-85818824D01*
X94341048Y-86039429D01*
X94509683Y-86208359D01*
X94730129Y-86299896D01*
X94968824Y-86300104D01*
X95189429Y-86208952D01*
X95358359Y-86040317D01*
X95449896Y-85819871D01*
X95450030Y-85665656D01*
X95652843Y-85462843D01*
X95739552Y-85333074D01*
X95770000Y-85180000D01*
X95770000Y-82150948D01*
X95960129Y-82229896D01*
X96198824Y-82230104D01*
X96419429Y-82138952D01*
X96588359Y-81970317D01*
X96679896Y-81749871D01*
X96680048Y-81574961D01*
X96843824Y-81575104D01*
X97064429Y-81483952D01*
X97233359Y-81315317D01*
X97324896Y-81094871D01*
X97325104Y-80856176D01*
X97233952Y-80635571D01*
X97100000Y-80501385D01*
X97100000Y-79881243D01*
X97205129Y-79924896D01*
X97443824Y-79925104D01*
X97610081Y-79856408D01*
X97609896Y-80068824D01*
X97701048Y-80289429D01*
X97869683Y-80458359D01*
X98090129Y-80549896D01*
X98328824Y-80550104D01*
X98549429Y-80458952D01*
X98549990Y-80458392D01*
X98549990Y-87189990D01*
X98580438Y-87343064D01*
X98667147Y-87472833D01*
X100520029Y-89325715D01*
X100519896Y-89478824D01*
X100611048Y-89699429D01*
X100779683Y-89868359D01*
X101000129Y-89959896D01*
X101238824Y-89960104D01*
X101459429Y-89868952D01*
X101628359Y-89700317D01*
X101719896Y-89479871D01*
X101720104Y-89241176D01*
X101628952Y-89020571D01*
X101460317Y-88851641D01*
X101239871Y-88760104D01*
X101085655Y-88759970D01*
X99349990Y-87024304D01*
X99349990Y-83698387D01*
X99509683Y-83858359D01*
X99730129Y-83949896D01*
X99968824Y-83950104D01*
X100189429Y-83858952D01*
X100358359Y-83690317D01*
X100388224Y-83618393D01*
X100401048Y-83649429D01*
X100569683Y-83818359D01*
X100790129Y-83909896D01*
X101028824Y-83910104D01*
X101249429Y-83818952D01*
X101418359Y-83650317D01*
X101450000Y-83574117D01*
X101450000Y-83751513D01*
X101341641Y-83859683D01*
X101250104Y-84080129D01*
X101249896Y-84318824D01*
X101341048Y-84539429D01*
X101509683Y-84708359D01*
X101730129Y-84799896D01*
X101968824Y-84800104D01*
X102189429Y-84708952D01*
X102358359Y-84540317D01*
X102449896Y-84319871D01*
X102450104Y-84081176D01*
X102358952Y-83860571D01*
X102250000Y-83751428D01*
X102250000Y-71598487D01*
X102358359Y-71490317D01*
X102449896Y-71269871D01*
X102450104Y-71031176D01*
X102358952Y-70810571D01*
X102190317Y-70641641D01*
X101969871Y-70550104D01*
X101731176Y-70549896D01*
X101510571Y-70641048D01*
X101341641Y-70809683D01*
X101250104Y-71030129D01*
X101250062Y-71078316D01*
X101109871Y-71020104D01*
X100871176Y-71019896D01*
X100650571Y-71111048D01*
X100481641Y-71279683D01*
X100390104Y-71500129D01*
X100389896Y-71738824D01*
X100481048Y-71959429D01*
X100600000Y-72078589D01*
X100600000Y-73111358D01*
X100580317Y-73091641D01*
X100359871Y-73000104D01*
X100121176Y-72999896D01*
X99900571Y-73091048D01*
X99754938Y-73236427D01*
X99660317Y-73141641D01*
X99439871Y-73050104D01*
X99201176Y-73049896D01*
X98980571Y-73141048D01*
X98910016Y-73211480D01*
X98830317Y-73131641D01*
X98609871Y-73040104D01*
X98371176Y-73039896D01*
X98150571Y-73131048D01*
X97981641Y-73299683D01*
X97890104Y-73520129D01*
X97889896Y-73758824D01*
X97981048Y-73979429D01*
X98149683Y-74148359D01*
X98370129Y-74239896D01*
X98524344Y-74240030D01*
X98549990Y-74265676D01*
X98549990Y-75683372D01*
X98469871Y-75650104D01*
X98231176Y-75649896D01*
X98010571Y-75741048D01*
X97841641Y-75909683D01*
X97750104Y-76130129D01*
X97749896Y-76368824D01*
X97841048Y-76589429D01*
X97903967Y-76652458D01*
X97810571Y-76691048D01*
X97700000Y-76801426D01*
X97700000Y-74000005D01*
X97700001Y-74000000D01*
X97669552Y-73846926D01*
X97582843Y-73717157D01*
X97549971Y-73684285D01*
X97550104Y-73531176D01*
X97458952Y-73310571D01*
X97290317Y-73141641D01*
X97069871Y-73050104D01*
X96831176Y-73049896D01*
X96610571Y-73141048D01*
X96539990Y-73211506D01*
X96430317Y-73101641D01*
X96209871Y-73010104D01*
X95971176Y-73009896D01*
X95770000Y-73093020D01*
X95770000Y-72911771D01*
X95849429Y-72878952D01*
X96018359Y-72710317D01*
X96109896Y-72489871D01*
X96110104Y-72251176D01*
X96018952Y-72030571D01*
X95850317Y-71861641D01*
X95629871Y-71770104D01*
X95620000Y-71770095D01*
X95620000Y-70118487D01*
X95728359Y-70010317D01*
X95819896Y-69789871D01*
X95820104Y-69551176D01*
X95728952Y-69330571D01*
X95560317Y-69161641D01*
X95339871Y-69070104D01*
X95101176Y-69069896D01*
X94880571Y-69161048D01*
X94711641Y-69329683D01*
X94620104Y-69550129D01*
X94619896Y-69788824D01*
X94660821Y-69887870D01*
X94569871Y-69850104D01*
X94331176Y-69849896D01*
X94110571Y-69941048D01*
X93941641Y-70109683D01*
X93850104Y-70330129D01*
X93849896Y-70568824D01*
X93941048Y-70789429D01*
X94109683Y-70958359D01*
X94190000Y-70991709D01*
X94190000Y-71885072D01*
X94129871Y-71860104D01*
X93891176Y-71859896D01*
X93670571Y-71951048D01*
X93501641Y-72119683D01*
X93410104Y-72340129D01*
X93409896Y-72578824D01*
X93259451Y-72578824D01*
X93069871Y-72500104D01*
X92831176Y-72499896D01*
X92610571Y-72591048D01*
X92441641Y-72759683D01*
X92350104Y-72980129D01*
X92349896Y-73218824D01*
X92150000Y-73218824D01*
X92150000Y-70385573D01*
X92214429Y-70358952D01*
X92383359Y-70190317D01*
X92474896Y-69969871D01*
X92475104Y-69731176D01*
X92383952Y-69510571D01*
X92215317Y-69341641D01*
X91994871Y-69250104D01*
X91756176Y-69249896D01*
X91535571Y-69341048D01*
X91441890Y-69434566D01*
X91499896Y-69294871D01*
X91500104Y-69056176D01*
X91408952Y-68835571D01*
X91392235Y-68818824D01*
X93649896Y-68818824D01*
X93741048Y-69039429D01*
X93909683Y-69208359D01*
X94130129Y-69299896D01*
X94368824Y-69300104D01*
X94589429Y-69208952D01*
X94758359Y-69040317D01*
X94849896Y-68819871D01*
X94850104Y-68581176D01*
X94758952Y-68360571D01*
X94590317Y-68191641D01*
X94369871Y-68100104D01*
X94131176Y-68099896D01*
X93910571Y-68191048D01*
X93741641Y-68359683D01*
X93650104Y-68580129D01*
X93649896Y-68818824D01*
X91392235Y-68818824D01*
X91240317Y-68666641D01*
X91019871Y-68575104D01*
X90781176Y-68574896D01*
X90560571Y-68666048D01*
X90391641Y-68834683D01*
X90300104Y-69055129D01*
X90299896Y-69293824D01*
X80350000Y-69293824D01*
X80350000Y-59258824D01*
X87129896Y-59258824D01*
X87221048Y-59479429D01*
X87389683Y-59648359D01*
X87600000Y-59735690D01*
X87600000Y-65841513D01*
X87491641Y-65949683D01*
X87400104Y-66170129D01*
X87399896Y-66408824D01*
X87491048Y-66629429D01*
X87659683Y-66798359D01*
X87880129Y-66889896D01*
X88118824Y-66890104D01*
X88339429Y-66798952D01*
X88508359Y-66630317D01*
X88599896Y-66409871D01*
X88600104Y-66171176D01*
X88508952Y-65950571D01*
X88477261Y-65918824D01*
X90474896Y-65918824D01*
X90566048Y-66139429D01*
X90734683Y-66308359D01*
X90955129Y-66399896D01*
X91169956Y-66400083D01*
X91169896Y-66468824D01*
X91261048Y-66689429D01*
X91429683Y-66858359D01*
X91650129Y-66949896D01*
X91888824Y-66950104D01*
X92109429Y-66858952D01*
X92278359Y-66690317D01*
X92369896Y-66469871D01*
X92370104Y-66231176D01*
X92278952Y-66010571D01*
X92262235Y-65993824D01*
X95074896Y-65993824D01*
X95166048Y-66214429D01*
X95334683Y-66383359D01*
X95555129Y-66474896D01*
X95793824Y-66475104D01*
X96014429Y-66383952D01*
X96183359Y-66215317D01*
X96274896Y-65994871D01*
X96275104Y-65756176D01*
X96183952Y-65535571D01*
X96015317Y-65366641D01*
X95794871Y-65275104D01*
X95556176Y-65274896D01*
X95335571Y-65366048D01*
X95166641Y-65534683D01*
X95075104Y-65755129D01*
X95074896Y-65993824D01*
X92262235Y-65993824D01*
X92110317Y-65841641D01*
X91889871Y-65750104D01*
X91675044Y-65749917D01*
X91675104Y-65681176D01*
X91583952Y-65460571D01*
X91415317Y-65291641D01*
X91194871Y-65200104D01*
X90956176Y-65199896D01*
X90735571Y-65291048D01*
X90566641Y-65459683D01*
X90475104Y-65680129D01*
X90474896Y-65918824D01*
X88477261Y-65918824D01*
X88400000Y-65841428D01*
X88400000Y-65068824D01*
X97199896Y-65068824D01*
X97291048Y-65289429D01*
X97459683Y-65458359D01*
X97680129Y-65549896D01*
X97918824Y-65550104D01*
X98139429Y-65458952D01*
X98308359Y-65290317D01*
X98399896Y-65069871D01*
X98400104Y-64831176D01*
X98308952Y-64610571D01*
X98140317Y-64441641D01*
X97919871Y-64350104D01*
X97681176Y-64349896D01*
X97460571Y-64441048D01*
X97291641Y-64609683D01*
X97200104Y-64830129D01*
X97199896Y-65068824D01*
X88400000Y-65068824D01*
X88400000Y-59140000D01*
X88369552Y-58986927D01*
X88282843Y-58857157D01*
X88254511Y-58838226D01*
X88238952Y-58800571D01*
X88070317Y-58631641D01*
X87849871Y-58540104D01*
X87611176Y-58539896D01*
X87390571Y-58631048D01*
X87221641Y-58799683D01*
X87130104Y-59020129D01*
X87129896Y-59258824D01*
X80350000Y-59258824D01*
X80350000Y-54268824D01*
X88649896Y-54268824D01*
X88741048Y-54489429D01*
X88909683Y-54658359D01*
X89130129Y-54749896D01*
X89284345Y-54750030D01*
X89850000Y-55315685D01*
X89850000Y-63201513D01*
X89741641Y-63309683D01*
X89650104Y-63530129D01*
X89649896Y-63768824D01*
X89741048Y-63989429D01*
X89909683Y-64158359D01*
X90130129Y-64249896D01*
X90368824Y-64250104D01*
X90589429Y-64158952D01*
X90758359Y-63990317D01*
X90849896Y-63769871D01*
X90850104Y-63531176D01*
X90762363Y-63318824D01*
X90849896Y-63318824D01*
X90941048Y-63539429D01*
X91109683Y-63708359D01*
X91330129Y-63799896D01*
X91568824Y-63800104D01*
X91789429Y-63708952D01*
X91958359Y-63540317D01*
X92049896Y-63319871D01*
X92050104Y-63081176D01*
X91958952Y-62860571D01*
X91790317Y-62691641D01*
X91569871Y-62600104D01*
X91331176Y-62599896D01*
X91110571Y-62691048D01*
X90941641Y-62859683D01*
X90850104Y-63080129D01*
X90849896Y-63318824D01*
X90762363Y-63318824D01*
X90758952Y-63310571D01*
X90650000Y-63201428D01*
X90650000Y-62418830D01*
X97349896Y-62418830D01*
X97441048Y-62639435D01*
X97609683Y-62808365D01*
X97830129Y-62899902D01*
X98068824Y-62900110D01*
X98289429Y-62808958D01*
X98458359Y-62640323D01*
X98549896Y-62419877D01*
X98550049Y-62243824D01*
X98649896Y-62243824D01*
X98741048Y-62464429D01*
X98909683Y-62633359D01*
X99130129Y-62724896D01*
X99368824Y-62725104D01*
X99550000Y-62650244D01*
X99550000Y-63701507D01*
X99441635Y-63809683D01*
X99350098Y-64030129D01*
X99349890Y-64268824D01*
X99441042Y-64489429D01*
X99609677Y-64658359D01*
X99830123Y-64749896D01*
X100068818Y-64750104D01*
X100289423Y-64658952D01*
X100450129Y-64498526D01*
X100609683Y-64658359D01*
X100830129Y-64749896D01*
X101068824Y-64750104D01*
X101289429Y-64658952D01*
X101458359Y-64490317D01*
X101549896Y-64269871D01*
X101550104Y-64031176D01*
X101539135Y-64004628D01*
X101550001Y-63950000D01*
X101550000Y-63949995D01*
X101550000Y-61445862D01*
X101680129Y-61499896D01*
X101918824Y-61500104D01*
X102139429Y-61408952D01*
X102150000Y-61398399D01*
X102150000Y-69151513D01*
X102041641Y-69259683D01*
X101950104Y-69480129D01*
X101949896Y-69718824D01*
X102041048Y-69939429D01*
X102209683Y-70108359D01*
X102430129Y-70199896D01*
X102668824Y-70200104D01*
X102889429Y-70108952D01*
X102900000Y-70098399D01*
X102900000Y-74009315D01*
X102767157Y-74142157D01*
X102680448Y-74271926D01*
X102654973Y-74400001D01*
X102650000Y-74425000D01*
X102650000Y-88834314D01*
X101859971Y-88044285D01*
X101860053Y-87950009D01*
X101968824Y-87950104D01*
X102189429Y-87858952D01*
X102358359Y-87690317D01*
X102449896Y-87469871D01*
X102450104Y-87231176D01*
X102358952Y-87010571D01*
X102190317Y-86841641D01*
X101969871Y-86750104D01*
X101731176Y-86749896D01*
X101510571Y-86841048D01*
X101341641Y-87009683D01*
X101250104Y-87230129D01*
X101249947Y-87409991D01*
X101141176Y-87409896D01*
X100920571Y-87501048D01*
X100751641Y-87669683D01*
X100660104Y-87890129D01*
X100659896Y-88128824D01*
X100751048Y-88349429D01*
X100919683Y-88518359D01*
X101140129Y-88609896D01*
X101294344Y-88610030D01*
X102200000Y-89515686D01*
X102200000Y-105551601D01*
X102041641Y-105709683D01*
X101950104Y-105930129D01*
X101949896Y-106168824D01*
X102041048Y-106389429D01*
X102209683Y-106558359D01*
X102430129Y-106649896D01*
X102668824Y-106650104D01*
X102889429Y-106558952D01*
X103058359Y-106390317D01*
X103149896Y-106169871D01*
X103150104Y-105931176D01*
X103058952Y-105710571D01*
X103000000Y-105651516D01*
X103000000Y-105266863D01*
X108899723Y-105266863D01*
X109142795Y-105855143D01*
X109592489Y-106305623D01*
X110180344Y-106549722D01*
X110816863Y-106550277D01*
X111405143Y-106307205D01*
X111855623Y-105857511D01*
X112099722Y-105269656D01*
X112100114Y-104820000D01*
X116244123Y-104820000D01*
X116244123Y-106520000D01*
X116265042Y-106631173D01*
X116330745Y-106733279D01*
X116430997Y-106801778D01*
X116550000Y-106825877D01*
X118250000Y-106825877D01*
X118361173Y-106804958D01*
X118463279Y-106739255D01*
X118531778Y-106639003D01*
X118555877Y-106520000D01*
X118555877Y-105670000D01*
X118767470Y-105670000D01*
X118855009Y-106110086D01*
X119104297Y-106483173D01*
X119477384Y-106732461D01*
X119917470Y-106820000D01*
X119962530Y-106820000D01*
X120402616Y-106732461D01*
X120775703Y-106483173D01*
X121024991Y-106110086D01*
X121112530Y-105670000D01*
X121024991Y-105229914D01*
X120775703Y-104856827D01*
X120402616Y-104607539D01*
X119962530Y-104520000D01*
X119917470Y-104520000D01*
X119477384Y-104607539D01*
X119104297Y-104856827D01*
X118855009Y-105229914D01*
X118767470Y-105670000D01*
X118555877Y-105670000D01*
X118555877Y-104820000D01*
X118534958Y-104708827D01*
X118469255Y-104606721D01*
X118369003Y-104538222D01*
X118250000Y-104514123D01*
X116550000Y-104514123D01*
X116438827Y-104535042D01*
X116336721Y-104600745D01*
X116268222Y-104700997D01*
X116244123Y-104820000D01*
X112100114Y-104820000D01*
X112100277Y-104633137D01*
X111857205Y-104044857D01*
X111407511Y-103594377D01*
X110819656Y-103350278D01*
X110183137Y-103349723D01*
X109594857Y-103592795D01*
X109144377Y-104042489D01*
X108900278Y-104630344D01*
X108899723Y-105266863D01*
X103000000Y-105266863D01*
X103000000Y-102266863D01*
X104199723Y-102266863D01*
X104442795Y-102855143D01*
X104892489Y-103305623D01*
X105480344Y-103549722D01*
X106116863Y-103550277D01*
X106705143Y-103307205D01*
X107155623Y-102857511D01*
X107399722Y-102269656D01*
X107400277Y-101633137D01*
X107157205Y-101044857D01*
X106707511Y-100594377D01*
X106119656Y-100350278D01*
X105483137Y-100349723D01*
X104894857Y-100592795D01*
X104444377Y-101042489D01*
X104200278Y-101630344D01*
X104199723Y-102266863D01*
X103000000Y-102266863D01*
X103000000Y-100273528D01*
X103084683Y-100358359D01*
X103305129Y-100449896D01*
X103543824Y-100450104D01*
X103764429Y-100358952D01*
X103933359Y-100190317D01*
X104024896Y-99969871D01*
X104025104Y-99731176D01*
X103933952Y-99510571D01*
X103765317Y-99341641D01*
X103544871Y-99250104D01*
X103450000Y-99250021D01*
X103450000Y-97543824D01*
X104499896Y-97543824D01*
X104591048Y-97764429D01*
X104759683Y-97933359D01*
X104980129Y-98024896D01*
X105218824Y-98025104D01*
X105439429Y-97933952D01*
X105608359Y-97765317D01*
X105699896Y-97544871D01*
X105700104Y-97306176D01*
X105608952Y-97085571D01*
X105440317Y-96916641D01*
X105219871Y-96825104D01*
X104981176Y-96824896D01*
X104760571Y-96916048D01*
X104591641Y-97084683D01*
X104500104Y-97305129D01*
X104499896Y-97543824D01*
X103450000Y-97543824D01*
X103450000Y-95018824D01*
X108499896Y-95018824D01*
X108591048Y-95239429D01*
X108759683Y-95408359D01*
X108980129Y-95499896D01*
X109218824Y-95500104D01*
X109439429Y-95408952D01*
X109608359Y-95240317D01*
X109699896Y-95019871D01*
X109700104Y-94781176D01*
X109608952Y-94560571D01*
X109537331Y-94488824D01*
X120479896Y-94488824D01*
X120571048Y-94709429D01*
X120739683Y-94878359D01*
X120960129Y-94969896D01*
X121198824Y-94970104D01*
X121419429Y-94878952D01*
X121588359Y-94710317D01*
X121679896Y-94489871D01*
X121680104Y-94251176D01*
X121588952Y-94030571D01*
X121420317Y-93861641D01*
X121199871Y-93770104D01*
X120961176Y-93769896D01*
X120740571Y-93861048D01*
X120571641Y-94029683D01*
X120480104Y-94250129D01*
X120479896Y-94488824D01*
X109537331Y-94488824D01*
X109440317Y-94391641D01*
X109219871Y-94300104D01*
X108981176Y-94299896D01*
X108760571Y-94391048D01*
X108591641Y-94559683D01*
X108500104Y-94780129D01*
X108499896Y-95018824D01*
X103450000Y-95018824D01*
X103450000Y-93318824D01*
X104649888Y-93318824D01*
X104741040Y-93539429D01*
X104909675Y-93708359D01*
X105130121Y-93799896D01*
X105368816Y-93800104D01*
X105589421Y-93708952D01*
X105758351Y-93540317D01*
X105849888Y-93319871D01*
X105850096Y-93081176D01*
X105758944Y-92860571D01*
X105590309Y-92691641D01*
X105369863Y-92600104D01*
X105131168Y-92599896D01*
X104910563Y-92691048D01*
X104741633Y-92859683D01*
X104650096Y-93080129D01*
X104649888Y-93318824D01*
X103450000Y-93318824D01*
X103450000Y-83677004D01*
X103505129Y-83699896D01*
X103743824Y-83700104D01*
X103964429Y-83608952D01*
X103975000Y-83598399D01*
X103975000Y-85949756D01*
X103935571Y-85966048D01*
X103766641Y-86134683D01*
X103675104Y-86355129D01*
X103674896Y-86593824D01*
X103766048Y-86814429D01*
X103934683Y-86983359D01*
X104155129Y-87074896D01*
X104393824Y-87075104D01*
X104614429Y-86983952D01*
X104725000Y-86873574D01*
X104725000Y-90135086D01*
X104710571Y-90141048D01*
X104541641Y-90309683D01*
X104450104Y-90530129D01*
X104449896Y-90768824D01*
X104541048Y-90989429D01*
X104709683Y-91158359D01*
X104930129Y-91249896D01*
X105168824Y-91250104D01*
X105389429Y-91158952D01*
X105558359Y-90990317D01*
X105649896Y-90769871D01*
X105650104Y-90531176D01*
X105558952Y-90310571D01*
X105525000Y-90276560D01*
X105525000Y-90218824D01*
X109829896Y-90218824D01*
X109921048Y-90439429D01*
X110089683Y-90608359D01*
X110310129Y-90699896D01*
X110548824Y-90700104D01*
X110769429Y-90608952D01*
X110938359Y-90440317D01*
X111029896Y-90219871D01*
X111030104Y-89981176D01*
X110938952Y-89760571D01*
X110770317Y-89591641D01*
X110549871Y-89500104D01*
X110311176Y-89499896D01*
X110090571Y-89591048D01*
X109921641Y-89759683D01*
X109830104Y-89980129D01*
X109829896Y-90218824D01*
X105525000Y-90218824D01*
X105525000Y-85778824D01*
X109839896Y-85778824D01*
X109931048Y-85999429D01*
X110099683Y-86168359D01*
X110320129Y-86259896D01*
X110558824Y-86260104D01*
X110779429Y-86168952D01*
X110948359Y-86000317D01*
X111039896Y-85779871D01*
X111040104Y-85541176D01*
X110948952Y-85320571D01*
X110780317Y-85151641D01*
X110559871Y-85060104D01*
X110321176Y-85059896D01*
X110100571Y-85151048D01*
X109931641Y-85319683D01*
X109840104Y-85540129D01*
X109839896Y-85778824D01*
X105525000Y-85778824D01*
X105525000Y-83268824D01*
X106549896Y-83268824D01*
X106641048Y-83489429D01*
X106809683Y-83658359D01*
X107030129Y-83749896D01*
X107268824Y-83750104D01*
X107489429Y-83658952D01*
X107658359Y-83490317D01*
X107749896Y-83269871D01*
X107750092Y-83043824D01*
X109824896Y-83043824D01*
X109916048Y-83264429D01*
X110084683Y-83433359D01*
X110305129Y-83524896D01*
X110543824Y-83525104D01*
X110764429Y-83433952D01*
X110933359Y-83265317D01*
X111024896Y-83044871D01*
X111025104Y-82806176D01*
X110933952Y-82585571D01*
X110807427Y-82458824D01*
X111769896Y-82458824D01*
X111861048Y-82679429D01*
X112029683Y-82848359D01*
X112250129Y-82939896D01*
X112488824Y-82940104D01*
X112709429Y-82848952D01*
X112878359Y-82680317D01*
X112969896Y-82459871D01*
X112970104Y-82221176D01*
X112878952Y-82000571D01*
X112710317Y-81831641D01*
X112489871Y-81740104D01*
X112251176Y-81739896D01*
X112030571Y-81831048D01*
X111861641Y-81999683D01*
X111770104Y-82220129D01*
X111769896Y-82458824D01*
X110807427Y-82458824D01*
X110765317Y-82416641D01*
X110544871Y-82325104D01*
X110306176Y-82324896D01*
X110085571Y-82416048D01*
X109916641Y-82584683D01*
X109825104Y-82805129D01*
X109824896Y-83043824D01*
X107750092Y-83043824D01*
X107750104Y-83031176D01*
X107658952Y-82810571D01*
X107490317Y-82641641D01*
X107269871Y-82550104D01*
X107031176Y-82549896D01*
X106810571Y-82641048D01*
X106641641Y-82809683D01*
X106550104Y-83030129D01*
X106549896Y-83268824D01*
X105525000Y-83268824D01*
X105525000Y-81218824D01*
X108649896Y-81218824D01*
X108741048Y-81439429D01*
X108909683Y-81608359D01*
X109130129Y-81699896D01*
X109368824Y-81700104D01*
X109589429Y-81608952D01*
X109758359Y-81440317D01*
X109849896Y-81219871D01*
X109850104Y-80981176D01*
X109758952Y-80760571D01*
X109667366Y-80668824D01*
X111589896Y-80668824D01*
X111681048Y-80889429D01*
X111849683Y-81058359D01*
X112070129Y-81149896D01*
X112308824Y-81150104D01*
X112529429Y-81058952D01*
X112698359Y-80890317D01*
X112789896Y-80669871D01*
X112790104Y-80431176D01*
X112698952Y-80210571D01*
X112530317Y-80041641D01*
X112309871Y-79950104D01*
X112071176Y-79949896D01*
X111850571Y-80041048D01*
X111681641Y-80209683D01*
X111590104Y-80430129D01*
X111589896Y-80668824D01*
X109667366Y-80668824D01*
X109590317Y-80591641D01*
X109369871Y-80500104D01*
X109131176Y-80499896D01*
X108910571Y-80591048D01*
X108741641Y-80759683D01*
X108650104Y-80980129D01*
X108649896Y-81218824D01*
X105525000Y-81218824D01*
X105525000Y-80068824D01*
X108199896Y-80068824D01*
X108291048Y-80289429D01*
X108459683Y-80458359D01*
X108680129Y-80549896D01*
X108918824Y-80550104D01*
X109139429Y-80458952D01*
X109308359Y-80290317D01*
X109399896Y-80069871D01*
X109400030Y-79916636D01*
X109480129Y-79949896D01*
X109718824Y-79950104D01*
X109939429Y-79858952D01*
X110108359Y-79690317D01*
X110199896Y-79469871D01*
X110200104Y-79231176D01*
X110108952Y-79010571D01*
X109942497Y-78843824D01*
X113299896Y-78843824D01*
X113391048Y-79064429D01*
X113559683Y-79233359D01*
X113780129Y-79324896D01*
X114018824Y-79325104D01*
X114100000Y-79291563D01*
X114100000Y-82451513D01*
X113991641Y-82559683D01*
X113900104Y-82780129D01*
X113899896Y-83018824D01*
X113991048Y-83239429D01*
X114159683Y-83408359D01*
X114380129Y-83499896D01*
X114618824Y-83500104D01*
X114839429Y-83408952D01*
X114999913Y-83248748D01*
X114999896Y-83268824D01*
X115091048Y-83489429D01*
X115259683Y-83658359D01*
X115480129Y-83749896D01*
X115718824Y-83750104D01*
X115939429Y-83658952D01*
X116108359Y-83490317D01*
X116199896Y-83269871D01*
X116200104Y-83031176D01*
X116108952Y-82810571D01*
X116000000Y-82701428D01*
X116000000Y-78568824D01*
X117399896Y-78568824D01*
X117491048Y-78789429D01*
X117659683Y-78958359D01*
X117880129Y-79049896D01*
X118118824Y-79050104D01*
X118339429Y-78958952D01*
X118508359Y-78790317D01*
X118599896Y-78569871D01*
X118600104Y-78331176D01*
X118508952Y-78110571D01*
X118450000Y-78051516D01*
X118450000Y-66298659D01*
X118459683Y-66308359D01*
X118680129Y-66399896D01*
X118918824Y-66400104D01*
X119139429Y-66308952D01*
X119308359Y-66140317D01*
X119399896Y-65919871D01*
X119400104Y-65681176D01*
X119308952Y-65460571D01*
X119140317Y-65291641D01*
X118919871Y-65200104D01*
X118681176Y-65199896D01*
X118460571Y-65291048D01*
X118450086Y-65301515D01*
X118390317Y-65241641D01*
X118169871Y-65150104D01*
X117931176Y-65149896D01*
X117710571Y-65241048D01*
X117541641Y-65409683D01*
X117450104Y-65630129D01*
X117449896Y-65868824D01*
X117541048Y-66089429D01*
X117650000Y-66198572D01*
X117650000Y-77951601D01*
X117491641Y-78109683D01*
X117400104Y-78330129D01*
X117399896Y-78568824D01*
X116000000Y-78568824D01*
X116000000Y-76508634D01*
X116018349Y-76490317D01*
X116109886Y-76269871D01*
X116110094Y-76031176D01*
X116018942Y-75810571D01*
X115850307Y-75641641D01*
X115629861Y-75550104D01*
X115391166Y-75549896D01*
X115170561Y-75641048D01*
X115001631Y-75809683D01*
X114910094Y-76030129D01*
X114909886Y-76268824D01*
X115001038Y-76489429D01*
X115169673Y-76658359D01*
X115200000Y-76670952D01*
X115200000Y-82701513D01*
X115100087Y-82801252D01*
X115100104Y-82781176D01*
X115008952Y-82560571D01*
X114900000Y-82451428D01*
X114900000Y-75628522D01*
X114988359Y-75540317D01*
X115079896Y-75319871D01*
X115080104Y-75081176D01*
X114988952Y-74860571D01*
X114820317Y-74691641D01*
X114599871Y-74600104D01*
X114361176Y-74599896D01*
X114140571Y-74691048D01*
X113971641Y-74859683D01*
X113880104Y-75080129D01*
X113879896Y-75318824D01*
X113971048Y-75539429D01*
X114100000Y-75668607D01*
X114100000Y-78158376D01*
X114019871Y-78125104D01*
X113781176Y-78124896D01*
X113560571Y-78216048D01*
X113391641Y-78384683D01*
X113300104Y-78605129D01*
X113299896Y-78843824D01*
X109942497Y-78843824D01*
X109940317Y-78841641D01*
X109786309Y-78777691D01*
X109869566Y-78653087D01*
X109900014Y-78500014D01*
X109900014Y-74743824D01*
X111799896Y-74743824D01*
X111891048Y-74964429D01*
X112059683Y-75133359D01*
X112280129Y-75224896D01*
X112518824Y-75225104D01*
X112739429Y-75133952D01*
X112908359Y-74965317D01*
X112999896Y-74744871D01*
X113000104Y-74506176D01*
X112908952Y-74285571D01*
X112740317Y-74116641D01*
X112519871Y-74025104D01*
X112281176Y-74024896D01*
X112060571Y-74116048D01*
X111891641Y-74284683D01*
X111800104Y-74505129D01*
X111799896Y-74743824D01*
X109900014Y-74743824D01*
X109900014Y-73900000D01*
X109869566Y-73746927D01*
X109782857Y-73617157D01*
X109653087Y-73530448D01*
X109500014Y-73500000D01*
X109346941Y-73530448D01*
X109217171Y-73617157D01*
X109130462Y-73746927D01*
X109100014Y-73900000D01*
X109100014Y-78500014D01*
X109130462Y-78653087D01*
X109217171Y-78782857D01*
X109287567Y-78829894D01*
X109260571Y-78841048D01*
X109091641Y-79009683D01*
X109000104Y-79230129D01*
X108999970Y-79383364D01*
X108919871Y-79350104D01*
X108681176Y-79349896D01*
X108460571Y-79441048D01*
X108291641Y-79609683D01*
X108200104Y-79830129D01*
X108199896Y-80068824D01*
X105525000Y-80068824D01*
X105525000Y-78848824D01*
X105669896Y-78848824D01*
X105761048Y-79069429D01*
X105929683Y-79238359D01*
X106150129Y-79329896D01*
X106388824Y-79330104D01*
X106609429Y-79238952D01*
X106778359Y-79070317D01*
X106869896Y-78849871D01*
X106870104Y-78611176D01*
X106778952Y-78390571D01*
X106610317Y-78221641D01*
X106389871Y-78130104D01*
X106151176Y-78129896D01*
X105930571Y-78221048D01*
X105761641Y-78389683D01*
X105670104Y-78610129D01*
X105669896Y-78848824D01*
X105525000Y-78848824D01*
X105525000Y-77496243D01*
X105630129Y-77539896D01*
X105868824Y-77540104D01*
X106089429Y-77448952D01*
X106258359Y-77280317D01*
X106263131Y-77268824D01*
X106399896Y-77268824D01*
X106491048Y-77489429D01*
X106659683Y-77658359D01*
X106880129Y-77749896D01*
X107118824Y-77750104D01*
X107339429Y-77658952D01*
X107508359Y-77490317D01*
X107599896Y-77269871D01*
X107600104Y-77031176D01*
X107508952Y-76810571D01*
X107340317Y-76641641D01*
X107119871Y-76550104D01*
X106881176Y-76549896D01*
X106660571Y-76641048D01*
X106491641Y-76809683D01*
X106400104Y-77030129D01*
X106399896Y-77268824D01*
X106263131Y-77268824D01*
X106349896Y-77059871D01*
X106350104Y-76821176D01*
X106258952Y-76600571D01*
X106090317Y-76431641D01*
X105869871Y-76340104D01*
X105631176Y-76339896D01*
X105525000Y-76383767D01*
X105525000Y-75570092D01*
X105538824Y-75570104D01*
X105759429Y-75478952D01*
X105928359Y-75310317D01*
X106019896Y-75089871D01*
X106020104Y-74851176D01*
X105928952Y-74630571D01*
X105760317Y-74461641D01*
X105539871Y-74370104D01*
X105301176Y-74369896D01*
X105080571Y-74461048D01*
X104964946Y-74576471D01*
X104850317Y-74461641D01*
X104629871Y-74370104D01*
X104391176Y-74369896D01*
X104170571Y-74461048D01*
X104114981Y-74516541D01*
X103980317Y-74381641D01*
X103759871Y-74290104D01*
X103677119Y-74290032D01*
X103700000Y-74175000D01*
X103700000Y-72558824D01*
X110599896Y-72558824D01*
X110691048Y-72779429D01*
X110859683Y-72948359D01*
X111080129Y-73039896D01*
X111318824Y-73040104D01*
X111539429Y-72948952D01*
X111708359Y-72780317D01*
X111799896Y-72559871D01*
X111800104Y-72321176D01*
X111708952Y-72100571D01*
X111540317Y-71931641D01*
X111509451Y-71918824D01*
X112449896Y-71918824D01*
X112541048Y-72139429D01*
X112709683Y-72308359D01*
X112930129Y-72399896D01*
X113168824Y-72400104D01*
X113389429Y-72308952D01*
X113558359Y-72140317D01*
X113649896Y-71919871D01*
X113650104Y-71681176D01*
X113558952Y-71460571D01*
X113390317Y-71291641D01*
X113169871Y-71200104D01*
X112931176Y-71199896D01*
X112710571Y-71291048D01*
X112541641Y-71459683D01*
X112450104Y-71680129D01*
X112449896Y-71918824D01*
X111509451Y-71918824D01*
X111319871Y-71840104D01*
X111081176Y-71839896D01*
X110860571Y-71931048D01*
X110691641Y-72099683D01*
X110600104Y-72320129D01*
X110599896Y-72558824D01*
X103700000Y-72558824D01*
X103700000Y-68048487D01*
X103808359Y-67940317D01*
X103850000Y-67840034D01*
X103850000Y-68260000D01*
X103880448Y-68413074D01*
X103967157Y-68542843D01*
X104720029Y-69295715D01*
X104719896Y-69448824D01*
X104811048Y-69669429D01*
X104979683Y-69838359D01*
X105200129Y-69929896D01*
X105349904Y-69930027D01*
X105349896Y-69938824D01*
X105441048Y-70159429D01*
X105609683Y-70328359D01*
X105750000Y-70386624D01*
X105750000Y-70700000D01*
X105780448Y-70853074D01*
X105867157Y-70982843D01*
X106267155Y-71382840D01*
X106267157Y-71382843D01*
X106396927Y-71469552D01*
X106550000Y-71500000D01*
X108751513Y-71500000D01*
X108859683Y-71608359D01*
X109080129Y-71699896D01*
X109318824Y-71700104D01*
X109539429Y-71608952D01*
X109708359Y-71440317D01*
X109799896Y-71219871D01*
X109800104Y-70981176D01*
X109708952Y-70760571D01*
X109540317Y-70591641D01*
X109319871Y-70500104D01*
X109081176Y-70499896D01*
X108860571Y-70591048D01*
X108751428Y-70700000D01*
X106715685Y-70700000D01*
X106550000Y-70534314D01*
X106550000Y-70389719D01*
X106755129Y-70474896D01*
X106993824Y-70475104D01*
X107214429Y-70383952D01*
X107383359Y-70215317D01*
X107474896Y-69994871D01*
X107475104Y-69756176D01*
X107383952Y-69535571D01*
X107367235Y-69518824D01*
X108674896Y-69518824D01*
X108766048Y-69739429D01*
X108934683Y-69908359D01*
X109155129Y-69999896D01*
X109393824Y-70000104D01*
X109614429Y-69908952D01*
X109783359Y-69740317D01*
X109874896Y-69519871D01*
X109875104Y-69281176D01*
X109783952Y-69060571D01*
X109615317Y-68891641D01*
X109394871Y-68800104D01*
X109156176Y-68799896D01*
X108935571Y-68891048D01*
X108766641Y-69059683D01*
X108675104Y-69280129D01*
X108674896Y-69518824D01*
X107367235Y-69518824D01*
X107215317Y-69366641D01*
X106994871Y-69275104D01*
X106950000Y-69275065D01*
X106950000Y-67248489D01*
X106971048Y-67299429D01*
X107139683Y-67468359D01*
X107360129Y-67559896D01*
X107598824Y-67560104D01*
X107819429Y-67468952D01*
X107988359Y-67300317D01*
X108079896Y-67079871D01*
X108079914Y-67058824D01*
X113809896Y-67058824D01*
X113901048Y-67279429D01*
X114069683Y-67448359D01*
X114290129Y-67539896D01*
X114528824Y-67540104D01*
X114749429Y-67448952D01*
X114918359Y-67280317D01*
X115009896Y-67059871D01*
X115010104Y-66821176D01*
X114918952Y-66600571D01*
X114750317Y-66431641D01*
X114529871Y-66340104D01*
X114291176Y-66339896D01*
X114070571Y-66431048D01*
X113901641Y-66599683D01*
X113810104Y-66820129D01*
X113809896Y-67058824D01*
X108079914Y-67058824D01*
X108080104Y-66841176D01*
X107988952Y-66620571D01*
X107820317Y-66451641D01*
X107599871Y-66360104D01*
X107361176Y-66359896D01*
X107140571Y-66451048D01*
X106971641Y-66619683D01*
X106950000Y-66671800D01*
X106950000Y-63618824D01*
X116949896Y-63618824D01*
X117041048Y-63839429D01*
X117209683Y-64008359D01*
X117430129Y-64099896D01*
X117668824Y-64100104D01*
X117889429Y-64008952D01*
X118058359Y-63840317D01*
X118149896Y-63619871D01*
X118150104Y-63381176D01*
X118058952Y-63160571D01*
X117890317Y-62991641D01*
X117669871Y-62900104D01*
X117431176Y-62899896D01*
X117210571Y-62991048D01*
X117041641Y-63159683D01*
X116950104Y-63380129D01*
X116949896Y-63618824D01*
X106950000Y-63618824D01*
X106950000Y-62443824D01*
X107624896Y-62443824D01*
X107716048Y-62664429D01*
X107884683Y-62833359D01*
X108105129Y-62924896D01*
X108343824Y-62925104D01*
X108564429Y-62833952D01*
X108733359Y-62665317D01*
X108824896Y-62444871D01*
X108825104Y-62206176D01*
X108733952Y-61985571D01*
X108565317Y-61816641D01*
X108344871Y-61725104D01*
X108106176Y-61724896D01*
X107885571Y-61816048D01*
X107716641Y-61984683D01*
X107625104Y-62205129D01*
X107624896Y-62443824D01*
X106950000Y-62443824D01*
X106950000Y-55643824D01*
X120624896Y-55643824D01*
X120716048Y-55864429D01*
X120884683Y-56033359D01*
X121105129Y-56124896D01*
X121343824Y-56125104D01*
X121564429Y-56033952D01*
X121733359Y-55865317D01*
X121824896Y-55644871D01*
X121825104Y-55406176D01*
X121733952Y-55185571D01*
X121565317Y-55016641D01*
X121344871Y-54925104D01*
X121106176Y-54924896D01*
X120885571Y-55016048D01*
X120716641Y-55184683D01*
X120625104Y-55405129D01*
X120624896Y-55643824D01*
X106950000Y-55643824D01*
X106950000Y-53998487D01*
X107058359Y-53890317D01*
X107149896Y-53669871D01*
X107149896Y-53668824D01*
X112499896Y-53668824D01*
X112591048Y-53889429D01*
X112759683Y-54058359D01*
X112980129Y-54149896D01*
X113218824Y-54150104D01*
X113267479Y-54130000D01*
X127027470Y-54130000D01*
X127115009Y-54570086D01*
X127364297Y-54943173D01*
X127737384Y-55192461D01*
X128177470Y-55280000D01*
X128222530Y-55280000D01*
X128662616Y-55192461D01*
X129035703Y-54943173D01*
X129284991Y-54570086D01*
X129372530Y-54130000D01*
X129284991Y-53689914D01*
X129035703Y-53316827D01*
X128662616Y-53067539D01*
X128222530Y-52980000D01*
X128177470Y-52980000D01*
X127737384Y-53067539D01*
X127364297Y-53316827D01*
X127115009Y-53689914D01*
X127027470Y-54130000D01*
X113267479Y-54130000D01*
X113439429Y-54058952D01*
X113608359Y-53890317D01*
X113699896Y-53669871D01*
X113700104Y-53431176D01*
X113608952Y-53210571D01*
X113440317Y-53041641D01*
X113219871Y-52950104D01*
X112981176Y-52949896D01*
X112760571Y-53041048D01*
X112591641Y-53209683D01*
X112500104Y-53430129D01*
X112499896Y-53668824D01*
X107149896Y-53668824D01*
X107150104Y-53431176D01*
X107058952Y-53210571D01*
X106890317Y-53041641D01*
X106669871Y-52950104D01*
X106431176Y-52949896D01*
X106210571Y-53041048D01*
X106041641Y-53209683D01*
X105950104Y-53430129D01*
X105949896Y-53668824D01*
X106041048Y-53889429D01*
X106150000Y-53998572D01*
X106150000Y-67857309D01*
X106138952Y-67830571D01*
X105970317Y-67661641D01*
X105749871Y-67570104D01*
X105511176Y-67569896D01*
X105290571Y-67661048D01*
X105121641Y-67829683D01*
X105030104Y-68050129D01*
X105029896Y-68288824D01*
X105121048Y-68509429D01*
X105289683Y-68678359D01*
X105414245Y-68730082D01*
X105285655Y-68729970D01*
X104650000Y-68094314D01*
X104650000Y-63618824D01*
X104849896Y-63618824D01*
X104941048Y-63839429D01*
X105050000Y-63948572D01*
X105050000Y-66531478D01*
X104961641Y-66619683D01*
X104870104Y-66840129D01*
X104869896Y-67078824D01*
X104961048Y-67299429D01*
X105129683Y-67468359D01*
X105350129Y-67559896D01*
X105588824Y-67560104D01*
X105809429Y-67468952D01*
X105978359Y-67300317D01*
X106069896Y-67079871D01*
X106070104Y-66841176D01*
X105978952Y-66620571D01*
X105850000Y-66491393D01*
X105850000Y-63948487D01*
X105958359Y-63840317D01*
X106049896Y-63619871D01*
X106050104Y-63381176D01*
X105958952Y-63160571D01*
X105790317Y-62991641D01*
X105569871Y-62900104D01*
X105331176Y-62899896D01*
X105110571Y-62991048D01*
X104941641Y-63159683D01*
X104850104Y-63380129D01*
X104849896Y-63618824D01*
X104650000Y-63618824D01*
X104650000Y-52918824D01*
X109899896Y-52918824D01*
X109991048Y-53139429D01*
X110159683Y-53308359D01*
X110380129Y-53399896D01*
X110618824Y-53400104D01*
X110839429Y-53308952D01*
X111008359Y-53140317D01*
X111099896Y-52919871D01*
X111100104Y-52681176D01*
X111008952Y-52460571D01*
X110840317Y-52291641D01*
X110619871Y-52200104D01*
X110381176Y-52199896D01*
X110160571Y-52291048D01*
X109991641Y-52459683D01*
X109900104Y-52680129D01*
X109899896Y-52918824D01*
X104650000Y-52918824D01*
X104650000Y-52398487D01*
X104758359Y-52290317D01*
X104849896Y-52069871D01*
X104850104Y-51831176D01*
X104758952Y-51610571D01*
X104590317Y-51441641D01*
X104369871Y-51350104D01*
X104131176Y-51349896D01*
X103910571Y-51441048D01*
X103741641Y-51609683D01*
X103650104Y-51830129D01*
X103649896Y-52068824D01*
X103741048Y-52289429D01*
X103850000Y-52398572D01*
X103850000Y-62951603D01*
X103690317Y-62791641D01*
X103469871Y-62700104D01*
X103231176Y-62699896D01*
X103010571Y-62791048D01*
X102950000Y-62851513D01*
X102950000Y-53248487D01*
X103058359Y-53140317D01*
X103149896Y-52919871D01*
X103150104Y-52681176D01*
X103058952Y-52460571D01*
X102890317Y-52291641D01*
X102669871Y-52200104D01*
X102431176Y-52199896D01*
X102210571Y-52291048D01*
X102041641Y-52459683D01*
X101950104Y-52680129D01*
X101949896Y-52918824D01*
X102041048Y-53139429D01*
X102150000Y-53248572D01*
X102150000Y-60401341D01*
X102140317Y-60391641D01*
X101919871Y-60300104D01*
X101681176Y-60299896D01*
X101550000Y-60354097D01*
X101550000Y-59048487D01*
X101658359Y-58940317D01*
X101749896Y-58719871D01*
X101750104Y-58481176D01*
X101658952Y-58260571D01*
X101490317Y-58091641D01*
X101269871Y-58000104D01*
X101031176Y-57999896D01*
X100950000Y-58033437D01*
X100950000Y-56348530D01*
X101033359Y-56265317D01*
X101124896Y-56044871D01*
X101125104Y-55806176D01*
X101033952Y-55585571D01*
X100865317Y-55416641D01*
X100644871Y-55325104D01*
X100406176Y-55324896D01*
X100350000Y-55348107D01*
X100350000Y-53598574D01*
X100408359Y-53540317D01*
X100499896Y-53319871D01*
X100500104Y-53081176D01*
X100408952Y-52860571D01*
X100240317Y-52691641D01*
X100019871Y-52600104D01*
X99781176Y-52599896D01*
X99560571Y-52691048D01*
X99391641Y-52859683D01*
X99300104Y-53080129D01*
X99299896Y-53318824D01*
X99385126Y-53525096D01*
X99156176Y-53524896D01*
X98935571Y-53616048D01*
X98766641Y-53784683D01*
X98675104Y-54005129D01*
X98674896Y-54243824D01*
X98766048Y-54464429D01*
X98850000Y-54548528D01*
X98850000Y-61676513D01*
X98741641Y-61784683D01*
X98650104Y-62005129D01*
X98649896Y-62243824D01*
X98550049Y-62243824D01*
X98550104Y-62181182D01*
X98458952Y-61960577D01*
X98350000Y-61851434D01*
X98350000Y-57048399D01*
X98508359Y-56890317D01*
X98599896Y-56669871D01*
X98600104Y-56431176D01*
X98508952Y-56210571D01*
X98340317Y-56041641D01*
X98119871Y-55950104D01*
X97881176Y-55949896D01*
X97660571Y-56041048D01*
X97491641Y-56209683D01*
X97400104Y-56430129D01*
X97399896Y-56668824D01*
X97491048Y-56889429D01*
X97550000Y-56948484D01*
X97550000Y-61851519D01*
X97441641Y-61959689D01*
X97350104Y-62180135D01*
X97349896Y-62418830D01*
X90650000Y-62418830D01*
X90650000Y-58668824D01*
X91099896Y-58668824D01*
X91191048Y-58889429D01*
X91359683Y-59058359D01*
X91580129Y-59149896D01*
X91818824Y-59150104D01*
X92039429Y-59058952D01*
X92208359Y-58890317D01*
X92299896Y-58669871D01*
X92300104Y-58431176D01*
X92208952Y-58210571D01*
X92040317Y-58041641D01*
X91819871Y-57950104D01*
X91581176Y-57949896D01*
X91360571Y-58041048D01*
X91191641Y-58209683D01*
X91100104Y-58430129D01*
X91099896Y-58668824D01*
X90650000Y-58668824D01*
X90650000Y-56168824D01*
X92199884Y-56168824D01*
X92291036Y-56389429D01*
X92459671Y-56558359D01*
X92680117Y-56649896D01*
X92918812Y-56650104D01*
X93139417Y-56558952D01*
X93308347Y-56390317D01*
X93360339Y-56265107D01*
X93391048Y-56339429D01*
X93500000Y-56448572D01*
X93500000Y-60551339D01*
X93491641Y-60559683D01*
X93400104Y-60780129D01*
X93399896Y-61018824D01*
X93491048Y-61239429D01*
X93659683Y-61408359D01*
X93880129Y-61499896D01*
X94118824Y-61500104D01*
X94339429Y-61408952D01*
X94508359Y-61240317D01*
X94599896Y-61019871D01*
X94600104Y-60781176D01*
X94508952Y-60560571D01*
X94340317Y-60391641D01*
X94300000Y-60374900D01*
X94300000Y-56448487D01*
X94408359Y-56340317D01*
X94499896Y-56119871D01*
X94499984Y-56018824D01*
X95549896Y-56018824D01*
X95641048Y-56239429D01*
X95809683Y-56408359D01*
X96030129Y-56499896D01*
X96268824Y-56500104D01*
X96489429Y-56408952D01*
X96658359Y-56240317D01*
X96749896Y-56019871D01*
X96750104Y-55781176D01*
X96658952Y-55560571D01*
X96490317Y-55391641D01*
X96269871Y-55300104D01*
X96031176Y-55299896D01*
X95810571Y-55391048D01*
X95641641Y-55559683D01*
X95550104Y-55780129D01*
X95549896Y-56018824D01*
X94499984Y-56018824D01*
X94500104Y-55881176D01*
X94408952Y-55660571D01*
X94240317Y-55491641D01*
X94019871Y-55400104D01*
X93781176Y-55399896D01*
X93560571Y-55491048D01*
X93391641Y-55659683D01*
X93339649Y-55784893D01*
X93308940Y-55710571D01*
X93140305Y-55541641D01*
X92919859Y-55450104D01*
X92681164Y-55449896D01*
X92460559Y-55541048D01*
X92291629Y-55709683D01*
X92200092Y-55930129D01*
X92199884Y-56168824D01*
X90650000Y-56168824D01*
X90650000Y-55150005D01*
X90650001Y-55150000D01*
X90619552Y-54996927D01*
X90583635Y-54943173D01*
X90532843Y-54867157D01*
X90532840Y-54867155D01*
X89849971Y-54184285D01*
X89850104Y-54031176D01*
X89758952Y-53810571D01*
X89590317Y-53641641D01*
X89369871Y-53550104D01*
X89131176Y-53549896D01*
X88910571Y-53641048D01*
X88741641Y-53809683D01*
X88650104Y-54030129D01*
X88649896Y-54268824D01*
X80350000Y-54268824D01*
X80350000Y-49865615D01*
X80831114Y-51030001D01*
X81814821Y-52015425D01*
X83100753Y-52549391D01*
X84493139Y-52550606D01*
X85780001Y-52018886D01*
X86765425Y-51035179D01*
X86855265Y-50818820D01*
X115999896Y-50818820D01*
X116091048Y-51039425D01*
X116259683Y-51208355D01*
X116480129Y-51299892D01*
X116718824Y-51300100D01*
X116939429Y-51208948D01*
X117108359Y-51040313D01*
X117199896Y-50819867D01*
X117199896Y-50818824D01*
X121099896Y-50818824D01*
X121191048Y-51039429D01*
X121359683Y-51208359D01*
X121580129Y-51299896D01*
X121818824Y-51300104D01*
X122039429Y-51208952D01*
X122208359Y-51040317D01*
X122299896Y-50819871D01*
X122300104Y-50581176D01*
X122208952Y-50360571D01*
X122040317Y-50191641D01*
X121819871Y-50100104D01*
X121581176Y-50099896D01*
X121360571Y-50191048D01*
X121191641Y-50359683D01*
X121100104Y-50580129D01*
X121099896Y-50818824D01*
X117199896Y-50818824D01*
X117200104Y-50581172D01*
X117108952Y-50360567D01*
X116940317Y-50191637D01*
X116719871Y-50100100D01*
X116481176Y-50099892D01*
X116260571Y-50191044D01*
X116091641Y-50359679D01*
X116000104Y-50580125D01*
X115999896Y-50818820D01*
X86855265Y-50818820D01*
X87299391Y-49749247D01*
X87300159Y-48868824D01*
X88799896Y-48868824D01*
X88891048Y-49089429D01*
X89059683Y-49258359D01*
X89280129Y-49349896D01*
X89518824Y-49350104D01*
X89739429Y-49258952D01*
X89908359Y-49090317D01*
X89999896Y-48869871D01*
X89999940Y-48818824D01*
X100399898Y-48818824D01*
X100491050Y-49039429D01*
X100659685Y-49208359D01*
X100880131Y-49299896D01*
X101118826Y-49300104D01*
X101339431Y-49208952D01*
X101508361Y-49040317D01*
X101599898Y-48819871D01*
X101600106Y-48581176D01*
X101508954Y-48360571D01*
X101340319Y-48191641D01*
X101119873Y-48100104D01*
X100881178Y-48099896D01*
X100660573Y-48191048D01*
X100491643Y-48359683D01*
X100400106Y-48580129D01*
X100399898Y-48818824D01*
X89999940Y-48818824D01*
X90000104Y-48631176D01*
X89908952Y-48410571D01*
X89740317Y-48241641D01*
X89519871Y-48150104D01*
X89281176Y-48149896D01*
X89060571Y-48241048D01*
X88891641Y-48409683D01*
X88800104Y-48630129D01*
X88799896Y-48868824D01*
X87300159Y-48868824D01*
X87300606Y-48356861D01*
X86768886Y-47069999D01*
X86368416Y-46668830D01*
X103899896Y-46668830D01*
X103991048Y-46889435D01*
X104159683Y-47058365D01*
X104380129Y-47149902D01*
X104618824Y-47150110D01*
X104839429Y-47058958D01*
X105008359Y-46890323D01*
X105099896Y-46669877D01*
X105099896Y-46668824D01*
X113299896Y-46668824D01*
X113391048Y-46889429D01*
X113559683Y-47058359D01*
X113780129Y-47149896D01*
X114018824Y-47150104D01*
X114239429Y-47058952D01*
X114408359Y-46890317D01*
X114434455Y-46827470D01*
X116610000Y-46827470D01*
X116610000Y-46872530D01*
X116697539Y-47312616D01*
X116946827Y-47685703D01*
X117319914Y-47934991D01*
X117760000Y-48022530D01*
X118200086Y-47934991D01*
X118573173Y-47685703D01*
X118822461Y-47312616D01*
X118910000Y-46872530D01*
X118910000Y-46827470D01*
X118822461Y-46387384D01*
X118573173Y-46014297D01*
X118551776Y-46000000D01*
X119144123Y-46000000D01*
X119144123Y-47700000D01*
X119165042Y-47811173D01*
X119230745Y-47913279D01*
X119330997Y-47981778D01*
X119450000Y-48005877D01*
X121150000Y-48005877D01*
X121261173Y-47984958D01*
X121363279Y-47919255D01*
X121431778Y-47819003D01*
X121455877Y-47700000D01*
X121455877Y-46000000D01*
X121434958Y-45888827D01*
X121369255Y-45786721D01*
X121269003Y-45718222D01*
X121150000Y-45694123D01*
X119450000Y-45694123D01*
X119338827Y-45715042D01*
X119236721Y-45780745D01*
X119168222Y-45880997D01*
X119144123Y-46000000D01*
X118551776Y-46000000D01*
X118200086Y-45765009D01*
X117760000Y-45677470D01*
X117319914Y-45765009D01*
X116946827Y-46014297D01*
X116697539Y-46387384D01*
X116610000Y-46827470D01*
X114434455Y-46827470D01*
X114499896Y-46669871D01*
X114500104Y-46431176D01*
X114408952Y-46210571D01*
X114240317Y-46041641D01*
X114019871Y-45950104D01*
X113781176Y-45949896D01*
X113560571Y-46041048D01*
X113391641Y-46209683D01*
X113300104Y-46430129D01*
X113299896Y-46668824D01*
X105099896Y-46668824D01*
X105100104Y-46431182D01*
X105008952Y-46210577D01*
X104840317Y-46041647D01*
X104619871Y-45950110D01*
X104381176Y-45949902D01*
X104160571Y-46041054D01*
X103991641Y-46209689D01*
X103900104Y-46430135D01*
X103899896Y-46668830D01*
X86368416Y-46668830D01*
X85785179Y-46084575D01*
X84499247Y-45550609D01*
X83106861Y-45549394D01*
X81819999Y-46081114D01*
X80834575Y-47064821D01*
X80350000Y-48231806D01*
X80350000Y-45400000D01*
X125034385Y-45400000D01*
X123869999Y-45881114D01*
G36*
X128354000Y-91656000D02*
X128374000Y-91656000D01*
X128374000Y-91964000D01*
X128354000Y-91964000D01*
X128354000Y-91984000D01*
X128046000Y-91984000D01*
X128046000Y-91964000D01*
X128026000Y-91964000D01*
X128026000Y-91656000D01*
X128046000Y-91656000D01*
X128046000Y-91636000D01*
X128354000Y-91636000D01*
X128354000Y-91656000D01*
X128354000Y-91656000D01*
G37*
X128354000Y-91656000D02*
X128374000Y-91656000D01*
X128374000Y-91964000D01*
X128354000Y-91964000D01*
X128354000Y-91984000D01*
X128046000Y-91984000D01*
X128046000Y-91964000D01*
X128026000Y-91964000D01*
X128026000Y-91656000D01*
X128046000Y-91656000D01*
X128046000Y-91636000D01*
X128354000Y-91636000D01*
X128354000Y-91656000D01*
G36*
X128354000Y-77916000D02*
X128374000Y-77916000D01*
X128374000Y-78224000D01*
X128354000Y-78224000D01*
X128354000Y-79367856D01*
X128578911Y-79477915D01*
X129088854Y-79225741D01*
X129463477Y-78797616D01*
X129607903Y-78448910D01*
X129496890Y-78224002D01*
X129650000Y-78224002D01*
X129650000Y-91655998D01*
X129496890Y-91655998D01*
X129607903Y-91431090D01*
X129463477Y-91082384D01*
X129088854Y-90654259D01*
X128578911Y-90402085D01*
X128354002Y-90512143D01*
X128354002Y-90393848D01*
X128662616Y-90332461D01*
X129035703Y-90083173D01*
X129284991Y-89710086D01*
X129372530Y-89270000D01*
X129284991Y-88829914D01*
X129035703Y-88456827D01*
X128662616Y-88207539D01*
X128222530Y-88120000D01*
X128177470Y-88120000D01*
X127737384Y-88207539D01*
X127364297Y-88456827D01*
X127275000Y-88590470D01*
X127275000Y-87409530D01*
X127364297Y-87543173D01*
X127737384Y-87792461D01*
X128177470Y-87880000D01*
X128222530Y-87880000D01*
X128662616Y-87792461D01*
X129035703Y-87543173D01*
X129284991Y-87170086D01*
X129372530Y-86730000D01*
X129284991Y-86289914D01*
X129035703Y-85916827D01*
X128662616Y-85667539D01*
X128222530Y-85580000D01*
X128177470Y-85580000D01*
X127737384Y-85667539D01*
X127364297Y-85916827D01*
X127275000Y-86050470D01*
X127275000Y-84869530D01*
X127364297Y-85003173D01*
X127737384Y-85252461D01*
X128177470Y-85340000D01*
X128222530Y-85340000D01*
X128662616Y-85252461D01*
X129035703Y-85003173D01*
X129284991Y-84630086D01*
X129372530Y-84190000D01*
X129284991Y-83749914D01*
X129035703Y-83376827D01*
X128662616Y-83127539D01*
X128222530Y-83040000D01*
X128177470Y-83040000D01*
X127737384Y-83127539D01*
X127364297Y-83376827D01*
X127275000Y-83510470D01*
X127275000Y-82790689D01*
X127350000Y-82805877D01*
X129050000Y-82805877D01*
X129161173Y-82784958D01*
X129263279Y-82719255D01*
X129331778Y-82619003D01*
X129355877Y-82500000D01*
X129355877Y-80800000D01*
X129334958Y-80688827D01*
X129269255Y-80586721D01*
X129169003Y-80518222D01*
X129050000Y-80494123D01*
X127350000Y-80494123D01*
X127275000Y-80508235D01*
X127275000Y-79184433D01*
X127311146Y-79225741D01*
X127821089Y-79477915D01*
X128046000Y-79367856D01*
X128046000Y-78224000D01*
X128026000Y-78224000D01*
X128026000Y-77916000D01*
X128046000Y-77916000D01*
X128046000Y-77896000D01*
X128354000Y-77896000D01*
X128354000Y-77916000D01*
X128354000Y-77916000D01*
G37*
X128354000Y-77916000D02*
X128374000Y-77916000D01*
X128374000Y-78224000D01*
X128354000Y-78224000D01*
X128354000Y-79367856D01*
X128578911Y-79477915D01*
X129088854Y-79225741D01*
X129463477Y-78797616D01*
X129607903Y-78448910D01*
X129496890Y-78224002D01*
X129650000Y-78224002D01*
X129650000Y-91655998D01*
X129496890Y-91655998D01*
X129607903Y-91431090D01*
X129463477Y-91082384D01*
X129088854Y-90654259D01*
X128578911Y-90402085D01*
X128354002Y-90512143D01*
X128354002Y-90393848D01*
X128662616Y-90332461D01*
X129035703Y-90083173D01*
X129284991Y-89710086D01*
X129372530Y-89270000D01*
X129284991Y-88829914D01*
X129035703Y-88456827D01*
X128662616Y-88207539D01*
X128222530Y-88120000D01*
X128177470Y-88120000D01*
X127737384Y-88207539D01*
X127364297Y-88456827D01*
X127275000Y-88590470D01*
X127275000Y-87409530D01*
X127364297Y-87543173D01*
X127737384Y-87792461D01*
X128177470Y-87880000D01*
X128222530Y-87880000D01*
X128662616Y-87792461D01*
X129035703Y-87543173D01*
X129284991Y-87170086D01*
X129372530Y-86730000D01*
X129284991Y-86289914D01*
X129035703Y-85916827D01*
X128662616Y-85667539D01*
X128222530Y-85580000D01*
X128177470Y-85580000D01*
X127737384Y-85667539D01*
X127364297Y-85916827D01*
X127275000Y-86050470D01*
X127275000Y-84869530D01*
X127364297Y-85003173D01*
X127737384Y-85252461D01*
X128177470Y-85340000D01*
X128222530Y-85340000D01*
X128662616Y-85252461D01*
X129035703Y-85003173D01*
X129284991Y-84630086D01*
X129372530Y-84190000D01*
X129284991Y-83749914D01*
X129035703Y-83376827D01*
X128662616Y-83127539D01*
X128222530Y-83040000D01*
X128177470Y-83040000D01*
X127737384Y-83127539D01*
X127364297Y-83376827D01*
X127275000Y-83510470D01*
X127275000Y-82790689D01*
X127350000Y-82805877D01*
X129050000Y-82805877D01*
X129161173Y-82784958D01*
X129263279Y-82719255D01*
X129331778Y-82619003D01*
X129355877Y-82500000D01*
X129355877Y-80800000D01*
X129334958Y-80688827D01*
X129269255Y-80586721D01*
X129169003Y-80518222D01*
X129050000Y-80494123D01*
X127350000Y-80494123D01*
X127275000Y-80508235D01*
X127275000Y-79184433D01*
X127311146Y-79225741D01*
X127821089Y-79477915D01*
X128046000Y-79367856D01*
X128046000Y-78224000D01*
X128026000Y-78224000D01*
X128026000Y-77916000D01*
X128046000Y-77916000D01*
X128046000Y-77896000D01*
X128354000Y-77896000D01*
X128354000Y-77916000D01*
M02*
