G04 #@! TF.FileFunction,Soldermask,Bot*
%FSLAX46Y46*%
G04 Gerber Fmt 4.6, Leading zero omitted, Abs format (unit mm)*
G04 Created by KiCad (PCBNEW 4.0.7) date 02/18/18 10:01:47*
%MOMM*%
%LPD*%
G01*
G04 APERTURE LIST*
%ADD10C,0.100000*%
%ADD11R,1.700000X1.700000*%
%ADD12O,1.700000X1.700000*%
%ADD13C,2.600000*%
%ADD14C,0.909320*%
%ADD15C,6.400000*%
G04 APERTURE END LIST*
D10*
D11*
X81610000Y-86910000D03*
D12*
X84150000Y-86910000D03*
X81610000Y-89450000D03*
X84150000Y-89450000D03*
X81610000Y-91990000D03*
X84150000Y-91990000D03*
D13*
X105800000Y-101950000D03*
X105800000Y-107950000D03*
X110500000Y-104950000D03*
D14*
X92050280Y-109150260D03*
X96449560Y-109150260D03*
D11*
X128200000Y-66830000D03*
D12*
X128200000Y-64290000D03*
X128200000Y-61750000D03*
X128200000Y-59210000D03*
X128200000Y-56670000D03*
X128200000Y-54130000D03*
D11*
X128200000Y-70450000D03*
D12*
X128200000Y-72990000D03*
X128200000Y-75530000D03*
X128200000Y-78070000D03*
D11*
X81610000Y-78210000D03*
D12*
X84150000Y-78210000D03*
X81610000Y-80750000D03*
X84150000Y-80750000D03*
X81610000Y-83290000D03*
X84150000Y-83290000D03*
D11*
X117400000Y-105670000D03*
D12*
X119940000Y-105670000D03*
X117400000Y-108210000D03*
X119940000Y-108210000D03*
X117400000Y-110750000D03*
X119940000Y-110750000D03*
X117400000Y-113290000D03*
X119940000Y-113290000D03*
D11*
X120300000Y-46850000D03*
D12*
X117760000Y-46850000D03*
D11*
X128200000Y-81650000D03*
D12*
X128200000Y-84190000D03*
X128200000Y-86730000D03*
X128200000Y-89270000D03*
X128200000Y-91810000D03*
X128200000Y-94350000D03*
D11*
X125600000Y-70450000D03*
D12*
X125600000Y-72990000D03*
X125600000Y-75530000D03*
X125600000Y-78070000D03*
D11*
X128200000Y-97950000D03*
D12*
X128200000Y-100490000D03*
X128200000Y-103030000D03*
X128200000Y-105570000D03*
D15*
X125850000Y-48850000D03*
X125800000Y-111050000D03*
X83800000Y-49050000D03*
X83800000Y-111050000D03*
M02*
